<?xml version="1.0" encoding="utf-8"?>
<!-- Generator: Adobe Illustrator 27.0.1, SVG Export Plug-In . SVG Version: 6.00 Build 0)  -->
<svg version="1.1" xmlns="http://www.w3.org/2000/svg" xmlns:xlink="http://www.w3.org/1999/xlink" x="0px" y="0px"
	 viewBox="0 0 1056 319" style="enable-background:new 0 0 1056 319;" xml:space="preserve">
<style type="text/css">
	.st0{fill:#0043CE;}
	.st1{fill:#6929C4;}
	.st2{fill:#78A9FF;}
	.st3{font-family:'IBMPlexSans';}
	.st4{font-size:10px;}
	.st5{fill:none;stroke:#000000;stroke-width:2;stroke-miterlimit:10;}
	.st6{fill:none;stroke:#000000;stroke-width:2;stroke-miterlimit:10;stroke-dasharray:10.6414,10.6414;}
	.st7{fill:none;stroke:#000000;stroke-width:2;stroke-miterlimit:10;stroke-dasharray:12.109,12.109;}
	.st8{fill:none;stroke:#000000;stroke-width:2;stroke-miterlimit:10;stroke-dasharray:11.7334,11.7334;}
	.st9{font-size:131px;}
	.st10{fill:#001D6C;}
	.st11{font-size:12px;}
</style>
<g id="Layer_1">
	<path class="st0" d="M804.3,112l-4.9,0.1c-1,0-1.8-0.7-2-1.6c-0.2-1.2-0.5-2.5-0.8-3.6c-0.3-0.9,0.2-1.9,1.1-2.3l4.4-2
		c1-0.4,1.4-1.6,1-2.6l-1.5-3.3c-0.4-1-1.6-1.4-2.6-1l-4.4,2c-0.9,0.4-1.9,0.1-2.5-0.7c-0.7-1.1-1.4-2.1-2.2-3.1
		c-0.6-0.8-0.5-1.9,0.1-2.6l3.4-3.5c0.7-0.8,0.7-2-0.1-2.8l-2.6-2.5c-0.8-0.7-2-0.7-2.8,0.1l-3.4,3.5c-0.7,0.7-1.8,0.8-2.6,0.3
		c-1-0.7-2.1-1.4-3.2-2c-0.8-0.5-1.2-1.5-0.9-2.4l1.7-4.5c0.4-1-0.1-2.2-1.1-2.5l-3.3-1.3c-1-0.4-2.2,0.1-2.5,1.1l-1.7,4.5
		c-0.4,0.9-1.3,1.4-2.3,1.2c-1.2-0.3-2.5-0.5-3.7-0.6c-1-0.1-1.7-0.9-1.7-1.9l-0.1-4.9c0-1.1-0.9-1.9-2-1.9l-3.6,0.1
		c-1.1,0-1.9,0.9-1.9,2l0.1,4.9c0,1-0.7,1.8-1.6,2c-1.2,0.2-2.4,0.5-3.6,0.8c-0.9,0.3-1.9-0.2-2.3-1.1l-2-4.4c-0.4-1-1.6-1.4-2.6-1
		l-3.3,1.5c-1,0.4-1.4,1.6-1,2.6l2,4.5c0.4,0.9,0.1,1.9-0.7,2.5c-1.1,0.7-2.1,1.4-3.1,2.2c-0.8,0.6-1.9,0.5-2.6-0.1l-3.5-3.4
		c-0.8-0.7-2-0.7-2.8,0.1l-2.5,2.6c-0.7,0.8-0.7,2,0.1,2.8l3.5,3.4c0.7,0.7,0.8,1.8,0.3,2.6c-0.7,1-1.4,2.1-2,3.2
		c-0.5,0.8-1.5,1.2-2.4,0.9l-4.5-1.7c-1-0.4-2.2,0.1-2.5,1.1l-1.3,3.3c-0.4,1,0.1,2.2,1.1,2.5l4.5,1.7c0.9,0.4,1.4,1.3,1.2,2.3
		c-0.3,1.2-0.5,2.5-0.6,3.7c-0.1,1-0.9,1.7-1.9,1.7l-4.9,0.1c-1.1,0-1.9,0.9-1.9,2l0.1,3.6c0,1.1,0.9,1.9,2,1.9l4.9-0.1
		c1,0,1.8,0.7,2,1.6c0.2,1.2,0.5,2.4,0.8,3.6c0.3,0.9-0.2,1.9-1.1,2.3l-4.4,2c-1,0.4-1.4,1.6-1,2.6l1.5,3.3c0.4,1,1.6,1.4,2.6,1
		l4.5-2c0.9-0.4,1.9-0.1,2.5,0.7c0.7,1.1,1.4,2.1,2.2,3.1c0.6,0.8,0.5,1.9-0.1,2.6l-3.4,3.5c-0.7,0.8-0.7,2,0.1,2.8l2.6,2.5
		c0.8,0.7,2,0.7,2.8-0.1l3.4-3.5c0.7-0.7,1.8-0.8,2.6-0.3c1,0.7,2.1,1.4,3.2,2c0.8,0.5,1.2,1.5,0.9,2.4l-1.7,4.5
		c-0.4,1,0.1,2.2,1.1,2.5l3.3,1.3c1,0.4,2.2-0.1,2.5-1.1l1.7-4.5c0.4-0.9,1.3-1.4,2.3-1.2c1.2,0.3,2.5,0.5,3.7,0.6
		c1,0.1,1.7,0.9,1.7,1.9l0.1,4.9c0,1.1,0.9,1.9,2,1.9l3.6-0.1c1.1,0,1.9-0.9,1.9-2l-0.1-4.9c0-1,0.7-1.8,1.6-2
		c1.2-0.2,2.5-0.5,3.6-0.8c0.9-0.3,1.9,0.2,2.3,1.1l2,4.4c0.4,1,1.6,1.4,2.6,1l3.3-1.5c1-0.4,1.4-1.6,1-2.6l-2-4.5
		c-0.4-0.9-0.1-1.9,0.7-2.5c1.1-0.7,2.1-1.4,3.1-2.2c0.8-0.6,1.9-0.5,2.6,0.1l3.5,3.4c0.8,0.7,2,0.7,2.8-0.1l2.5-2.6
		c0.7-0.8,0.7-2-0.1-2.8l-3.5-3.4c-0.7-0.7-0.8-1.8-0.3-2.6c0.7-1,1.4-2.1,2-3.2c0.5-0.8,1.5-1.2,2.4-0.9l4.5,1.7
		c1,0.4,2.2-0.1,2.5-1.1l1.3-3.3c0.4-1-0.1-2.2-1.1-2.5l-4.5-1.7c-0.9-0.4-1.4-1.3-1.2-2.3c0.3-1.2,0.5-2.5,0.6-3.7
		c0.1-1,0.9-1.7,1.9-1.7l4.9-0.1c1.1,0,1.9-0.9,1.9-2l-0.1-3.6C806.3,112.8,805.4,112,804.3,112z M789.5,119.9
		c-0.1,1.3-0.4,2.6-0.7,3.8c-0.6,2.5-1.5,4.8-2.7,7c-0.6,1.1-1.3,2.2-2.1,3.2c-1.5,2-3.2,3.9-5.2,5.5c-1,0.8-2.1,1.6-3.2,2.2
		c-2.1,1.3-4.4,2.3-6.9,3.1c-1.2,0.4-2.5,0.6-3.8,0.8c-1.2,0.2-2.5,0.3-3.8,0.3c-1.3,0-2.5,0-3.8-0.1c-1.3-0.1-2.6-0.4-3.8-0.7
		c-2.5-0.6-4.8-1.5-7-2.7c-1.1-0.6-2.2-1.3-3.2-2.1c-2-1.5-3.9-3.2-5.5-5.2c-0.8-1-1.6-2.1-2.2-3.2c-1.3-2.1-2.3-4.4-3.1-6.9
		c-0.4-1.2-0.6-2.5-0.8-3.7c-0.2-1.2-0.3-2.5-0.3-3.8c0-1.3,0-2.5,0.1-3.8c0.1-1.3,0.4-2.6,0.7-3.8c0.6-2.5,1.5-4.8,2.7-7
		c0.6-1.1,1.3-2.2,2.1-3.2c1.5-2,3.2-3.9,5.2-5.5c1-0.8,2.1-1.6,3.2-2.2c2.1-1.3,4.4-2.3,6.9-3.1c1.2-0.4,2.5-0.6,3.8-0.8
		c1.2-0.2,2.5-0.3,3.8-0.3c1.3,0,2.5,0,3.8,0.1c1.3,0.1,2.6,0.4,3.8,0.7c2.5,0.6,4.8,1.5,7,2.7c1.1,0.6,2.2,1.3,3.2,2.1
		c2,1.5,3.9,3.2,5.5,5.2c0.8,1,1.6,2.1,2.2,3.2c1.3,2.1,2.3,4.4,3.1,6.9c0.4,1.2,0.6,2.5,0.8,3.8c0.2,1.2,0.3,2.5,0.3,3.8
		C789.7,117.4,789.7,118.7,789.5,119.9z"/>
	<path class="st1" d="M729.5,174.5l-4.9-0.2c-1,0-1.8-0.8-1.9-1.8c-0.1-1.2-0.3-2.5-0.6-3.7c-0.2-1,0.3-1.9,1.2-2.2l4.6-1.7
		c1-0.4,1.5-1.5,1.2-2.5l-1.2-3.4c-0.4-1-1.5-1.5-2.5-1.2l-4.6,1.7c-0.9,0.3-1.9,0-2.4-0.9c-0.6-1.1-1.3-2.2-2-3.2
		c-0.6-0.8-0.4-1.9,0.3-2.6l3.6-3.3c0.8-0.7,0.8-2,0.1-2.8l-2.4-2.6c-0.7-0.8-2-0.8-2.8-0.1l-3.6,3.3c-0.7,0.7-1.8,0.7-2.6,0.1
		c-1-0.8-2-1.5-3-2.2c-0.8-0.5-1.1-1.6-0.7-2.5l2-4.4c0.5-1,0-2.2-1-2.6l-3.3-1.5c-1-0.5-2.2,0-2.6,1l-2,4.4
		c-0.4,0.9-1.4,1.3-2.3,1.1c-1.2-0.4-2.4-0.6-3.7-0.9c-1-0.2-1.6-1-1.6-2l0.2-4.9c0-1.1-0.8-2-1.9-2l-3.6-0.1c-1.1,0-2,0.8-2,1.9
		l-0.2,4.9c0,1-0.8,1.8-1.8,1.9c-1.2,0.1-2.5,0.3-3.7,0.6c-1,0.2-1.9-0.3-2.2-1.2l-1.7-4.6c-0.4-1-1.5-1.5-2.5-1.2l-3.4,1.2
		c-1,0.4-1.5,1.5-1.2,2.5l1.7,4.6c0.3,0.9,0,1.9-0.9,2.4c-1.1,0.6-2.2,1.3-3.2,2c-0.8,0.6-1.9,0.4-2.6-0.3l-3.3-3.6
		c-0.7-0.8-2-0.8-2.8-0.1l-2.6,2.4c-0.8,0.7-0.8,2-0.1,2.8l3.3,3.6c0.7,0.7,0.7,1.8,0.1,2.6c-0.8,1-1.5,2-2.2,3
		c-0.5,0.8-1.6,1.1-2.5,0.7l-4.4-2c-1-0.5-2.2,0-2.6,1l-1.5,3.3c-0.5,1,0,2.2,1,2.6l4.4,2c0.9,0.4,1.3,1.4,1.1,2.3
		c-0.4,1.2-0.6,2.4-0.9,3.7c-0.2,1-1,1.6-2,1.6l-4.9-0.2c-1.1,0-2,0.8-2,1.9l-0.1,3.6c0,1.1,0.8,2,1.9,2l4.9,0.2
		c1,0,1.8,0.8,1.9,1.8c0.1,1.2,0.3,2.5,0.6,3.7c0.2,1-0.3,1.9-1.2,2.2l-4.6,1.7c-1,0.4-1.5,1.5-1.2,2.5l1.2,3.4
		c0.4,1,1.5,1.5,2.5,1.2l4.6-1.7c0.9-0.3,1.9,0,2.4,0.9c0.6,1.1,1.3,2.2,2,3.2c0.6,0.8,0.4,1.9-0.3,2.6l-3.6,3.3
		c-0.8,0.7-0.8,2-0.1,2.8l2.4,2.6c0.7,0.8,2,0.8,2.8,0.1l3.6-3.3c0.7-0.7,1.8-0.7,2.6-0.1c1,0.8,2,1.5,3,2.2
		c0.8,0.5,1.1,1.6,0.7,2.5l-2,4.4c-0.5,1,0,2.2,1,2.6l3.3,1.5c1,0.5,2.2,0,2.6-1l2-4.4c0.4-0.9,1.4-1.3,2.3-1.1
		c1.2,0.4,2.4,0.6,3.7,0.9c1,0.2,1.6,1,1.6,2l-0.2,4.9c0,1.1,0.8,2,1.9,2l3.6,0.1c1.1,0,2-0.8,2-1.9l0.2-4.9c0-1,0.8-1.8,1.8-1.9
		c1.2-0.1,2.5-0.3,3.7-0.6c1-0.2,1.9,0.3,2.2,1.2l1.7,4.6c0.4,1,1.5,1.5,2.5,1.2l3.4-1.2c1-0.4,1.5-1.5,1.2-2.5l-1.7-4.6
		c-0.3-0.9,0-1.9,0.9-2.4c1.1-0.6,2.2-1.3,3.2-2c0.8-0.6,1.9-0.4,2.6,0.3l3.3,3.6c0.7,0.8,2,0.8,2.8,0.1l2.6-2.4
		c0.8-0.7,0.8-2,0.1-2.8l-3.3-3.6c-0.7-0.7-0.7-1.8-0.1-2.6c0.8-1,1.5-2,2.2-3c0.5-0.8,1.6-1.1,2.5-0.7l4.4,2c1,0.5,2.2,0,2.6-1
		l1.5-3.3c0.5-1,0-2.2-1-2.6l-4.4-2c-0.9-0.4-1.3-1.4-1.1-2.3c0.4-1.2,0.6-2.4,0.9-3.7c0.2-1,1-1.6,2-1.6l4.9,0.2c1.1,0,2-0.8,2-1.9
		l0.1-3.6C731.4,175.4,730.6,174.5,729.5,174.5z M714.2,181.4c-0.2,1.3-0.5,2.5-0.9,3.8c-0.8,2.4-1.8,4.7-3.2,6.8
		c-0.7,1.1-1.4,2.1-2.3,3.1c-1.6,1.9-3.5,3.7-5.5,5.1c-1.1,0.7-2.2,1.4-3.3,2c-2.2,1.2-4.6,2-7.1,2.6c-1.2,0.3-2.5,0.5-3.8,0.6
		c-1.2,0.1-2.5,0.1-3.8,0.1s-2.5-0.2-3.8-0.4c-1.3-0.2-2.5-0.5-3.8-0.9c-2.4-0.8-4.7-1.8-6.8-3.2c-1.1-0.7-2.1-1.4-3.1-2.3
		c-1.9-1.6-3.7-3.5-5.1-5.5c-0.7-1.1-1.4-2.2-2-3.3c-1.2-2.2-2-4.6-2.6-7.1c-0.3-1.2-0.5-2.5-0.6-3.8c-0.1-1.2-0.1-2.5-0.1-3.8
		s0.2-2.5,0.4-3.8c0.2-1.3,0.5-2.6,0.9-3.8c0.8-2.4,1.8-4.7,3.2-6.8c0.7-1.1,1.4-2.1,2.3-3.1c1.6-1.9,3.5-3.7,5.5-5.1
		c1.1-0.7,2.2-1.4,3.3-2c2.2-1.2,4.6-2,7.1-2.6c1.2-0.3,2.5-0.5,3.8-0.6c1.2-0.1,2.5-0.1,3.8-0.1c1.3,0,2.5,0.2,3.8,0.4
		c1.3,0.2,2.5,0.5,3.8,0.9c2.4,0.8,4.7,1.8,6.8,3.2c1.1,0.7,2.1,1.4,3.1,2.3c1.9,1.6,3.7,3.5,5.1,5.5c0.7,1.1,1.4,2.2,2,3.3
		c1.2,2.2,2,4.6,2.6,7.1c0.3,1.2,0.5,2.5,0.6,3.8c0.1,1.2,0.1,2.5,0.1,3.8C714.6,178.9,714.5,180.2,714.2,181.4z"/>
	<path class="st2" d="M814.6,200.8h-4.9c-1,0-1.8-0.7-1.9-1.7c-0.2-1.2-0.4-2.5-0.7-3.7c-0.2-0.9,0.3-1.9,1.2-2.3l4.5-1.9
		c1-0.4,1.5-1.6,1.1-2.6l-1.4-3.3c-0.4-1-1.6-1.5-2.6-1.1l-4.5,1.9c-0.9,0.4-1.9,0-2.4-0.8c-0.6-1.1-1.3-2.1-2.1-3.1
		c-0.6-0.8-0.5-1.9,0.2-2.6l3.4-3.4c0.8-0.8,0.8-2,0-2.8l-2.5-2.5c-0.8-0.8-2-0.8-2.8,0l-3.4,3.4c-0.7,0.7-1.8,0.8-2.6,0.2
		c-1-0.7-2-1.4-3.1-2.1c-0.8-0.5-1.2-1.5-0.8-2.4l1.9-4.5c0.4-1-0.1-2.2-1.1-2.6l-3.3-1.4c-1-0.4-2.2,0.1-2.6,1.1l-1.9,4.5
		c-0.4,0.9-1.4,1.4-2.3,1.2c-1.2-0.3-2.4-0.6-3.7-0.7c-1-0.1-1.7-1-1.7-1.9v-4.9c0-1.1-0.9-2-2-2H769c-1.1,0-2,0.9-2,2v4.9
		c0,1-0.7,1.8-1.7,1.9c-1.2,0.2-2.5,0.4-3.7,0.7c-0.9,0.2-1.9-0.3-2.3-1.2l-1.9-4.5c-0.4-1-1.6-1.5-2.6-1.1l-3.3,1.4
		c-1,0.4-1.5,1.6-1.1,2.6l1.9,4.5c0.4,0.9,0,1.9-0.8,2.4c-1.1,0.6-2.1,1.3-3.1,2.1c-0.8,0.6-1.9,0.5-2.6-0.2l-3.4-3.4
		c-0.8-0.8-2-0.8-2.8,0l-2.5,2.5c-0.8,0.8-0.8,2,0,2.8l3.4,3.4c0.7,0.7,0.8,1.8,0.2,2.6c-0.7,1-1.4,2-2.1,3.1
		c-0.5,0.8-1.5,1.2-2.4,0.8l-4.5-1.9c-1-0.4-2.2,0.1-2.6,1.1l-1.4,3.3c-0.4,1,0.1,2.2,1.1,2.6l4.5,1.9c0.9,0.4,1.4,1.4,1.2,2.3
		c-0.3,1.2-0.6,2.4-0.7,3.7c-0.1,1-1,1.7-1.9,1.7H727c-1.1,0-2,0.9-2,2v3.6c0,1.1,0.9,2,2,2h4.9c1,0,1.8,0.7,1.9,1.7
		c0.2,1.2,0.4,2.5,0.7,3.7c0.2,0.9-0.3,1.9-1.2,2.3l-4.5,1.9c-1,0.4-1.5,1.6-1.1,2.6l1.4,3.3c0.4,1,1.6,1.5,2.6,1.1l4.5-1.9
		c0.9-0.4,1.9,0,2.4,0.8c0.6,1.1,1.3,2.1,2.1,3.1c0.6,0.8,0.5,1.9-0.2,2.6l-3.4,3.4c-0.8,0.8-0.8,2,0,2.8l2.5,2.5
		c0.8,0.8,2,0.8,2.8,0l3.4-3.4c0.7-0.7,1.8-0.8,2.6-0.2c1,0.7,2,1.4,3.1,2.1c0.8,0.5,1.2,1.5,0.8,2.4l-1.9,4.5
		c-0.4,1,0.1,2.2,1.1,2.6l3.3,1.4c1,0.4,2.2-0.1,2.6-1.1l1.9-4.5c0.4-0.9,1.4-1.4,2.3-1.2c1.2,0.3,2.4,0.6,3.7,0.7
		c1,0.1,1.7,1,1.7,1.9v4.9c0,1.1,0.9,2,2,2h3.6c1.1,0,2-0.9,2-2v-4.9c0-1,0.7-1.8,1.7-1.9c1.2-0.2,2.5-0.4,3.7-0.7
		c0.9-0.2,1.9,0.3,2.3,1.2l1.9,4.5c0.4,1,1.6,1.5,2.6,1.1l3.3-1.4c1-0.4,1.5-1.6,1.1-2.6l-1.9-4.5c-0.4-0.9,0-1.9,0.8-2.4
		c1.1-0.6,2.1-1.4,3.1-2.1c0.8-0.6,1.9-0.5,2.6,0.2l3.4,3.4c0.8,0.8,2,0.8,2.8,0l2.5-2.5c0.8-0.8,0.8-2,0-2.8l-3.4-3.4
		c-0.7-0.7-0.8-1.8-0.2-2.6c0.7-1,1.4-2,2.1-3.1c0.5-0.8,1.5-1.2,2.4-0.8l4.5,1.9c1,0.4,2.2-0.1,2.6-1.1l1.4-3.3
		c0.4-1-0.1-2.2-1.1-2.6l-4.5-1.9c-0.9-0.4-1.4-1.4-1.2-2.3c0.3-1.2,0.6-2.4,0.7-3.7c0.1-1,1-1.7,1.9-1.7h4.9c1.1,0,2-0.9,2-2v-3.6
		C816.6,201.7,815.7,200.8,814.6,200.8z M799.6,208.3c-0.2,1.3-0.4,2.6-0.8,3.8c-0.7,2.5-1.6,4.8-2.9,7c-0.6,1.1-1.4,2.2-2.1,3.2
		c-1.5,2-3.3,3.8-5.3,5.3c-1,0.8-2.1,1.5-3.2,2.2c-2.2,1.2-4.5,2.2-7,2.9c-1.2,0.3-2.5,0.6-3.8,0.7c-1.2,0.2-2.5,0.2-3.8,0.2
		c-1.3,0-2.5-0.1-3.8-0.2c-1.3-0.2-2.6-0.4-3.8-0.8c-2.5-0.7-4.8-1.6-7-2.9c-1.1-0.6-2.2-1.4-3.2-2.1c-2-1.5-3.8-3.3-5.3-5.3
		c-0.8-1-1.5-2.1-2.2-3.2c-1.2-2.2-2.2-4.5-2.9-7c-0.3-1.2-0.6-2.5-0.7-3.8c-0.2-1.2-0.2-2.5-0.2-3.8c0-1.3,0.1-2.5,0.2-3.8
		c0.2-1.3,0.4-2.6,0.8-3.8c0.7-2.5,1.6-4.8,2.9-7c0.6-1.1,1.4-2.2,2.1-3.2c1.5-2,3.3-3.8,5.3-5.3c1-0.8,2.1-1.5,3.2-2.2
		c2.2-1.2,4.5-2.2,7-2.9c1.2-0.3,2.5-0.6,3.8-0.7c1.2-0.2,2.5-0.2,3.8-0.2c1.3,0,2.5,0.1,3.8,0.2c1.3,0.2,2.6,0.4,3.8,0.8
		c2.5,0.7,4.8,1.6,7,2.9c1.1,0.6,2.2,1.4,3.2,2.1c2,1.5,3.8,3.3,5.3,5.3c0.8,1,1.5,2.1,2.2,3.2c1.2,2.2,2.2,4.5,2.9,7
		c0.3,1.2,0.6,2.5,0.7,3.8c0.2,1.2,0.2,2.5,0.2,3.8C799.8,205.9,799.8,207.1,799.6,208.3z"/>
</g>
<g id="Layer_6">
	<text transform="matrix(1 0 0 1 865.7053 168.6248)" class="st3 st4">Other architectures are not impacted</text>
	<g>
		<g>
			<line class="st5" x1="144.4" y1="289.4" x2="144.4" y2="283.4"/>
			<line class="st6" x1="144.4" y1="272.7" x2="144.4" y2="235.5"/>
			<line class="st5" x1="144.4" y1="230.2" x2="144.4" y2="224.2"/>
		</g>
	</g>
	<g>
		<g>
			<line class="st5" x1="147.9" y1="293.3" x2="153.9" y2="293.3"/>
			<line class="st7" x1="166" y1="293.3" x2="668.5" y2="293.3"/>
			<line class="st5" x1="674.6" y1="293.3" x2="680.6" y2="293.3"/>
		</g>
	</g>
	<g>
		<g>
			<line class="st5" x1="683.6" y1="289.4" x2="683.6" y2="283.4"/>
			<line class="st8" x1="683.6" y1="271.6" x2="683.6" y2="254"/>
			<line class="st5" x1="683.6" y1="248.2" x2="683.6" y2="242.2"/>
			<g>
				<polygon points="671.4,243.8 695.7,243.8 683.6,231.7 				"/>
			</g>
		</g>
	</g>
</g>
<g id="Layer_9">
	<text transform="matrix(1 0 0 1 157.5405 279.3807)" class="st3 st4">Cloud automation for Secrets Manager is updated</text>
</g>
<g id="Layer_7">
	<text transform="matrix(1 0 0 1 818.4057 205.6003)" class="st3 st9">}</text>
</g>
<g id="Layer_4">
	<path class="st0" d="M265.6,110l-4.9,0.1c-1,0-1.8-0.7-2-1.6c-0.2-1.2-0.5-2.5-0.8-3.6c-0.3-0.9,0.2-1.9,1.1-2.3l4.4-2
		c1-0.4,1.4-1.6,1-2.6l-1.5-3.3c-0.4-1-1.6-1.4-2.6-1l-4.4,2c-0.9,0.4-1.9,0.1-2.5-0.7c-0.7-1.1-1.4-2.1-2.2-3.1
		c-0.6-0.8-0.5-1.9,0.1-2.6l3.4-3.5c0.7-0.8,0.7-2-0.1-2.8l-2.6-2.5c-0.8-0.7-2-0.7-2.8,0.1l-3.4,3.5c-0.7,0.7-1.8,0.8-2.6,0.3
		c-1-0.7-2.1-1.4-3.2-2c-0.8-0.5-1.2-1.5-0.9-2.4l1.7-4.5c0.4-1-0.1-2.2-1.1-2.5l-3.3-1.3c-1-0.4-2.2,0.1-2.5,1.1l-1.7,4.5
		c-0.4,0.9-1.3,1.4-2.3,1.2c-1.2-0.3-2.5-0.5-3.7-0.6c-1-0.1-1.7-0.9-1.7-1.9l-0.1-4.9c0-1.1-0.9-1.9-2-1.9l-3.6,0.1
		c-1.1,0-1.9,0.9-1.9,2l0.1,4.9c0,1-0.7,1.8-1.6,2c-1.2,0.2-2.4,0.5-3.6,0.8c-0.9,0.3-1.9-0.2-2.3-1.1l-2-4.4c-0.4-1-1.6-1.4-2.6-1
		l-3.3,1.5c-1,0.4-1.4,1.6-1,2.6l2,4.5c0.4,0.9,0.1,1.9-0.7,2.5c-1.1,0.7-2.1,1.4-3.1,2.2c-0.8,0.6-1.9,0.5-2.6-0.1l-3.5-3.4
		c-0.8-0.7-2-0.7-2.8,0.1l-2.5,2.6c-0.7,0.8-0.7,2,0.1,2.8l3.5,3.4c0.7,0.7,0.8,1.8,0.3,2.6c-0.7,1-1.4,2.1-2,3.2
		c-0.5,0.8-1.5,1.2-2.4,0.9l-4.5-1.7c-1-0.4-2.2,0.1-2.5,1.1l-1.3,3.3c-0.4,1,0.1,2.2,1.1,2.5l4.5,1.7c0.9,0.4,1.4,1.3,1.2,2.3
		c-0.3,1.2-0.5,2.5-0.6,3.7c-0.1,1-0.9,1.7-1.9,1.7l-4.9,0.1c-1.1,0-1.9,0.9-1.9,2l0.1,3.6c0,1.1,0.9,1.9,2,1.9l4.9-0.1
		c1,0,1.8,0.7,2,1.6c0.2,1.2,0.5,2.4,0.8,3.6c0.3,0.9-0.2,1.9-1.1,2.3l-4.4,2c-1,0.4-1.4,1.6-1,2.6l1.5,3.3c0.4,1,1.6,1.4,2.6,1
		l4.5-2c0.9-0.4,1.9-0.1,2.5,0.7c0.7,1.1,1.4,2.1,2.2,3.1c0.6,0.8,0.5,1.9-0.1,2.6l-3.4,3.5c-0.7,0.8-0.7,2,0.1,2.8l2.6,2.5
		c0.8,0.7,2,0.7,2.8-0.1l3.4-3.5c0.7-0.7,1.8-0.8,2.6-0.3c1,0.7,2.1,1.4,3.2,2c0.8,0.5,1.2,1.5,0.9,2.4l-1.7,4.5
		c-0.4,1,0.1,2.2,1.1,2.5l3.3,1.3c1,0.4,2.2-0.1,2.5-1.1l1.7-4.5c0.4-0.9,1.3-1.4,2.3-1.2c1.2,0.3,2.5,0.5,3.7,0.6
		c1,0.1,1.7,0.9,1.7,1.9l0.1,4.9c0,1.1,0.9,1.9,2,1.9l3.6-0.1c1.1,0,1.9-0.9,1.9-2l-0.1-4.9c0-1,0.7-1.8,1.6-2
		c1.2-0.2,2.5-0.5,3.6-0.8c0.9-0.3,1.9,0.2,2.3,1.1l2,4.4c0.4,1,1.6,1.4,2.6,1l3.3-1.5c1-0.4,1.4-1.6,1-2.6l-2-4.5
		c-0.4-0.9-0.1-1.9,0.7-2.5c1.1-0.7,2.1-1.4,3.1-2.2c0.8-0.6,1.9-0.5,2.6,0.1l3.5,3.4c0.8,0.7,2,0.7,2.8-0.1l2.5-2.6
		c0.7-0.8,0.7-2-0.1-2.8l-3.5-3.4c-0.7-0.7-0.8-1.8-0.3-2.6c0.7-1,1.4-2.1,2-3.2c0.5-0.8,1.5-1.2,2.4-0.9l4.5,1.7
		c1,0.4,2.2-0.1,2.5-1.1l1.3-3.3c0.4-1-0.1-2.2-1.1-2.5l-4.5-1.7c-0.9-0.4-1.4-1.3-1.2-2.3c0.3-1.2,0.5-2.5,0.6-3.7
		c0.1-1,0.9-1.7,1.9-1.7l4.9-0.1c1.1,0,1.9-0.9,1.9-2l-0.1-3.6C267.6,110.9,266.7,110,265.6,110z M250.8,117.9
		c-0.1,1.3-0.4,2.6-0.7,3.8c-0.6,2.5-1.5,4.8-2.7,7c-0.6,1.1-1.3,2.2-2.1,3.2c-1.5,2-3.2,3.9-5.2,5.5c-1,0.8-2.1,1.6-3.2,2.2
		c-2.1,1.3-4.4,2.3-6.9,3.1c-1.2,0.4-2.5,0.6-3.8,0.8c-1.2,0.2-2.5,0.3-3.8,0.3s-2.5,0-3.8-0.1c-1.3-0.1-2.6-0.4-3.8-0.7
		c-2.5-0.6-4.8-1.5-7-2.7c-1.1-0.6-2.2-1.3-3.2-2.1c-2-1.5-3.9-3.2-5.5-5.2c-0.8-1-1.6-2.1-2.2-3.2c-1.3-2.1-2.3-4.4-3.1-6.9
		c-0.4-1.2-0.6-2.5-0.8-3.7c-0.2-1.2-0.3-2.5-0.3-3.8c0-1.3,0-2.5,0.1-3.8c0.1-1.3,0.4-2.6,0.7-3.8c0.6-2.5,1.5-4.8,2.7-7
		c0.6-1.1,1.3-2.2,2.1-3.2c1.5-2,3.2-3.9,5.2-5.5c1-0.8,2.1-1.6,3.2-2.2c2.1-1.3,4.4-2.3,6.9-3.1c1.2-0.4,2.5-0.6,3.8-0.8
		c1.2-0.2,2.5-0.3,3.8-0.3c1.3,0,2.5,0,3.8,0.1c1.3,0.1,2.6,0.4,3.8,0.7c2.5,0.6,4.8,1.5,7,2.7c1.1,0.6,2.2,1.3,3.2,2.1
		c2,1.5,3.9,3.2,5.5,5.2c0.8,1,1.6,2.1,2.2,3.2c1.3,2.1,2.3,4.4,3.1,6.9c0.4,1.2,0.6,2.5,0.8,3.8c0.2,1.2,0.3,2.5,0.3,3.8
		C251,115.4,251,116.7,250.8,117.9z"/>
	<path class="st10" d="M190.8,172.5l-4.9-0.2c-1,0-1.8-0.8-1.9-1.8c-0.1-1.2-0.3-2.5-0.6-3.7c-0.2-1,0.3-1.9,1.2-2.2l4.6-1.7
		c1-0.4,1.5-1.5,1.2-2.5l-1.2-3.4c-0.4-1-1.5-1.5-2.5-1.2l-4.6,1.7c-0.9,0.3-1.9,0-2.4-0.9c-0.6-1.1-1.3-2.2-2-3.2
		c-0.6-0.8-0.4-1.9,0.3-2.6l3.6-3.3c0.8-0.7,0.8-2,0.1-2.8l-2.4-2.6c-0.7-0.8-2-0.8-2.8-0.1l-3.6,3.3c-0.7,0.7-1.8,0.7-2.6,0.1
		c-1-0.8-2-1.5-3-2.2c-0.8-0.5-1.1-1.6-0.7-2.5l2-4.4c0.5-1,0-2.2-1-2.6l-3.3-1.5c-1-0.5-2.2,0-2.6,1l-2,4.4
		c-0.4,0.9-1.4,1.3-2.3,1.1c-1.2-0.4-2.4-0.6-3.7-0.9c-1-0.2-1.6-1-1.6-2l0.2-4.9c0-1.1-0.8-2-1.9-2l-3.6-0.1c-1.1,0-2,0.8-2,1.9
		l-0.2,4.9c0,1-0.8,1.8-1.8,1.9c-1.2,0.1-2.5,0.3-3.7,0.6c-1,0.2-1.9-0.3-2.2-1.2l-1.7-4.6c-0.4-1-1.5-1.5-2.5-1.2l-3.4,1.2
		c-1,0.4-1.5,1.5-1.2,2.5l1.7,4.6c0.3,0.9,0,1.9-0.9,2.4c-1.1,0.6-2.2,1.3-3.2,2c-0.8,0.6-1.9,0.4-2.6-0.3l-3.3-3.6
		c-0.7-0.8-2-0.8-2.8-0.1l-2.6,2.4c-0.8,0.7-0.8,2-0.1,2.8l3.3,3.6c0.7,0.7,0.7,1.8,0.1,2.6c-0.8,1-1.5,2-2.2,3
		c-0.5,0.8-1.6,1.1-2.5,0.7l-4.4-2c-1-0.5-2.2,0-2.6,1l-1.5,3.3c-0.5,1,0,2.2,1,2.6l4.4,2c0.9,0.4,1.3,1.4,1.1,2.3
		c-0.4,1.2-0.6,2.4-0.9,3.7c-0.2,1-1,1.6-2,1.6l-4.9-0.2c-1.1,0-2,0.8-2,1.9l-0.1,3.6c0,1.1,0.8,2,1.9,2l4.9,0.2
		c1,0,1.8,0.8,1.9,1.8c0.1,1.2,0.3,2.5,0.6,3.7c0.2,1-0.3,1.9-1.2,2.2l-4.6,1.7c-1,0.4-1.5,1.5-1.2,2.5l1.2,3.4
		c0.4,1,1.5,1.5,2.5,1.2l4.6-1.7c0.9-0.3,1.9,0,2.4,0.9c0.6,1.1,1.3,2.2,2,3.2c0.6,0.8,0.4,1.9-0.3,2.6l-3.6,3.3
		c-0.8,0.7-0.8,2-0.1,2.8l2.4,2.6c0.7,0.8,2,0.8,2.8,0.1l3.6-3.3c0.7-0.7,1.8-0.7,2.6-0.1c1,0.8,2,1.5,3,2.2
		c0.8,0.5,1.1,1.6,0.7,2.5l-2,4.4c-0.5,1,0,2.2,1,2.6l3.3,1.5c1,0.5,2.2,0,2.6-1l2-4.4c0.4-0.9,1.4-1.3,2.3-1.1
		c1.2,0.4,2.4,0.6,3.7,0.9c1,0.2,1.6,1,1.6,2l-0.2,4.9c0,1.1,0.8,2,1.9,2l3.6,0.1c1.1,0,2-0.8,2-1.9l0.2-4.9c0-1,0.8-1.8,1.8-1.9
		c1.2-0.1,2.5-0.3,3.7-0.6c1-0.2,1.9,0.3,2.2,1.2l1.7,4.6c0.4,1,1.5,1.5,2.5,1.2l3.4-1.2c1-0.4,1.5-1.5,1.2-2.5l-1.7-4.6
		c-0.3-0.9,0-1.9,0.9-2.4c1.1-0.6,2.2-1.3,3.2-2c0.8-0.6,1.9-0.4,2.6,0.3l3.3,3.6c0.7,0.8,2,0.8,2.8,0.1l2.6-2.4
		c0.8-0.7,0.8-2,0.1-2.8l-3.3-3.6c-0.7-0.7-0.7-1.8-0.1-2.6c0.8-1,1.5-2,2.2-3c0.5-0.8,1.6-1.1,2.5-0.7l4.4,2c1,0.5,2.2,0,2.6-1
		l1.5-3.3c0.5-1,0-2.2-1-2.6l-4.4-2c-0.9-0.4-1.3-1.4-1.1-2.3c0.4-1.2,0.6-2.4,0.9-3.7c0.2-1,1-1.6,2-1.6l4.9,0.2c1.1,0,2-0.8,2-1.9
		l0.1-3.6C192.7,173.4,191.9,172.5,190.8,172.5z M175.5,179.4c-0.2,1.3-0.5,2.5-0.9,3.8c-0.8,2.4-1.8,4.7-3.2,6.8
		c-0.7,1.1-1.4,2.1-2.3,3.1c-1.6,1.9-3.5,3.7-5.5,5.1c-1.1,0.7-2.2,1.4-3.3,2c-2.2,1.2-4.6,2-7.1,2.6c-1.2,0.3-2.5,0.5-3.8,0.6
		c-1.2,0.1-2.5,0.1-3.8,0.1s-2.5-0.2-3.8-0.4c-1.3-0.2-2.5-0.5-3.8-0.9c-2.4-0.8-4.7-1.8-6.8-3.2c-1.1-0.7-2.1-1.4-3.1-2.3
		c-1.9-1.6-3.7-3.5-5.1-5.5c-0.7-1.1-1.4-2.2-2-3.3c-1.2-2.2-2-4.6-2.6-7.1c-0.3-1.2-0.5-2.5-0.6-3.8c-0.1-1.2-0.1-2.5-0.1-3.8
		s0.2-2.5,0.4-3.8c0.2-1.3,0.5-2.6,0.9-3.8c0.8-2.4,1.8-4.7,3.2-6.8c0.7-1.1,1.4-2.1,2.3-3.1c1.6-1.9,3.5-3.7,5.5-5.1
		c1.1-0.7,2.2-1.4,3.3-2c2.2-1.2,4.6-2,7.1-2.6c1.2-0.3,2.5-0.5,3.8-0.6c1.2-0.1,2.5-0.1,3.8-0.1s2.5,0.2,3.8,0.4
		c1.3,0.2,2.5,0.5,3.8,0.9c2.4,0.8,4.7,1.8,6.8,3.2c1.1,0.7,2.1,1.4,3.1,2.3c1.9,1.6,3.7,3.5,5.1,5.5c0.7,1.1,1.4,2.2,2,3.3
		c1.2,2.2,2,4.6,2.6,7.1c0.3,1.2,0.5,2.5,0.6,3.8c0.1,1.2,0.1,2.5,0.1,3.8C175.9,176.9,175.8,178.2,175.5,179.4z"/>
	<path class="st2" d="M275.9,198.8H271c-1,0-1.8-0.7-1.9-1.7c-0.2-1.2-0.4-2.5-0.7-3.7c-0.2-0.9,0.3-1.9,1.2-2.3l4.5-1.9
		c1-0.4,1.5-1.6,1.1-2.6l-1.4-3.3c-0.4-1-1.6-1.5-2.6-1.1l-4.5,1.9c-0.9,0.4-1.9,0-2.4-0.8c-0.6-1.1-1.3-2.1-2.1-3.1
		c-0.6-0.8-0.5-1.9,0.2-2.6l3.4-3.4c0.8-0.8,0.8-2,0-2.8l-2.5-2.5c-0.8-0.8-2-0.8-2.8,0l-3.4,3.4c-0.7,0.7-1.8,0.8-2.6,0.2
		c-1-0.7-2-1.4-3.1-2.1c-0.8-0.5-1.2-1.5-0.8-2.4l1.9-4.5c0.4-1-0.1-2.2-1.1-2.6l-3.3-1.4c-1-0.4-2.2,0.1-2.6,1.1l-1.9,4.5
		c-0.4,0.9-1.4,1.4-2.3,1.2c-1.2-0.3-2.4-0.6-3.7-0.7c-1-0.1-1.7-1-1.7-1.9v-4.9c0-1.1-0.9-2-2-2h-3.6c-1.1,0-2,0.9-2,2v4.9
		c0,1-0.7,1.8-1.7,1.9c-1.2,0.2-2.5,0.4-3.7,0.7c-0.9,0.2-1.9-0.3-2.3-1.2l-1.9-4.5c-0.4-1-1.6-1.5-2.6-1.1l-3.3,1.4
		c-1,0.4-1.5,1.6-1.1,2.6l1.9,4.5c0.4,0.9,0,1.9-0.8,2.4c-1.1,0.6-2.1,1.3-3.1,2.1c-0.8,0.6-1.9,0.5-2.6-0.2l-3.4-3.4
		c-0.8-0.8-2-0.8-2.8,0l-2.5,2.5c-0.8,0.8-0.8,2,0,2.8l3.4,3.4c0.7,0.7,0.8,1.8,0.2,2.6c-0.7,1-1.4,2-2.1,3.1
		c-0.5,0.8-1.5,1.2-2.4,0.8l-4.5-1.9c-1-0.4-2.2,0.1-2.6,1.1l-1.4,3.3c-0.4,1,0.1,2.2,1.1,2.6l4.5,1.9c0.9,0.4,1.4,1.4,1.2,2.3
		c-0.3,1.2-0.6,2.4-0.7,3.7c-0.1,1-1,1.7-1.9,1.7h-4.9c-1.1,0-2,0.9-2,2v3.6c0,1.1,0.9,2,2,2h4.9c1,0,1.8,0.7,1.9,1.7
		c0.2,1.2,0.4,2.5,0.7,3.7c0.2,0.9-0.3,1.9-1.2,2.3l-4.5,1.9c-1,0.4-1.5,1.6-1.1,2.6l1.4,3.3c0.4,1,1.6,1.5,2.6,1.1l4.5-1.9
		c0.9-0.4,1.9,0,2.4,0.8c0.6,1.1,1.3,2.1,2.1,3.1c0.6,0.8,0.5,1.9-0.2,2.6l-3.4,3.4c-0.8,0.8-0.8,2,0,2.8l2.5,2.5
		c0.8,0.8,2,0.8,2.8,0l3.4-3.4c0.7-0.7,1.8-0.8,2.6-0.2c1,0.7,2,1.4,3.1,2.1c0.8,0.5,1.2,1.5,0.8,2.4l-1.9,4.5
		c-0.4,1,0.1,2.2,1.1,2.6l3.3,1.4c1,0.4,2.2-0.1,2.6-1.1l1.9-4.5c0.4-0.9,1.4-1.4,2.3-1.2c1.2,0.3,2.4,0.6,3.7,0.7
		c1,0.1,1.7,1,1.7,1.9v4.9c0,1.1,0.9,2,2,2h3.6c1.1,0,2-0.9,2-2v-4.9c0-1,0.7-1.8,1.7-1.9c1.2-0.2,2.5-0.4,3.7-0.7
		c0.9-0.2,1.9,0.3,2.3,1.2l1.9,4.5c0.4,1,1.6,1.5,2.6,1.1l3.3-1.4c1-0.4,1.5-1.6,1.1-2.6l-1.9-4.5c-0.4-0.9,0-1.9,0.8-2.4
		c1.1-0.6,2.1-1.4,3.1-2.1c0.8-0.6,1.9-0.5,2.6,0.2l3.4,3.4c0.8,0.8,2,0.8,2.8,0l2.5-2.5c0.8-0.8,0.8-2,0-2.8l-3.4-3.4
		c-0.7-0.7-0.8-1.8-0.2-2.6c0.7-1,1.4-2,2.1-3.1c0.5-0.8,1.5-1.2,2.4-0.8l4.5,1.9c1,0.4,2.2-0.1,2.6-1.1l1.4-3.3
		c0.4-1-0.1-2.2-1.1-2.6l-4.5-1.9c-0.9-0.4-1.4-1.4-1.2-2.3c0.3-1.2,0.6-2.4,0.7-3.7c0.1-1,1-1.7,1.9-1.7h4.9c1.1,0,2-0.9,2-2v-3.6
		C277.9,199.7,277,198.8,275.9,198.8z M260.9,206.4c-0.2,1.3-0.4,2.6-0.8,3.8c-0.7,2.5-1.6,4.8-2.9,7c-0.6,1.1-1.4,2.2-2.1,3.2
		c-1.5,2-3.3,3.8-5.3,5.3c-1,0.8-2.1,1.5-3.2,2.2c-2.2,1.2-4.5,2.2-7,2.9c-1.2,0.3-2.5,0.6-3.8,0.7c-1.2,0.2-2.5,0.2-3.8,0.2
		c-1.3,0-2.5-0.1-3.8-0.2c-1.3-0.2-2.6-0.4-3.8-0.8c-2.5-0.7-4.8-1.6-7-2.9c-1.1-0.6-2.2-1.4-3.2-2.1c-2-1.5-3.8-3.3-5.3-5.3
		c-0.8-1-1.5-2.1-2.2-3.2c-1.2-2.2-2.2-4.5-2.9-7c-0.3-1.2-0.6-2.5-0.7-3.8c-0.2-1.2-0.2-2.5-0.2-3.8c0-1.3,0.1-2.5,0.2-3.8
		c0.2-1.3,0.4-2.6,0.8-3.8c0.7-2.5,1.6-4.8,2.9-7c0.6-1.1,1.4-2.2,2.1-3.2c1.5-2,3.3-3.8,5.3-5.3c1-0.8,2.1-1.5,3.2-2.2
		c2.2-1.2,4.5-2.2,7-2.9c1.2-0.3,2.5-0.6,3.8-0.7c1.2-0.2,2.5-0.2,3.8-0.2c1.3,0,2.5,0.1,3.8,0.2c1.3,0.2,2.6,0.4,3.8,0.8
		c2.5,0.7,4.8,1.6,7,2.9c1.1,0.6,2.2,1.4,3.2,2.1c2,1.5,3.8,3.3,5.3,5.3c0.8,1,1.5,2.1,2.2,3.2c1.2,2.2,2.2,4.5,2.9,7
		c0.3,1.2,0.6,2.5,0.7,3.8c0.2,1.2,0.2,2.5,0.2,3.8C261.1,203.9,261.1,205.1,260.9,206.4z"/>
</g>
<g id="Layer_2">
	<text transform="matrix(1 0 0 1 572.2544 37.88)"><tspan x="0" y="0" class="st3 st11">Cloud foundation for security and observability deployable architecture</tspan><tspan x="165.6" y="14.4" class="st3 st11">Version 2</tspan></text>
</g>
<g id="Layer_5">
	<text transform="matrix(1 0 0 1 41.1096 37.88)"><tspan x="0" y="0" class="st3 st11">Cloud foundation for security and observability deployable architecture</tspan><tspan x="165.6" y="14.4" class="st3 st11">Version 1</tspan></text>
</g>
<g id="Layer_8">
</g>
</svg>
