<?xml version="1.0" encoding="utf-8"?>
<!-- Generator: Adobe Illustrator 27.0.1, SVG Export Plug-In . SVG Version: 6.00 Build 0)  -->
<svg version="1.1" xmlns="http://www.w3.org/2000/svg" xmlns:xlink="http://www.w3.org/1999/xlink" x="0px" y="0px"
	 viewBox="0 0 1056 329.4" style="enable-background:new 0 0 1056 329.4;" xml:space="preserve">
<style type="text/css">
	.st0{fill:#0043CE;}
	.st1{fill:#001D6C;}
	.st2{fill:#78A9FF;}
	.st3{font-family:'IBMPlexSans';}
	.st4{font-size:12px;}
	.st5{font-size:10px;}
	.st6{display:none;}
	.st7{display:inline;}
	.st8{clip-path:url(#XMLID_00000084498184674419895910000009643676403306507414_);fill:#001D6C;}
	.st9{fill:none;stroke:#000000;stroke-width:2;stroke-miterlimit:10;}
	.st10{fill:none;stroke:#000000;stroke-width:2;stroke-miterlimit:10;stroke-dasharray:12.6644,12.6644;}
	.st11{fill:none;stroke:#000000;stroke-width:2;stroke-miterlimit:10;stroke-dasharray:12.0371,12.0371;}
	.st12{fill:#FFFFFF;}
</style>
<g id="Layer_1">
	<path class="st0" d="M884.4,105.7l-4.9,0.1c-1,0-1.8-0.7-2-1.6c-0.2-1.2-0.5-2.5-0.8-3.6c-0.3-0.9,0.2-1.9,1.1-2.3l4.4-2
		c1-0.4,1.4-1.6,1-2.6l-1.5-3.3c-0.4-1-1.6-1.4-2.6-1l-4.4,2c-0.9,0.4-1.9,0.1-2.5-0.7c-0.7-1.1-1.4-2.1-2.2-3.1
		c-0.6-0.8-0.5-1.9,0.1-2.6l3.4-3.5c0.7-0.8,0.7-2-0.1-2.8l-2.6-2.5c-0.8-0.7-2-0.7-2.8,0.1l-3.4,3.5c-0.7,0.7-1.8,0.8-2.6,0.3
		c-1-0.7-2.1-1.4-3.2-2c-0.8-0.5-1.2-1.5-0.9-2.4l1.7-4.5c0.4-1-0.1-2.2-1.1-2.5l-3.3-1.3c-1-0.4-2.2,0.1-2.5,1.1l-1.7,4.5
		c-0.4,0.9-1.3,1.4-2.3,1.2c-1.2-0.3-2.5-0.5-3.7-0.6c-1-0.1-1.7-0.9-1.7-1.9l-0.1-4.9c0-1.1-0.9-1.9-2-1.9l-3.6,0.1
		c-1.1,0-1.9,0.9-1.9,2l0.1,4.9c0,1-0.7,1.8-1.6,2c-1.2,0.2-2.4,0.5-3.6,0.8c-0.9,0.3-1.9-0.2-2.3-1.1l-2-4.4c-0.4-1-1.6-1.4-2.6-1
		l-3.3,1.5c-1,0.4-1.4,1.6-1,2.6l2,4.5c0.4,0.9,0.1,1.9-0.7,2.5c-1.1,0.7-2.1,1.4-3.1,2.2c-0.8,0.6-1.9,0.5-2.6-0.1l-3.5-3.4
		c-0.8-0.7-2-0.7-2.8,0.1l-2.5,2.6c-0.7,0.8-0.7,2,0.1,2.8l3.5,3.4c0.7,0.7,0.8,1.8,0.3,2.6c-0.7,1-1.4,2.1-2,3.2
		c-0.5,0.8-1.5,1.2-2.4,0.9l-4.5-1.7c-1-0.4-2.2,0.1-2.5,1.1l-1.3,3.3c-0.4,1,0.1,2.2,1.1,2.5l4.5,1.7c0.9,0.4,1.4,1.3,1.2,2.3
		c-0.3,1.2-0.5,2.5-0.6,3.7c-0.1,1-0.9,1.7-1.9,1.7l-4.9,0.1c-1.1,0-1.9,0.9-1.9,2l0.1,3.6c0,1.1,0.9,1.9,2,1.9l4.9-0.1
		c1,0,1.8,0.7,2,1.6c0.2,1.2,0.5,2.4,0.8,3.6c0.3,0.9-0.2,1.9-1.1,2.3l-4.4,2c-1,0.4-1.4,1.6-1,2.6l1.5,3.3c0.4,1,1.6,1.4,2.6,1
		l4.5-2c0.9-0.4,1.9-0.1,2.5,0.7c0.7,1.1,1.4,2.1,2.2,3.1c0.6,0.8,0.5,1.9-0.1,2.6l-3.4,3.5c-0.7,0.8-0.7,2,0.1,2.8l2.6,2.5
		c0.8,0.7,2,0.7,2.8-0.1l3.4-3.5c0.7-0.7,1.8-0.8,2.6-0.3c1,0.7,2.1,1.4,3.2,2c0.8,0.5,1.2,1.5,0.9,2.4l-1.7,4.5
		c-0.4,1,0.1,2.2,1.1,2.5l3.3,1.3c1,0.4,2.2-0.1,2.5-1.1l1.7-4.5c0.4-0.9,1.3-1.4,2.3-1.2c1.2,0.3,2.5,0.5,3.7,0.6
		c1,0.1,1.7,0.9,1.7,1.9l0.1,4.9c0,1.1,0.9,1.9,2,1.9l3.6-0.1c1.1,0,1.9-0.9,1.9-2l-0.1-4.9c0-1,0.7-1.8,1.6-2
		c1.2-0.2,2.5-0.5,3.6-0.8c0.9-0.3,1.9,0.2,2.3,1.1l2,4.4c0.4,1,1.6,1.4,2.6,1l3.3-1.5c1-0.4,1.4-1.6,1-2.6l-2-4.5
		c-0.4-0.9-0.1-1.9,0.7-2.5c1.1-0.7,2.1-1.4,3.1-2.2c0.8-0.6,1.9-0.5,2.6,0.1l3.5,3.4c0.8,0.7,2,0.7,2.8-0.1l2.5-2.6
		c0.7-0.8,0.7-2-0.1-2.8l-3.5-3.4c-0.7-0.7-0.8-1.8-0.3-2.6c0.7-1,1.4-2.1,2-3.2c0.5-0.8,1.5-1.2,2.4-0.9l4.5,1.7
		c1,0.4,2.2-0.1,2.5-1.1l1.3-3.3c0.4-1-0.1-2.2-1.1-2.5l-4.5-1.7c-0.9-0.4-1.4-1.3-1.2-2.3c0.3-1.2,0.5-2.5,0.6-3.7
		c0.1-1,0.9-1.7,1.9-1.7l4.9-0.1c1.1,0,1.9-0.9,1.9-2l-0.1-3.6C886.4,106.5,885.5,105.7,884.4,105.7z M869.6,113.6
		c-0.1,1.3-0.4,2.6-0.7,3.8c-0.6,2.5-1.5,4.8-2.7,7c-0.6,1.1-1.3,2.2-2.1,3.2c-1.5,2-3.2,3.9-5.2,5.5c-1,0.8-2.1,1.6-3.2,2.2
		c-2.1,1.3-4.4,2.3-6.9,3.1c-1.2,0.4-2.5,0.6-3.8,0.8c-1.2,0.2-2.5,0.3-3.8,0.3c-1.3,0-2.5,0-3.8-0.1c-1.3-0.1-2.6-0.4-3.8-0.7
		c-2.5-0.6-4.8-1.5-7-2.7c-1.1-0.6-2.2-1.3-3.2-2.1c-2-1.5-3.9-3.2-5.5-5.2c-0.8-1-1.6-2.1-2.2-3.2c-1.3-2.1-2.3-4.4-3.1-6.9
		c-0.4-1.2-0.6-2.5-0.8-3.7c-0.2-1.2-0.3-2.5-0.3-3.8c0-1.3,0-2.5,0.1-3.8c0.1-1.3,0.4-2.6,0.7-3.8c0.6-2.5,1.5-4.8,2.7-7
		c0.6-1.1,1.3-2.2,2.1-3.2c1.5-2,3.2-3.9,5.2-5.5c1-0.8,2.1-1.6,3.2-2.2c2.1-1.3,4.4-2.3,6.9-3.1c1.2-0.4,2.5-0.6,3.8-0.8
		c1.2-0.2,2.5-0.3,3.8-0.3c1.3,0,2.5,0,3.8,0.1c1.3,0.1,2.6,0.4,3.8,0.7c2.5,0.6,4.8,1.5,7,2.7c1.1,0.6,2.2,1.3,3.2,2.1
		c2,1.5,3.9,3.2,5.5,5.2c0.8,1,1.6,2.1,2.2,3.2c1.3,2.1,2.3,4.4,3.1,6.9c0.4,1.2,0.6,2.5,0.8,3.8c0.2,1.2,0.3,2.5,0.3,3.8
		C869.8,111.1,869.7,112.4,869.6,113.6z"/>
	<path class="st1" d="M809.6,168.1l-4.9-0.2c-1,0-1.8-0.8-1.9-1.8c-0.1-1.2-0.3-2.5-0.6-3.7c-0.2-1,0.3-1.9,1.2-2.2l4.6-1.7
		c1-0.4,1.5-1.5,1.2-2.5l-1.2-3.4c-0.4-1-1.5-1.5-2.5-1.2l-4.6,1.7c-0.9,0.3-1.9,0-2.4-0.9c-0.6-1.1-1.3-2.2-2-3.2
		c-0.6-0.8-0.4-1.9,0.3-2.6l3.6-3.3c0.8-0.7,0.8-2,0.1-2.8l-2.4-2.6c-0.7-0.8-2-0.8-2.8-0.1l-3.6,3.3c-0.7,0.7-1.8,0.7-2.6,0.1
		c-1-0.8-2-1.5-3-2.2c-0.8-0.5-1.1-1.6-0.7-2.5l2-4.4c0.5-1,0-2.2-1-2.6l-3.3-1.5c-1-0.5-2.2,0-2.6,1l-2,4.4
		c-0.4,0.9-1.4,1.3-2.3,1.1c-1.2-0.4-2.4-0.6-3.7-0.9c-1-0.2-1.6-1-1.6-2l0.2-4.9c0-1.1-0.8-2-1.9-2l-3.6-0.1c-1.1,0-2,0.8-2,1.9
		l-0.2,4.9c0,1-0.8,1.8-1.8,1.9c-1.2,0.1-2.5,0.3-3.7,0.6c-1,0.2-1.9-0.3-2.2-1.2l-1.7-4.6c-0.4-1-1.5-1.5-2.5-1.2l-3.4,1.2
		c-1,0.4-1.5,1.5-1.2,2.5l1.7,4.6c0.3,0.9,0,1.9-0.9,2.4c-1.1,0.6-2.2,1.3-3.2,2c-0.8,0.6-1.9,0.4-2.6-0.3l-3.3-3.6
		c-0.7-0.8-2-0.8-2.8-0.1l-2.6,2.4c-0.8,0.7-0.8,2-0.1,2.8l3.3,3.6c0.7,0.7,0.7,1.8,0.1,2.6c-0.8,1-1.5,2-2.2,3
		c-0.5,0.8-1.6,1.1-2.5,0.7l-4.4-2c-1-0.5-2.2,0-2.6,1l-1.5,3.3c-0.5,1,0,2.2,1,2.6l4.4,2c0.9,0.4,1.3,1.4,1.1,2.3
		c-0.4,1.2-0.6,2.4-0.9,3.7c-0.2,1-1,1.6-2,1.6l-4.9-0.2c-1.1,0-2,0.8-2,1.9l-0.1,3.6c0,1.1,0.8,2,1.9,2l4.9,0.2
		c1,0,1.8,0.8,1.9,1.8c0.1,1.2,0.3,2.5,0.6,3.7c0.2,1-0.3,1.9-1.2,2.2l-4.6,1.7c-1,0.4-1.5,1.5-1.2,2.5l1.2,3.4
		c0.4,1,1.5,1.5,2.5,1.2l4.6-1.7c0.9-0.3,1.9,0,2.4,0.9c0.6,1.1,1.3,2.2,2,3.2c0.6,0.8,0.4,1.9-0.3,2.6l-3.6,3.3
		c-0.8,0.7-0.8,2-0.1,2.8l2.4,2.6c0.7,0.8,2,0.8,2.8,0.1l3.6-3.3c0.7-0.7,1.8-0.7,2.6-0.1c1,0.8,2,1.5,3,2.2
		c0.8,0.5,1.1,1.6,0.7,2.5l-2,4.4c-0.5,1,0,2.2,1,2.6l3.3,1.5c1,0.5,2.2,0,2.6-1l2-4.4c0.4-0.9,1.4-1.3,2.3-1.1
		c1.2,0.4,2.4,0.6,3.7,0.9c1,0.2,1.6,1,1.6,2l-0.2,4.9c0,1.1,0.8,2,1.9,2l3.6,0.1c1.1,0,2-0.8,2-1.9l0.2-4.9c0-1,0.8-1.8,1.8-1.9
		c1.2-0.1,2.5-0.3,3.7-0.6c1-0.2,1.9,0.3,2.2,1.2l1.7,4.6c0.4,1,1.5,1.5,2.5,1.2l3.4-1.2c1-0.4,1.5-1.5,1.2-2.5l-1.7-4.6
		c-0.3-0.9,0-1.9,0.9-2.4c1.1-0.6,2.2-1.3,3.2-2c0.8-0.6,1.9-0.4,2.6,0.3l3.3,3.6c0.7,0.8,2,0.8,2.8,0.1l2.6-2.4
		c0.8-0.7,0.8-2,0.1-2.8l-3.3-3.6c-0.7-0.7-0.7-1.8-0.1-2.6c0.8-1,1.5-2,2.2-3c0.5-0.8,1.6-1.1,2.5-0.7l4.4,2c1,0.5,2.2,0,2.6-1
		l1.5-3.3c0.5-1,0-2.2-1-2.6l-4.4-2c-0.9-0.4-1.3-1.4-1.1-2.3c0.4-1.2,0.6-2.4,0.9-3.7c0.2-1,1-1.6,2-1.6l4.9,0.2c1.1,0,2-0.8,2-1.9
		l0.1-3.6C811.5,169.1,810.7,168.2,809.6,168.1z M794.3,175.1c-0.2,1.3-0.5,2.5-0.9,3.8c-0.8,2.4-1.8,4.7-3.2,6.8
		c-0.7,1.1-1.4,2.1-2.3,3.1c-1.6,1.9-3.5,3.7-5.5,5.1c-1.1,0.7-2.2,1.4-3.3,2c-2.2,1.2-4.6,2-7.1,2.6c-1.2,0.3-2.5,0.5-3.8,0.6
		c-1.2,0.1-2.5,0.1-3.8,0.1s-2.5-0.2-3.8-0.4c-1.3-0.2-2.5-0.5-3.8-0.9c-2.4-0.8-4.7-1.8-6.8-3.2c-1.1-0.7-2.1-1.4-3.1-2.3
		c-1.9-1.6-3.7-3.5-5.1-5.5c-0.7-1.1-1.4-2.2-2-3.3c-1.2-2.2-2-4.6-2.6-7.1c-0.3-1.2-0.5-2.5-0.6-3.8c-0.1-1.2-0.1-2.5-0.1-3.8
		s0.2-2.5,0.4-3.8c0.2-1.3,0.5-2.6,0.9-3.8c0.8-2.4,1.8-4.7,3.2-6.8c0.7-1.1,1.4-2.1,2.3-3.1c1.6-1.9,3.5-3.7,5.5-5.1
		c1.1-0.7,2.2-1.4,3.3-2c2.2-1.2,4.6-2,7.1-2.6c1.2-0.3,2.5-0.5,3.8-0.6c1.2-0.1,2.5-0.1,3.8-0.1c1.3,0,2.5,0.2,3.8,0.4
		c1.3,0.2,2.5,0.5,3.8,0.9c2.4,0.8,4.7,1.8,6.8,3.2c1.1,0.7,2.1,1.4,3.1,2.3c1.9,1.6,3.7,3.5,5.1,5.5c0.7,1.1,1.4,2.2,2,3.3
		c1.2,2.2,2,4.6,2.6,7.1c0.3,1.2,0.5,2.5,0.6,3.8c0.1,1.2,0.1,2.5,0.1,3.8C794.7,172.6,794.5,173.9,794.3,175.1z"/>
	<path class="st2" d="M894.7,194.5h-4.9c-1,0-1.8-0.7-1.9-1.7c-0.2-1.2-0.4-2.5-0.7-3.7c-0.2-0.9,0.3-1.9,1.2-2.3l4.5-1.9
		c1-0.4,1.5-1.6,1.1-2.6l-1.4-3.3c-0.4-1-1.6-1.5-2.6-1.1l-4.5,1.9c-0.9,0.4-1.9,0-2.4-0.8c-0.6-1.1-1.3-2.1-2.1-3.1
		c-0.6-0.8-0.5-1.9,0.2-2.6l3.4-3.4c0.8-0.8,0.8-2,0-2.8l-2.5-2.5c-0.8-0.8-2-0.8-2.8,0l-3.4,3.4c-0.7,0.7-1.8,0.8-2.6,0.2
		c-1-0.7-2-1.4-3.1-2.1c-0.8-0.5-1.2-1.5-0.8-2.4l1.9-4.5c0.4-1-0.1-2.2-1.1-2.6l-3.3-1.4c-1-0.4-2.2,0.1-2.6,1.1l-1.9,4.5
		c-0.4,0.9-1.4,1.4-2.3,1.2c-1.2-0.3-2.4-0.6-3.7-0.7c-1-0.1-1.7-1-1.7-1.9v-4.9c0-1.1-0.9-2-2-2h-3.6c-1.1,0-2,0.9-2,2v4.9
		c0,1-0.7,1.8-1.7,1.9c-1.2,0.2-2.5,0.4-3.7,0.7c-0.9,0.2-1.9-0.3-2.3-1.2l-1.9-4.5c-0.4-1-1.6-1.5-2.6-1.1l-3.3,1.4
		c-1,0.4-1.5,1.6-1.1,2.6l1.9,4.5c0.4,0.9,0,1.9-0.8,2.4c-1.1,0.6-2.1,1.3-3.1,2.1c-0.8,0.6-1.9,0.5-2.6-0.2l-3.4-3.4
		c-0.8-0.8-2-0.8-2.8,0l-2.5,2.5c-0.8,0.8-0.8,2,0,2.8l3.4,3.4c0.7,0.7,0.8,1.8,0.2,2.6c-0.7,1-1.4,2-2.1,3.1
		c-0.5,0.8-1.5,1.2-2.4,0.8l-4.5-1.9c-1-0.4-2.2,0.1-2.6,1.1l-1.4,3.3c-0.4,1,0.1,2.2,1.1,2.6l4.5,1.9c0.9,0.4,1.4,1.4,1.2,2.3
		c-0.3,1.2-0.6,2.4-0.7,3.7c-0.1,1-1,1.7-1.9,1.7h-4.9c-1.1,0-2,0.9-2,2v3.6c0,1.1,0.9,2,2,2h4.9c1,0,1.8,0.7,1.9,1.7
		c0.2,1.2,0.4,2.5,0.7,3.7c0.2,0.9-0.3,1.9-1.2,2.3l-4.5,1.9c-1,0.4-1.5,1.6-1.1,2.6l1.4,3.3c0.4,1,1.6,1.5,2.6,1.1l4.5-1.9
		c0.9-0.4,1.9,0,2.4,0.8c0.6,1.1,1.3,2.1,2.1,3.1c0.6,0.8,0.5,1.9-0.2,2.6l-3.4,3.4c-0.8,0.8-0.8,2,0,2.8l2.5,2.5
		c0.8,0.8,2,0.8,2.8,0l3.4-3.4c0.7-0.7,1.8-0.8,2.6-0.2c1,0.7,2,1.4,3.1,2.1c0.8,0.5,1.2,1.5,0.8,2.4l-1.9,4.5
		c-0.4,1,0.1,2.2,1.1,2.6l3.3,1.4c1,0.4,2.2-0.1,2.6-1.1l1.9-4.5c0.4-0.9,1.4-1.4,2.3-1.2c1.2,0.3,2.4,0.6,3.7,0.7
		c1,0.1,1.7,1,1.7,1.9v4.9c0,1.1,0.9,2,2,2h3.6c1.1,0,2-0.9,2-2v-4.9c0-1,0.7-1.8,1.7-1.9c1.2-0.2,2.5-0.4,3.7-0.7
		c0.9-0.2,1.9,0.3,2.3,1.2l1.9,4.5c0.4,1,1.6,1.5,2.6,1.1l3.3-1.4c1-0.4,1.5-1.6,1.1-2.6l-1.9-4.5c-0.4-0.9,0-1.9,0.8-2.4
		c1.1-0.6,2.1-1.4,3.1-2.1c0.8-0.6,1.9-0.5,2.6,0.2l3.4,3.4c0.8,0.8,2,0.8,2.8,0l2.5-2.5c0.8-0.8,0.8-2,0-2.8l-3.4-3.4
		c-0.7-0.7-0.8-1.8-0.2-2.6c0.7-1,1.4-2,2.1-3.1c0.5-0.8,1.5-1.2,2.4-0.8l4.5,1.9c1,0.4,2.2-0.1,2.6-1.1l1.4-3.3
		c0.4-1-0.1-2.2-1.1-2.6l-4.5-1.9c-0.9-0.4-1.4-1.4-1.2-2.3c0.3-1.2,0.6-2.4,0.7-3.7c0.1-1,1-1.7,1.9-1.7h4.9c1.1,0,2-0.9,2-2v-3.6
		C896.6,195.4,895.8,194.5,894.7,194.5z M879.7,202c-0.2,1.3-0.4,2.6-0.8,3.8c-0.7,2.5-1.6,4.8-2.9,7c-0.6,1.1-1.4,2.2-2.1,3.2
		c-1.5,2-3.3,3.8-5.3,5.3c-1,0.8-2.1,1.5-3.2,2.2c-2.2,1.2-4.5,2.2-7,2.9c-1.2,0.3-2.5,0.6-3.8,0.7c-1.2,0.2-2.5,0.2-3.8,0.2
		s-2.5-0.1-3.8-0.2c-1.3-0.2-2.6-0.4-3.8-0.8c-2.5-0.7-4.8-1.6-7-2.9c-1.1-0.6-2.2-1.4-3.2-2.1c-2-1.5-3.8-3.3-5.3-5.3
		c-0.8-1-1.5-2.1-2.2-3.2c-1.2-2.2-2.2-4.5-2.9-7c-0.3-1.2-0.6-2.5-0.7-3.8c-0.2-1.2-0.2-2.5-0.2-3.8c0-1.3,0.1-2.5,0.2-3.8
		c0.2-1.3,0.4-2.6,0.8-3.8c0.7-2.5,1.6-4.8,2.9-7c0.6-1.1,1.4-2.2,2.1-3.2c1.5-2,3.3-3.8,5.3-5.3c1-0.8,2.1-1.5,3.2-2.2
		c2.2-1.2,4.5-2.2,7-2.9c1.2-0.3,2.5-0.6,3.8-0.7c1.2-0.2,2.5-0.2,3.8-0.2s2.5,0.1,3.8,0.2c1.3,0.2,2.6,0.4,3.8,0.8
		c2.5,0.7,4.8,1.6,7,2.9c1.1,0.6,2.2,1.4,3.2,2.1c2,1.5,3.8,3.3,5.3,5.3c0.8,1,1.5,2.1,2.2,3.2c1.2,2.2,2.2,4.5,2.9,7
		c0.3,1.2,0.6,2.5,0.7,3.8c0.2,1.2,0.2,2.5,0.2,3.8C879.9,199.5,879.8,200.8,879.7,202z"/>
</g>
<g id="Layer_7">
</g>
<g id="Layer_2">
	<text transform="matrix(1 0 0 1 663.7183 34.1252)" class="st3 st4">IBM Cloud Essential Security and Observability Services</text>
</g>
<g id="Layer_3">
	<text transform="matrix(1 0 0 1 266.3943 124.3892)" class="st3 st4">Cloud automation for Secrets Manager </text>
</g>
<g id="Layer_15">
	<text transform="matrix(1 0 0 1 302.1216 139.6461)" class="st3 st4">deployable architecture </text>
</g>
<g id="Layer_16">
	<text transform="matrix(1 0 0 1 745.062 49.5215)" class="st3 st4">deployable architecture</text>
</g>
<g id="Layer_11">
	<text transform="matrix(1 0 0 1 277.0942 291.0421)" class="st3 st5">Combine modules to create a deployable architecture</text>
</g>
<g id="Layer_8">
	<text transform="matrix(1 0 0 1 663.9773 262.4445)" class="st3 st5">Stack deployable architectures to create an end-to-end solution</text>
</g>
<g id="Layer_9">
</g>
<g id="Layer_5">
</g>
<g id="Layer_12" class="st6">
	<g class="st7">
		<defs>
			<circle id="XMLID_00000122701059664120572750000008383647981579274669_" cx="105" cy="179.1" r="76"/>
		</defs>
		<use xlink:href="#XMLID_00000122701059664120572750000008383647981579274669_"  style="overflow:visible;fill:#FFFFFF;"/>
		<clipPath id="XMLID_00000160168809998565630100000000152539700939581884_">
			<use xlink:href="#XMLID_00000122701059664120572750000008383647981579274669_"  style="overflow:visible;"/>
		</clipPath>
		<path style="clip-path:url(#XMLID_00000160168809998565630100000000152539700939581884_);fill:#001D6C;" d="M403.6,58l-20-0.8
			c-4-0.2-7.3-3.2-7.7-7.2c-0.5-5.1-1.3-10.2-2.4-15.2c-0.8-3.9,1.4-7.9,5.1-9.3l18.8-6.9c4.2-1.6,6.4-6.2,4.8-10.4L397-5.6
			c-1.6-4.2-6.2-6.4-10.4-4.8l-18.8,6.9c-3.8,1.4-8-0.2-9.9-3.7c-2.5-4.6-5.2-9-8.1-13.2c-2.3-3.3-1.8-7.8,1.2-10.5l14.7-13.6
			c3.3-3,3.5-8.2,0.4-11.5l-10-10.8c-3-3.3-8.2-3.5-11.5-0.4l-14.7,13.6c-2.9,2.7-7.5,2.9-10.6,0.4c-4-3.2-8.1-6.2-12.4-9
			c-3.4-2.2-4.6-6.5-2.9-10.2l8.4-18.2c1.9-4.1,0.1-8.9-4-10.8l-13.4-6.2c-4.1-1.9-8.9-0.1-10.8,4l-8.4,18.2
			c-1.7,3.6-5.8,5.5-9.6,4.4c-4.9-1.4-10-2.7-15.1-3.6c-3.9-0.7-6.8-4.3-6.6-8.3l0.8-20c0.2-4.5-3.3-8.2-7.8-8.4l-14.8-0.6
			c-4.5-0.2-8.2,3.3-8.4,7.8l-0.8,20c-0.2,4-3.2,7.3-7.2,7.7c-5.1,0.5-10.2,1.3-15.2,2.4c-3.9,0.8-7.9-1.4-9.3-5.1l-6.9-18.8
			c-1.6-4.2-6.2-6.4-10.4-4.8l-13.9,5.1c-4.2,1.6-6.4,6.2-4.8,10.4l6.9,18.8c1.4,3.8-0.2,8-3.7,9.9c-4.6,2.5-9,5.2-13.2,8.1
			c-3.3,2.3-7.8,1.8-10.5-1.2l-13.6-14.7c-3-3.3-8.2-3.5-11.5-0.4l-10.8,10c-3.3,3-3.5,8.2-0.4,11.5l13.6,14.7
			c2.7,2.9,2.9,7.5,0.4,10.6c-3.2,4-6.2,8.1-9,12.4c-2.2,3.4-6.5,4.6-10.2,2.9L65.6-23c-4.1-1.9-8.9-0.1-10.8,4L48.7-5.6
			c-1.9,4.1-0.1,8.9,4,10.8l18.2,8.4c3.6,1.7,5.5,5.8,4.4,9.6c-1.4,4.9-2.7,10-3.6,15.1c-0.7,3.9-4.3,6.8-8.3,6.6l-20-0.8
			c-4.5-0.2-8.2,3.3-8.4,7.8l-0.6,14.8c-0.2,4.5,3.3,8.2,7.8,8.4l20,0.8c4,0.2,7.3,3.2,7.7,7.2c0.5,5.1,1.3,10.2,2.4,15.2
			c0.8,3.9-1.4,7.9-5.1,9.3l-18.8,6.9c-4.2,1.6-6.4,6.2-4.8,10.4l5.1,13.9c1.6,4.2,6.2,6.4,10.4,4.8l18.8-6.9c3.8-1.4,8,0.2,9.9,3.7
			c2.5,4.6,5.2,9,8.1,13.2c2.3,3.3,1.8,7.8-1.2,10.5L80,177.7c-3.3,3-3.5,8.2-0.4,11.5l10,10.8c3,3.3,8.2,3.5,11.5,0.4l14.7-13.6
			c2.9-2.7,7.5-2.9,10.6-0.4c4,3.2,8.1,6.2,12.4,9c3.4,2.2,4.6,6.5,2.9,10.2l-8.4,18.2c-1.9,4.1-0.1,8.9,4,10.8l13.4,6.2
			c4.1,1.9,8.9,0.1,10.8-4l8.4-18.2c1.7-3.6,5.8-5.5,9.6-4.4c4.9,1.4,10,2.7,15.1,3.6c3.9,0.7,6.8,4.3,6.6,8.3l-0.8,20
			c-0.2,4.5,3.3,8.2,7.8,8.4l14.8,0.6c4.5,0.2,8.2-3.3,8.4-7.8l0.8-20c0.2-4,3.2-7.3,7.2-7.7c5.1-0.5,10.2-1.3,15.2-2.4
			c3.9-0.8,7.9,1.4,9.3,5.1l6.9,18.8c1.6,4.2,6.2,6.4,10.4,4.8l13.9-5.1c4.2-1.6,6.4-6.2,4.8-10.4l-6.9-18.8c-1.4-3.8,0.2-8,3.7-9.9
			c4.6-2.5,9-5.2,13.3-8.1c3.3-2.3,7.8-1.8,10.5,1.2l13.6,14.7c3,3.3,8.2,3.5,11.5,0.4l10.8-10c3.3-3,3.5-8.2,0.4-11.5L343,173.6
			c-2.7-2.9-2.9-7.5-0.4-10.6c3.2-4,6.2-8.1,9-12.4c2.2-3.4,6.5-4.6,10.2-2.9l18.2,8.4c4.1,1.9,8.9,0.1,10.8-4l6.2-13.4
			c1.9-4.1,0.1-8.9-4-10.8l-18.2-8.4c-3.6-1.7-5.5-5.8-4.4-9.6c1.4-4.9,2.7-10,3.6-15.1c0.7-3.9,4.3-6.8,8.3-6.6l20,0.8
			c4.5,0.2,8.2-3.3,8.4-7.8l0.6-14.8C411.5,62,408,58.2,403.6,58z M340.7,86.6c-0.9,5.3-2.1,10.5-3.7,15.5c-3.1,10-7.5,19.5-13,28.1
			c-2.8,4.5-5.9,8.7-9.3,12.8c-6.6,8-14.3,15-22.7,21.1c-4.3,3.1-8.9,5.9-13.6,8.4c-9.1,4.8-18.8,8.4-29.1,10.7
			c-5.1,1.2-10.3,2-15.6,2.5c-5.1,0.5-10.3,0.6-15.5,0.4c-5.2-0.2-10.4-0.7-15.4-1.6c-5.3-0.9-10.5-2.1-15.5-3.7
			c-10-3.1-19.5-7.5-28.1-13c-4.5-2.8-8.7-5.9-12.8-9.3c-8-6.6-15-14.3-21-22.7c-3.1-4.3-5.9-8.9-8.4-13.6
			c-4.8-9.1-8.4-18.8-10.7-29.1c-1.2-5.1-2-10.3-2.5-15.6c-0.5-5.1-0.6-10.3-0.4-15.5s0.7-10.4,1.6-15.4c0.9-5.3,2.1-10.5,3.7-15.5
			c3.1-10,7.5-19.5,13-28.1c2.8-4.5,5.9-8.7,9.3-12.8c6.6-8,14.3-15,22.7-21c4.3-3.1,8.9-5.9,13.6-8.4c9.1-4.8,18.8-8.4,29.1-10.7
			c5.1-1.2,10.3-2,15.6-2.5c5.1-0.5,10.3-0.6,15.5-0.4c5.2,0.2,10.4,0.7,15.4,1.6c5.3,0.9,10.5,2.1,15.5,3.7
			c10,3.1,19.5,7.5,28.1,13c4.5,2.8,8.7,5.9,12.8,9.3c8,6.6,15,14.3,21,22.7c3.1,4.3,5.9,8.9,8.4,13.6c4.8,9.1,8.4,18.8,10.7,29.1
			c1.2,5.1,2,10.3,2.5,15.6c0.5,5.1,0.6,10.3,0.4,15.5S341.6,81.6,340.7,86.6z"/>
		
			<use xlink:href="#XMLID_00000122701059664120572750000008383647981579274669_"  style="overflow:visible;fill:none;stroke:#000000;stroke-width:2;stroke-miterlimit:10;"/>
	</g>
	<g class="st7">
		<g>
			<line class="st9" x1="166.9" y1="135.1" x2="172.7" y2="136.8"/>
			<line class="st10" x1="184.8" y1="140.5" x2="372.8" y2="197"/>
			<line class="st9" x1="378.8" y1="198.8" x2="384.6" y2="200.6"/>
		</g>
	</g>
	<g class="st7">
		<g>
			<line class="st9" x1="146.9" y1="242.5" x2="152.9" y2="241.9"/>
			<line class="st11" x1="164.8" y1="240.6" x2="374.3" y2="218.6"/>
			<line class="st9" x1="380.3" y1="217.9" x2="386.3" y2="217.3"/>
		</g>
	</g>
</g>
<g id="Layer_6">
	<path class="st1" d="M434,207.1l-6-0.2c-1.2,0-2.2-1-2.3-2.2c-0.2-1.5-0.4-3.1-0.7-4.6c-0.2-1.2,0.4-2.4,1.5-2.8l5.7-2.1
		c1.3-0.5,1.9-1.9,1.4-3.1l-1.5-4.2c-0.5-1.3-1.9-1.9-3.1-1.4l-5.7,2.1c-1.1,0.4-2.4-0.1-3-1.1c-0.8-1.4-1.6-2.7-2.5-4
		c-0.7-1-0.5-2.3,0.4-3.2l4.4-4.1c1-0.9,1.1-2.5,0.1-3.5l-3-3.3c-0.9-1-2.5-1.1-3.5-0.1l-4.4,4.1c-0.9,0.8-2.2,0.9-3.2,0.1
		c-1.2-1-2.4-1.9-3.7-2.7c-1-0.7-1.4-2-0.9-3.1l2.5-5.5c0.6-1.2,0-2.7-1.2-3.2l-4-1.9c-1.2-0.6-2.7,0-3.2,1.2l-2.5,5.5
		c-0.5,1.1-1.7,1.7-2.9,1.3c-1.5-0.4-3-0.8-4.6-1.1c-1.2-0.2-2-1.3-2-2.5l0.2-6c0.1-1.3-1-2.5-2.3-2.5l-4.4-0.2
		c-1.3-0.1-2.5,1-2.5,2.3l-0.2,6c0,1.2-1,2.2-2.2,2.3c-1.5,0.2-3.1,0.4-4.6,0.7c-1.2,0.2-2.4-0.4-2.8-1.5L365,157
		c-0.5-1.3-1.9-1.9-3.1-1.4l-4.2,1.5c-1.3,0.5-1.9,1.9-1.4,3.1l2.1,5.7c0.4,1.1-0.1,2.4-1.1,3c-1.4,0.8-2.7,1.6-4,2.5
		c-1,0.7-2.3,0.5-3.2-0.4l-4.1-4.4c-0.9-1-2.5-1.1-3.5-0.1l-3.3,3c-1,0.9-1.1,2.5-0.1,3.5l4.1,4.4c0.8,0.9,0.9,2.2,0.1,3.2
		c-1,1.2-1.9,2.4-2.7,3.7c-0.7,1-2,1.4-3.1,0.9l-5.5-2.5c-1.2-0.6-2.7,0-3.2,1.2l-1.9,4c-0.6,1.2,0,2.7,1.2,3.2l5.5,2.5
		c1.1,0.5,1.7,1.7,1.3,2.9c-0.4,1.5-0.8,3-1.1,4.6c-0.2,1.2-1.3,2-2.5,2l-6-0.2c-1.3-0.1-2.5,1-2.5,2.3l-0.2,4.4
		c-0.1,1.3,1,2.5,2.3,2.5l6,0.2c1.2,0,2.2,1,2.3,2.2c0.2,1.5,0.4,3.1,0.7,4.6c0.2,1.2-0.4,2.4-1.5,2.8l-5.7,2.1
		c-1.3,0.5-1.9,1.9-1.4,3.1l1.5,4.2c0.5,1.3,1.9,1.9,3.1,1.4l5.7-2.1c1.1-0.4,2.4,0.1,3,1.1c0.8,1.4,1.6,2.7,2.5,4
		c0.7,1,0.5,2.3-0.4,3.2l-4.4,4.1c-1,0.9-1.1,2.5-0.1,3.5l3,3.3c0.9,1,2.5,1.1,3.5,0.1l4.4-4.1c0.9-0.8,2.2-0.9,3.2-0.1
		c1.2,1,2.4,1.9,3.7,2.7c1,0.7,1.4,2,0.9,3.1l-2.5,5.5c-0.6,1.2,0,2.7,1.2,3.2l4,1.9c1.2,0.6,2.7,0,3.2-1.2l2.5-5.5
		c0.5-1.1,1.7-1.7,2.9-1.3c1.5,0.4,3,0.8,4.6,1.1c1.2,0.2,2,1.3,2,2.5l-0.2,6c-0.1,1.3,1,2.5,2.3,2.5l4.4,0.2c1.3,0.1,2.5-1,2.5-2.3
		l0.2-6c0-1.2,1-2.2,2.2-2.3c1.5-0.2,3.1-0.4,4.6-0.7c1.2-0.2,2.4,0.4,2.8,1.5l2.1,5.7c0.5,1.3,1.9,1.9,3.1,1.4l4.2-1.5
		c1.3-0.5,1.9-1.9,1.4-3.1l-2.1-5.7c-0.4-1.1,0.1-2.4,1.1-3c1.4-0.8,2.7-1.6,4-2.5c1-0.7,2.3-0.5,3.2,0.4l4.1,4.4
		c0.9,1,2.5,1.1,3.5,0.1l3.3-3c1-0.9,1.1-2.5,0.1-3.5l-4.1-4.4c-0.8-0.9-0.9-2.2-0.1-3.2c1-1.2,1.9-2.4,2.7-3.7c0.7-1,2-1.4,3.1-0.9
		l5.5,2.5c1.2,0.6,2.7,0,3.2-1.2l1.9-4c0.6-1.2,0-2.7-1.2-3.2l-5.5-2.5c-1.1-0.5-1.7-1.7-1.3-2.9c0.4-1.5,0.8-3,1.1-4.6
		c0.2-1.2,1.3-2,2.5-2l6,0.2c1.3,0.1,2.5-1,2.5-2.3l0.2-4.4C436.4,208.3,435.3,207.1,434,207.1z M415,215.7
		c-0.3,1.6-0.6,3.2-1.1,4.7c-0.9,3-2.3,5.9-3.9,8.5c-0.9,1.3-1.8,2.6-2.8,3.9c-2,2.4-4.3,4.5-6.9,6.3c-1.3,0.9-2.7,1.8-4.1,2.5
		c-2.7,1.4-5.7,2.5-8.8,3.2c-1.5,0.3-3.1,0.6-4.7,0.7c-1.5,0.1-3.1,0.2-4.7,0.1s-3.1-0.2-4.7-0.5c-1.6-0.3-3.2-0.6-4.7-1.1
		c-3-0.9-5.9-2.3-8.5-3.9c-1.3-0.8-2.6-1.8-3.9-2.8c-2.4-2-4.5-4.3-6.3-6.9c-0.9-1.3-1.8-2.7-2.5-4.1c-1.4-2.7-2.5-5.7-3.2-8.8
		c-0.3-1.5-0.6-3.1-0.7-4.7c-0.1-1.5-0.2-3.1-0.1-4.7c0.1-1.6,0.2-3.1,0.5-4.7c0.3-1.6,0.6-3.2,1.1-4.7c0.9-3,2.3-5.9,3.9-8.5
		c0.8-1.3,1.8-2.6,2.8-3.9c2-2.4,4.3-4.5,6.9-6.3c1.3-0.9,2.7-1.8,4.1-2.5c2.7-1.4,5.7-2.5,8.8-3.2c1.5-0.3,3.1-0.6,4.7-0.7
		c1.5-0.1,3.1-0.2,4.7-0.1c1.6,0.1,3.1,0.2,4.7,0.5c1.6,0.3,3.2,0.6,4.7,1.1c3,0.9,5.9,2.3,8.5,3.9c1.3,0.8,2.6,1.8,3.9,2.8
		c2.4,2,4.5,4.3,6.3,6.9c0.9,1.3,1.8,2.7,2.5,4.1c1.4,2.7,2.5,5.7,3.2,8.8c0.3,1.5,0.6,3.1,0.7,4.7c0.1,1.5,0.2,3.1,0.1,4.7
		C415.4,212.6,415.3,214.2,415,215.7z"/>
</g>
<g id="Layer_13">
	<path class="st1" d="M170.3,240.4h-6c-1.2,0-2.2-0.9-2.4-2.1c-0.2-1.5-0.5-3.1-0.9-4.5c-0.3-1.2,0.3-2.4,1.4-2.8l5.6-2.3
		c1.2-0.5,1.8-1.9,1.3-3.2l-1.7-4.1c-0.5-1.2-1.9-1.8-3.2-1.3l-5.6,2.3c-1.1,0.5-2.4,0-3-1c-0.8-1.3-1.7-2.6-2.6-3.9
		c-0.7-1-0.6-2.3,0.2-3.2l4.3-4.3c1-1,1-2.5,0-3.5l-3.1-3.1c-1-1-2.5-1-3.5,0l-4.3,4.3c-0.9,0.9-2.2,1-3.2,0.2
		c-1.2-0.9-2.5-1.8-3.8-2.6c-1-0.6-1.5-1.9-1-3l2.3-5.6c0.5-1.2-0.1-2.7-1.3-3.2l-4.1-1.7c-1.2-0.5-2.7,0.1-3.2,1.3l-2.3,5.6
		c-0.5,1.1-1.7,1.7-2.8,1.4c-1.5-0.4-3-0.7-4.6-0.9c-1.2-0.2-2.1-1.2-2.1-2.4v-6c0-1.3-1.1-2.4-2.4-2.4h-4.5c-1.3,0-2.4,1.1-2.4,2.4
		v6c0,1.2-0.9,2.2-2.1,2.4c-1.5,0.2-3.1,0.5-4.5,0.9c-1.2,0.3-2.4-0.3-2.8-1.4l-2.3-5.6c-0.5-1.2-1.9-1.8-3.2-1.3l-4.1,1.7
		c-1.2,0.5-1.8,1.9-1.3,3.2l2.3,5.6c0.5,1.1,0,2.4-1,3c-1.3,0.8-2.6,1.7-3.9,2.6c-1,0.7-2.3,0.6-3.2-0.2l-4.3-4.3c-1-1-2.5-1-3.5,0
		l-3.1,3.1c-1,1-1,2.5,0,3.5l4.3,4.3c0.9,0.9,1,2.2,0.2,3.2c-0.9,1.2-1.8,2.5-2.6,3.8c-0.6,1-1.9,1.5-3,1l-5.6-2.3
		c-1.2-0.5-2.7,0.1-3.2,1.3l-1.7,4.1c-0.5,1.2,0.1,2.7,1.3,3.2l5.6,2.3c1.1,0.5,1.7,1.7,1.4,2.8c-0.4,1.5-0.7,3-0.9,4.6
		c-0.2,1.2-1.2,2.1-2.4,2.1h-6c-1.3,0-2.4,1.1-2.4,2.4v4.5c0,1.3,1.1,2.4,2.4,2.4h6c1.2,0,2.2,0.9,2.4,2.1c0.2,1.5,0.5,3.1,0.9,4.5
		c0.3,1.2-0.3,2.4-1.4,2.8l-5.6,2.3c-1.2,0.5-1.8,1.9-1.3,3.2l1.7,4.1c0.5,1.2,1.9,1.8,3.2,1.3l5.6-2.3c1.1-0.5,2.4,0,3,1
		c0.8,1.3,1.7,2.6,2.6,3.9c0.7,1,0.6,2.3-0.2,3.2l-4.3,4.3c-1,1-1,2.5,0,3.5l3.1,3.1c1,1,2.5,1,3.5,0l4.3-4.3c0.9-0.9,2.2-1,3.2-0.2
		c1.2,0.9,2.5,1.8,3.8,2.6c1,0.6,1.5,1.9,1,3l-2.3,5.6c-0.5,1.2,0.1,2.7,1.3,3.2l4.1,1.7c1.2,0.5,2.7-0.1,3.2-1.3l2.3-5.6
		c0.5-1.1,1.7-1.7,2.8-1.4c1.5,0.4,3,0.7,4.6,0.9c1.2,0.2,2.1,1.2,2.1,2.4v6c0,1.3,1.1,2.4,2.4,2.4h4.5c1.3,0,2.4-1.1,2.4-2.4v-6
		c0-1.2,0.9-2.2,2.1-2.4c1.5-0.2,3.1-0.5,4.5-0.9c1.2-0.3,2.4,0.3,2.8,1.4l2.3,5.6c0.5,1.2,1.9,1.8,3.2,1.3l4.1-1.7
		c1.2-0.5,1.8-1.9,1.3-3.2l-2.3-5.6c-0.5-1.1,0-2.4,1-3c1.3-0.8,2.6-1.7,3.9-2.6c1-0.7,2.3-0.6,3.2,0.2l4.3,4.3c1,1,2.5,1,3.5,0
		l3.1-3.1c1-1,1-2.5,0-3.5l-4.3-4.3c-0.9-0.9-1-2.2-0.2-3.2c0.9-1.2,1.8-2.5,2.6-3.8c0.6-1,1.9-1.5,3-1l5.6,2.3
		c1.2,0.5,2.7-0.1,3.2-1.3l1.7-4.1c0.5-1.2-0.1-2.7-1.3-3.2l-5.6-2.3c-1.1-0.5-1.7-1.7-1.4-2.8c0.4-1.5,0.7-3,0.9-4.6
		c0.2-1.2,1.2-2.1,2.4-2.1h6c1.3,0,2.4-1.1,2.4-2.4v-4.5C172.8,241.4,171.7,240.4,170.3,240.4z M151.8,249.7
		c-0.2,1.6-0.5,3.2-0.9,4.7c-0.8,3.1-2,5.9-3.6,8.6c-0.8,1.4-1.7,2.7-2.7,4c-1.9,2.5-4.1,4.7-6.6,6.6c-1.3,1-2.6,1.9-4,2.7
		c-2.7,1.5-5.6,2.8-8.6,3.6c-1.5,0.4-3.1,0.7-4.7,0.9c-1.5,0.2-3.1,0.3-4.7,0.3s-3.1-0.1-4.7-0.3c-1.6-0.2-3.2-0.5-4.7-0.9
		c-3.1-0.8-5.9-2-8.6-3.6c-1.4-0.8-2.7-1.7-4-2.7c-2.5-1.9-4.7-4.1-6.6-6.6c-1-1.3-1.9-2.6-2.7-4c-1.5-2.7-2.8-5.6-3.6-8.6
		c-0.4-1.5-0.7-3.1-0.9-4.7c-0.2-1.5-0.3-3.1-0.3-4.7c0-1.6,0.1-3.1,0.3-4.7c0.2-1.6,0.5-3.2,0.9-4.7c0.8-3.1,2-5.9,3.6-8.6
		c0.8-1.4,1.7-2.7,2.7-4c1.9-2.5,4.1-4.7,6.6-6.6c1.3-1,2.6-1.9,4-2.7c2.7-1.5,5.6-2.8,8.6-3.6c1.5-0.4,3.1-0.7,4.7-0.9
		c1.5-0.2,3.1-0.3,4.7-0.3s3.1,0.1,4.7,0.3c1.6,0.2,3.2,0.5,4.7,0.9c3.1,0.8,5.9,2,8.6,3.6c1.4,0.8,2.7,1.7,4,2.7
		c2.5,1.9,4.7,4.1,6.6,6.6c1,1.3,1.9,2.6,2.7,4c1.5,2.7,2.8,5.6,3.6,8.6c0.4,1.5,0.7,3.1,0.9,4.7c0.2,1.5,0.3,3.1,0.3,4.7
		C152.1,246.6,152,248.2,151.8,249.7z"/>
</g>
<g id="Layer_14">
	<rect x="127.7" y="182.7" class="st12" width="72.9" height="126.6"/>
	
		<rect x="69.7" y="217.7" transform="matrix(6.123234e-17 -1 1 6.123234e-17 -183.3796 378.4978)" class="st12" width="55.7" height="126.6"/>
	<rect x="317.2" y="149.5" class="st12" width="72.9" height="69.9"/>
</g>
<g id="Layer_4">
	<text transform="matrix(1 0 0 1 34.2766 161.4889)" class="st3 st4">Secrets Manager module </text>
</g>
<g id="Layer_10">
	<g>
		<g>
			<line class="st9" x1="451.8" y1="190.9" x2="692.1" y2="156.1"/>
			<g>
				<polygon points="688.7,144.3 692.2,168.4 702.5,154.6 				"/>
			</g>
		</g>
	</g>
	<g>
		<g>
			<line class="st9" x1="127.7" y1="238.3" x2="306.8" y2="211.3"/>
			<g>
				<polygon points="303.4,199.6 307,223.6 317.2,209.8 				"/>
			</g>
		</g>
	</g>
</g>
</svg>
