<?xml version="1.0" encoding="UTF-8"?><svg xmlns="http://www.w3.org/2000/svg" width="779.5356" height="588.9824" viewBox="0 0 779.5356 588.9824"><defs><style>.cls-1{fill:#d2e1f3;}.cls-2{fill:#242b66;}.cls-3{fill:#4167b1;}.cls-4{fill:#273b91;}.cls-5{fill:#82a4d6;}.cls-6{font-size:21px;}.cls-6,.cls-7,.cls-8{font-family:IBMPlexSans-Medm, 'IBM Plex Sans';}.cls-6,.cls-8{fill:#231f20;}.cls-7{fill:#fff;}.cls-7,.cls-8{font-size:18px;}</style></defs><g id="Layer_7"><ellipse class="cls-4" cx="578.7179" cy="351.2491" rx="34.8801" ry="28.0439"/><rect class="cls-4" x="389.7678" y="276.3053" width="163.4156" height="141.0192"/><rect class="cls-4" x="387.8767" y="334.9476" width="52.0227" height="135.707"/><rect class="cls-4" x="490.5428" y="412.0706" width="66.005" height="58.584"/><rect class="cls-4" x="461.2508" y="355.2877" width="58.584" height="62.0368"/></g><g id="Layer_3"><rect class="cls-5" x="444.5558" y="84.7816" width="115.4224" height="188.2625" transform="translate(1004.5341 357.8256) rotate(180)"/><rect class="cls-5" x="438.3517" y="181.3662" width="48.4339" height="99.0902" transform="translate(925.1375 461.8225) rotate(180)"/><rect class="cls-5" x="394.1044" y="184.051" width="54.9834" height="88.9932" transform="translate(843.1923 457.0951) rotate(180)"/><ellipse class="cls-5" cx="464.8153" cy="306.906" rx="25.7275" ry="30.6006"/><ellipse class="cls-5" cx="585.0729" cy="156.6049" rx="28.5251" ry="31.9323"/><rect class="cls-5" x="387.8767" y="84.7816" width="113.3582" height="188.2625" transform="translate(889.1117 357.8257) rotate(180)"/></g><g id="Layer_6"><rect class="cls-3" x="220.7079" y="274.5477" width="167.1687" height="202.2996"/><ellipse class="cls-3" cx="197.5979" cy="352.7171" rx="31.5804" ry="26.5759"/><ellipse class="cls-3" cx="297.8313" cy="501.495" rx="31.5804" ry="29.7549"/></g><g id="Layer_4"><circle class="cls-1" cx="300.2474" cy="303.6153" r="29.1643"/><rect class="cls-1" x="228.9674" y="215.864" width="158.6141" height="60.4414" transform="translate(616.5489 492.1692) rotate(180)"/><rect class="cls-1" x="278.8777" y="117.8714" width="116.3396" height="66.1796" transform="translate(674.0951 301.9223) rotate(180)"/><rect class="cls-1" x="268.7062" y="182.7741" width="116.3396" height="66.1796" transform="translate(653.7521 431.7277) rotate(180)"/><rect class="cls-1" x="227.2248" y="183.051" width="116.3396" height="66.1796" transform="translate(570.7893 432.2815) rotate(180)"/><rect class="cls-1" x="276.2045" y="84.7816" width="111.377" height="61.797" transform="translate(663.7859 231.3602) rotate(180)"/><rect class="cls-1" x="220.708" y="80.727" width="116.3396" height="50.0436" transform="translate(557.7555 211.4976) rotate(180)"/><circle class="cls-1" cx="417.8848" cy="158.6127" r="31.203"/></g><g id="Layer_5"><path id="puzzle" class="cls-2" d="M157.9395,351.7703c0-19.3039,16.1797-35.0157,36.0873-35.0157,9.1765,0,17.7946,3.5016,24.2846,9.6746V170.6544c0-3.0035,2.4299-5.4335,5.4334-5.4335h3.8638c1.9772,0,3.8034,1.0716,4.7543,2.8073,4.392,7.954,12.6479,12.8894,21.5679,12.8894,13.644,0,24.7525-11.1084,24.7525-24.7525,0-13.6441-11.0933-24.7525-24.7525-24.7525-8.603,0-16.4815,4.4524-21.0547,11.9084-.9811,1.6149-2.7469,2.596-4.6335,2.596h-4.4977c-3.0035,0-5.4335-2.43-5.4335-5.4335v-60.387c0-3.0035,2.4299-5.4335,5.4335-5.4335h332.0457c3.0035-.0001,5.4335,2.4299,5.4335,5.4334v50.6219c6.5806-6.4145,15.5005-10.1727,24.7525-10.1727,19.968,0,35.6194,15.3797,35.6195,35.0157,0,19.968-15.9835,36.2232-35.6194,36.2232-9.3727,0-18.2172-3.7581-24.7525-10.2029v145.3455c6.5806-6.4145,15.5005-10.1727,24.7525-10.1727,19.968,0,35.6194,15.3798,35.6195,35.0157,0,19.968-15.9835,36.2232-35.6194,36.2232-9.3727,0-18.2172-3.7582-24.7525-10.2179v94.7387c0,3.0035-2.4299,5.4335-5.4334,5.4335h-75.4649c-3.0035,0-5.4335-2.4299-5.4335-5.4335v-3.6223c0-1.9923,1.0867-3.8185,2.8224-4.7543,7.6823-4.226,12.2706-12.3159,12.2706-21.6584,0-13.7346-11.1084-24.8883-24.7525-24.8883-13.6441,0-24.7525,11.1537-24.7525,24.8883,0,8.1955,4.8147,16.3306,12.5574,21.2057,1.5697,.9961,2.5356,2.7318,2.5356,4.6034v4.226c0,3.0035-2.43,5.4335-5.4335,5.4335h-124.8039c5.9919,6.4447,9.4935,15.2138,9.4935,24.6016,0,19.7265-15.9835,35.7704-35.6194,35.7704-19.636,0-35.6195-16.0438-35.6195-35.7703,0-9.086,3.894-17.9305,10.5047-24.6016h-50.3501c-3.0035,0-5.4335-2.4299-5.4335-5.4335v-94.2859c-6.49,6.173-15.1383,9.7652-24.2846,9.7652-19.5756,0-36.0873-16.5872-36.0874-36.2232Zm71.2389-70.0315v54.9385c0,3.0035-2.4299,5.4335-5.4335,5.4335h-4.0751c-1.8866,0-3.6374-.981-4.6335-2.596-4.5732-7.4559-12.4215-11.8933-21.0245-11.8933-13.9006,0-25.2053,10.8368-25.2053,24.1488,0,13.7497,11.5461,25.3562,25.2053,25.3562,8.9049,0,17.1305-4.9203,21.4924-12.8743,.9358-1.7357,2.7771-2.8375,4.7543-2.8375h3.4865c3.0035,0,5.4335,2.43,5.4335,5.4335v100.2174s54.9385,0,54.9385,0c3.0035,0,5.4335,2.43,5.4335,5.4335v4.377c0,1.8866-.981,3.6374-2.596,4.6335-7.7125,4.7241-12.497,12.7988-12.497,21.0396,0,13.7346,11.0934,24.8883,24.7525,24.8883,13.6591,0,24.7525-11.1537,24.7525-24.8883,0-9.3426-4.5883-17.4324-12.2555-21.6584-1.7357-.9358-2.8375-2.7771-2.8375-4.7543v-3.6223c0-3.0035,2.43-5.4335,5.4335-5.4335h70.0314s0-185.3419,0-185.3419h-58.9985c6.0523,6.4447,9.4935,15.1232,9.4935,24.6469,0,19.6964-15.9835,35.7402-35.6194,35.7402-19.636,0-35.6195-16.0287-35.6195-35.7402,0-9.1011,3.8638-17.9607,10.4443-24.6469h-44.8563Zm0-100.1268v89.275s54.9385,0,54.9385,0c3.0035,0,5.4335,2.43,5.4335,5.4335v4.3015c0,1.8866-.981,3.6374-2.596,4.6335-7.7125,4.7392-12.497,12.8441-12.497,21.1453,0,13.7044,11.0934,24.8581,24.7525,24.8581,13.6591,0,24.7525-11.1537,24.7525-24.8582,0-9.2973-4.5883-17.4022-12.2857-21.6735-1.7206-.9509-2.8073-2.7771-2.8073-4.7543v-3.6676c0-3.0035,2.43-5.4335,5.4335-5.4335h70.0314s0-100.2175,0-100.2175c0-3.0035,2.43-5.4335,5.4335-5.4335h3.8638c1.9772,0,3.8034,1.0716,4.7543,2.8073,4.3921,7.954,12.663,12.8894,21.5679,12.8894,13.6441,0,24.7525-11.1084,24.7525-24.7525,0-13.6441-11.1084-24.7525-24.7525-24.7525-8.603,0-16.4815,4.4524-21.0396,11.9084-.981,1.6149-2.7469,2.596-4.6335,2.596h-4.5128c-3.0035,0-5.4335-2.43-5.4335-5.4335v-54.9536s-155.1559,0-155.1559,0v45.1129c6.5655-6.4447,15.3496-10.0972,24.7525-10.0972,19.6511,0,35.6195,15.9835,35.6195,35.6194,0,19.636-15.9835,35.6194-35.6194,35.6195-9.3426-.0151-18.2021-3.7581-24.7525-10.1727Zm166.0229,100.1268v185.3419s44.8715,0,44.8715,0c-6.5956-6.7466-10.4444-15.5911-10.4444-24.6016,0-19.7265,15.9835-35.7704,35.6194-35.7704,19.636,0,35.6194,16.0438,35.6195,35.7703,0,9.3878-3.4865,18.1568-9.4784,24.6016h58.9683s0-100.2174,0-100.2174c0-3.0035,2.43-5.4335,5.4335-5.4335h3.9242c1.9772,0,3.8034,1.0867,4.7543,2.8375,4.3619,7.9389,12.6026,12.8592,21.5075,12.8592,13.4177,0,24.7525-11.6065,24.7525-25.3562,0-13.5384-10.8821-24.1488-24.7525-24.1488-8.5879,0-16.4514,4.4374-21.0396,11.8933-.981,1.615-2.7318,2.596-4.6184,2.596h-4.5279c-3.0035,0-5.4335-2.43-5.4335-5.4335v-54.9385s-58.9985,0-58.9985,0c5.9919,6.4598,9.4784,15.2137,9.4784,24.6016,0,19.7265-15.9835,35.7704-35.6194,35.7704-19.636,0-35.6194-16.0438-35.6195-35.7704,0-9.0709,3.8789-17.9305,10.5047-24.6016,0,0-44.9017,0-44.9017,0Zm0-100.1269v89.275s54.9385,0,54.9385,0c3.0035,0,5.4335,2.43,5.4335,5.4335v4.377c0,1.8866-.981,3.6374-2.5809,4.6335-7.7125,4.7392-12.5121,12.7988-12.5121,21.0396,0,13.7346,11.1084,24.8883,24.7525,24.8883,13.6441,0,24.7525-11.1839,24.7525-24.9185,0-9.3426-4.5883-17.4324-12.2706-21.6433-1.7357-.9509-2.8224-2.7922-2.8224-4.7694v-3.6223c0-3.0035,2.43-5.4335,5.4335-5.4335h70.0314s0-100.2175,0-100.2175c0-3.0035,2.43-5.4335,5.4335-5.4335h3.9242c1.9772,0,3.8034,1.0716,4.7543,2.8224,4.3619,7.9389,12.6026,12.8743,21.5075,12.8743,13.4177,0,24.7525-11.6216,24.7525-25.3562,0-13.5384-10.8821-24.1488-24.7525-24.1488-8.4672,0-16.5268,4.5581-21.0396,11.9084-.981,1.5999-2.7318,2.5809-4.6184,2.5809h-4.5279c-3.0035,0-5.4335-2.43-5.4335-5.4335v-54.9385s-155.1559,0-155.1559,0v45.1129c6.5504-6.4447,15.3345-10.0972,24.7525-10.0972,19.636,0,35.6194,15.9835,35.6195,35.6194s-15.9835,35.6194-35.6194,35.6195c-9.3576-.0151-18.2021-3.7581-24.7525-10.1727Z"/></g><g id="Layer_2"><text class="cls-6" transform="translate(273.6708 40.8657)"><tspan x="0" y="0">Deployable architecture </tspan></text></g><g id="Layer_8"><text class="cls-8" transform="translate(272.6307 224.612)"><tspan x="0" y="0">Module</tspan></text></g><g id="Layer_9"><text class="cls-8" transform="translate(439.8995 224.6125)"><tspan x="0" y="0">Module</tspan></text></g><g id="Layer_10"><text class="cls-7" transform="translate(438.3515 379.7238)"><tspan x="0" y="0">Module</tspan></text></g><g id="Layer_11"><text class="cls-7" transform="translate(271.0833 379.5084)"><tspan x="0" y="0">Module</tspan></text></g></svg>