<?xml version="1.0" encoding="utf-8"?>
<!-- Generator: Adobe Illustrator 27.0.1, SVG Export Plug-In . SVG Version: 6.00 Build 0)  -->
<svg version="1.1" xmlns="http://www.w3.org/2000/svg" xmlns:xlink="http://www.w3.org/1999/xlink" x="0px" y="0px"
	 viewBox="0 0 789 227.7" style="enable-background:new 0 0 789 227.7;" xml:space="preserve">
<style type="text/css">
	.st0{font-family:'IBMPlexSans-Text';}
	.st1{font-size:14px;}
	.st2{font-size:12px;}
	.st3{fill:none;stroke:#000000;stroke-miterlimit:10;}
	.st4{display:none;}
	.st5{display:inline;}
</style>
<g id="Layer_1">
</g>
<g id="Layer_8">
</g>
<g id="Layer_3">
</g>
<g id="Layer_5">
</g>
<g id="Layer_13">
</g>
<g id="Layer_6">
	<text transform="matrix(1 0 0 1 27.1147 135.6381)" class="st0 st1">Deployable architecture A</text>
</g>
<g id="Layer_15">
</g>
<g id="Layer_10">
</g>
<g id="Layer_11">
	<g id="Layer_12">
	</g>
</g>
<g id="Layer_14">
</g>
<g id="Layer_9">
	<text transform="matrix(1 0 0 1 596.2823 207.3187)" class="st0 st1">Deployable architecture B</text>
</g>
<g id="Layer_7">
	<text transform="matrix(1 0 0 1 232.3185 207.0376)" class="st0 st2">A outputs resources</text>
	<g>
		<path d="M371.5,199.8c20.3-15.3,40.7-30.7,61-46"/>
		<g>
			<path class="st3" d="M371.5,199.8c18.4-13.9,36.8-27.8,55.3-41.7"/>
			<g>
				<polygon points="428.6,163 432.5,153.8 422.6,155.1 				"/>
			</g>
		</g>
	</g>
	<g>
		<path d="M157.5,150.8c20,14.7,40,29.3,60,44"/>
		<g>
			<path class="st3" d="M157.5,150.8c18.1,13.3,36.1,26.5,54.2,39.8"/>
			<g>
				<polygon points="207.6,193.7 217.5,194.8 213.5,185.7 				"/>
			</g>
		</g>
	</g>
	<g>
		<path d="M519.9,154.7c20,14.7,40,29.3,60,44"/>
		<g>
			<path class="st3" d="M519.9,154.7c18.1,13.3,36.1,26.5,54.2,39.8"/>
			<g>
				<polygon points="570,197.7 579.9,198.7 575.9,189.6 				"/>
			</g>
		</g>
	</g>
</g>
<g id="Layer_4">
	<text transform="matrix(1 0 0 1 408.4296 40.2598)" class="st0 st2">B uses resources from A</text>
</g>
<g id="Layer_16">
	<path id="cloud--services_1_" d="M132.5,112.1H77.3c-12,0-21.8-9.8-21.8-21.8c0-13,11.7-23.8,24.7-22c6-10.3,13.8-15.1,24.6-15.1
		c16.7,0,28.1,15.3,28.6,29.9c7.9,0.5,13.8,6.4,13.8,14.1C147.3,105.6,140.8,112.1,132.5,112.1z M127.9,110h4.6
		c7.1,0,12.7-5.6,12.7-12.7c0-7-5.3-12-12.7-12c-0.6,0-1.1-0.5-1.1-1.1c0-13.9-10.6-28.8-26.5-28.8C94.8,55.3,87.4,60,81.8,70
		c-0.2,0.4-0.7,0.6-1.1,0.5c-12-2-22.9,7.8-22.9,19.8c0,10.8,8.8,19.6,19.6,19.6H81v-7.9c0-0.6,0.5-1.1,1.1-1.1h9
		c0.6,0,1.1,0.5,1.1,1.1v7.9h24.7v-7.9c0-0.6,0.5-1.1,1.1-1.1h9c0.6,0,1.1,0.5,1.1,1.1V110z M119,110h6.8v-6.8H119V110z M83.1,110
		h6.8v-6.8h-6.8V110z M107.4,91.2h-9c-0.6,0-1.1-0.5-1.1-1.1v-9c0-0.6,0.5-1.1,1.1-1.1h9c0.6,0,1.1,0.5,1.1,1.1v9
		C108.5,90.7,108,91.2,107.4,91.2z M99.5,89h6.8v-6.8h-6.8V89z M91,91.2h-9c-0.6,0-1.1-0.5-1.1-1.1v-9c0-0.6,0.5-1.1,1.1-1.1h9
		c0.6,0,1.1,0.5,1.1,1.1v9C92.1,90.7,91.6,91.2,91,91.2z M83.1,89h6.8v-6.8h-6.8V89z M146.3,67.3h-9c-0.6,0-1.1-0.5-1.1-1.1v-9
		c0-0.6,0.5-1.1,1.1-1.1h9c0.6,0,1.1,0.5,1.1,1.1v9C147.3,66.8,146.9,67.3,146.3,67.3z M138.4,65.1h6.8v-6.8h-6.8V65.1z M125.3,49.4
		h-9c-0.6,0-1.1-0.5-1.1-1.1v-9c0-0.6,0.5-1.1,1.1-1.1h9c0.6,0,1.1,0.5,1.1,1.1v9C126.4,48.9,125.9,49.4,125.3,49.4z M117.5,47.2
		h6.8v-6.8h-6.8V47.2z M65.6,49.4h-9c-0.6,0-1.1-0.5-1.1-1.1v-9c0-0.6,0.5-1.1,1.1-1.1h9c0.6,0,1.1,0.5,1.1,1.1v9
		C66.7,48.9,66.2,49.4,65.6,49.4z M57.7,47.2h6.8v-6.8h-6.8V47.2z M146.3,31.4h-9c-0.6,0-1.1-0.5-1.1-1.1v-9c0-0.6,0.5-1.1,1.1-1.1
		h9c0.6,0,1.1,0.5,1.1,1.1v9C147.3,31,146.9,31.4,146.3,31.4z M138.4,29.3h6.8v-6.8h-6.8V29.3z M89.5,31.4h-9
		c-0.6,0-1.1-0.5-1.1-1.1v-9c0-0.6,0.5-1.1,1.1-1.1h9c0.6,0,1.1,0.5,1.1,1.1v9C90.6,31,90.1,31.4,89.5,31.4z M81.6,29.3h6.8v-6.8
		h-6.8V29.3z"/>
	<path id="cloud--services_00000169544765573990407010000012561005361154237367_" d="M708.4,185.7h-55.1c-12,0-21.8-9.8-21.8-21.8
		c0-13,11.7-23.8,24.7-22c6-10.3,13.8-15.1,24.6-15.1c16.7,0,28.1,15.3,28.6,29.9c7.9,0.5,13.8,6.4,13.8,14.1
		C723.3,179.2,716.8,185.7,708.4,185.7z M703.9,183.6h4.6c7.1,0,12.7-5.6,12.7-12.7c0-7-5.3-12-12.7-12c-0.6,0-1.1-0.5-1.1-1.1
		c0-13.9-10.6-28.8-26.5-28.8c-10.1,0-17.5,4.7-23.1,14.7c-0.2,0.4-0.7,0.6-1.1,0.5c-12-2-22.9,7.8-22.9,19.8
		c0,10.8,8.8,19.6,19.6,19.6h3.6v-7.9c0-0.6,0.5-1.1,1.1-1.1h9c0.6,0,1.1,0.5,1.1,1.1v7.9h24.7v-7.9c0-0.6,0.5-1.1,1.1-1.1h9
		c0.6,0,1.1,0.5,1.1,1.1V183.6z M694.9,183.6h6.8v-6.8h-6.8V183.6z M659.1,183.6h6.8v-6.8h-6.8V183.6z M683.4,164.8h-9
		c-0.6,0-1.1-0.5-1.1-1.1v-9c0-0.6,0.5-1.1,1.1-1.1h9c0.6,0,1.1,0.5,1.1,1.1v9C684.5,164.3,684,164.8,683.4,164.8z M675.5,162.7h6.8
		v-6.8h-6.8V162.7z M667,164.8h-9c-0.6,0-1.1-0.5-1.1-1.1v-9c0-0.6,0.5-1.1,1.1-1.1h9c0.6,0,1.1,0.5,1.1,1.1v9
		C668,164.3,667.5,164.8,667,164.8z M659.1,162.7h6.8v-6.8h-6.8V162.7z M722.2,140.9h-9c-0.6,0-1.1-0.5-1.1-1.1v-9
		c0-0.6,0.5-1.1,1.1-1.1h9c0.6,0,1.1,0.5,1.1,1.1v9C723.3,140.4,722.8,140.9,722.2,140.9z M714.3,138.8h6.8V132h-6.8V138.8z
		 M701.3,123h-9c-0.6,0-1.1-0.5-1.1-1.1v-9c0-0.6,0.5-1.1,1.1-1.1h9c0.6,0,1.1,0.5,1.1,1.1v9C702.4,122.5,701.9,123,701.3,123z
		 M693.4,120.9h6.8V114h-6.8V120.9z M641.6,123h-9c-0.6,0-1.1-0.5-1.1-1.1v-9c0-0.6,0.5-1.1,1.1-1.1h9c0.6,0,1.1,0.5,1.1,1.1v9
		C642.6,122.5,642.2,123,641.6,123z M633.7,120.9h6.8V114h-6.8V120.9z M722.2,105.1h-9c-0.6,0-1.1-0.5-1.1-1.1v-9
		c0-0.6,0.5-1.1,1.1-1.1h9c0.6,0,1.1,0.5,1.1,1.1v9C723.3,104.6,722.8,105.1,722.2,105.1z M714.3,102.9h6.8v-6.8h-6.8V102.9z
		 M665.5,105.1h-9c-0.6,0-1.1-0.5-1.1-1.1v-9c0-0.6,0.5-1.1,1.1-1.1h9c0.6,0,1.1,0.5,1.1,1.1v9C666.5,104.6,666.1,105.1,665.5,105.1
		z M657.6,102.9h6.8v-6.8h-6.8V102.9z"/>
</g>
<g id="Layer_17">
	<path id="asset-management_00000052797630147806210300000013116229523981990793_" d="M299.9,189.6h-36.7c-0.6,0-1.1-0.5-1.1-1.1
		v-45.9c0-0.6,0.5-1.1,1.1-1.1h8.1v-8.1c0-0.6,0.5-1.1,1.1-1.1H309c0.6,0,1.1,0.5,1.1,1.1v45.9c0,0.6-0.5,1.1-1.1,1.1H301v8.1
		C301,189.1,300.5,189.6,299.9,189.6z M264.2,187.4h34.5V156h-11.1c-0.6,0-1.1-0.5-1.1-1.1v-11.1h-22.3V187.4z M301,178.3h7v-43.7
		h-34.5v7h14.2c0.3,0,0.6,0.1,0.8,0.3l12.2,12.2c0.2,0.2,0.3,0.5,0.3,0.8V178.3z M288.7,153.8h8.5l-8.5-8.5V153.8z M293.7,177.4
		h-24.5v-2.2h24.5V177.4z M293.7,171.3h-24.5v-2.2h24.5V171.3z M293.7,165.1h-24.5v-2.2h24.5V165.1z"/>
</g>
<g id="Layer_18">
	<path id="asset-management_00000067212086724645814450000008798455394386390938_" d="M476.8,148.6l1.6-1.6l-3.1-3.1
		c-0.2-0.2-0.4-0.3-0.6-0.3l-22.4-2.8c-1.1-0.1-2.1-0.6-2.9-1.4l-18.7-18.7c-1.3-1.3-1.3-3.3,0-4.6c1.3-1.3,3.3-1.3,4.6,0l19,15.4
		c1.3,1.2,3.1,2,5,2h15.3v-2.2h-15.3c-1.2,0-2.3-0.4-3.2-1.1l0,0l-0.4-0.3c-0.9-0.9-1.5-2.2-1.5-3.6c0-1.1,0.9-2,2-2h23.7v-2.2
		h-23.7c-2.3,0-4.2,1.9-4.2,4.2c0,0.2,0,0.4,0,0.6l-15.3-12.4c-2-2-5.5-2-7.6,0.1c-2.1,2.1-2.1,5.6,0,7.7l18.7,18.7
		c1.1,1.1,2.6,1.9,4.2,2.1l22,2.8L476.8,148.6z M504.3,148.6l1.6-1.6l-8.9-8.9c-0.7-9-8.1-15.9-17.2-15.9v2.2c8,0,14.6,6.3,15,14.2
		c0,0.3,0.1,0.5,0.3,0.7L504.3,148.6z M453,112.2h36.7c0.6,0,1.1-0.5,1.1-1.1V65.2c0-0.6-0.5-1.1-1.1-1.1h-8.1V56
		c0-0.6-0.5-1.1-1.1-1.1h-36.7c-0.6,0-1.1,0.5-1.1,1.1v45.9c0,0.6,0.5,1.1,1.1,1.1h8.1v8.1C451.9,111.7,452.4,112.2,453,112.2z
		 M488.7,110h-34.5V78.5h11.1c0.6,0,1.1-0.5,1.1-1.1V66.3h22.3V110z M451.9,100.8h-7V57.1h34.5v7h-14.2c-0.3,0-0.6,0.1-0.8,0.3
		l-12.2,12.2c-0.2,0.2-0.3,0.5-0.3,0.8V100.8z M464.2,76.3h-8.5l8.5-8.5V76.3z M459.2,99.9h24.5v-2.2h-24.5V99.9z M459.2,93.8h24.5
		v-2.2h-24.5V93.8z M459.2,87.7h24.5v-2.2h-24.5V87.7z"/>
</g>
<g id="Layer_19" class="st4">
	<path id="ibm--cloud_00000145020359433488999570000002009248396472003774_" class="st5" d="M689.2,185.1h-44.1
		c-10.8,0-19.5-8.8-19.5-19.5c0-9,6.2-16.9,14.9-19c2.8-13.3,14.7-23.3,28.8-23.3c10.6,0,20.4,5.7,25.7,14.9
		c10.4,2.6,18.1,12,18.1,23.1C713,174.4,702.3,185.1,689.2,185.1z M640.1,148.8c-7.3,2.2-12.4,9-12.4,16.7c0,9.6,7.8,17.5,17.5,17.5
		h44.1c12,0,21.8-9.8,21.8-21.8c0-12-9.8-21.8-21.8-21.8c-6.5,0-12.5,2.8-16.7,7.8c-0.4,0.4-1,0.5-1.4,0.1c-0.4-0.4-0.5-1-0.1-1.4
		c4.5-5.4,11.2-8.5,18.3-8.5c1,0,2,0.1,3,0.2c-5.1-7.7-13.7-12.4-22.9-12.4c-15.1,0-27.4,12.3-27.4,27.4c0,4.8,1.3,9.6,3.7,13.7
		c0.3,0.5,0.1,1.1-0.4,1.4c-0.5,0.3-1.1,0.1-1.4-0.4c-2.6-4.5-3.9-9.5-3.9-14.7C639.8,151.4,639.9,150.1,640.1,148.8z M703.5,134.9
		c-0.4,0-0.7-0.2-0.9-0.5c-0.3-0.5-0.1-1.1,0.4-1.4l8.5-4.9c0.5-0.3,1.1-0.1,1.4,0.4c0.3,0.5,0.1,1.1-0.4,1.4l-8.5,4.9
		C703.9,134.9,703.7,134.9,703.5,134.9z M635.1,134.9c-0.2,0-0.4,0-0.5-0.1l-8.5-4.9c-0.5-0.3-0.7-0.9-0.4-1.4
		c0.3-0.5,0.9-0.7,1.4-0.4l8.5,4.9c0.5,0.3,0.7,0.9,0.4,1.4C635.8,134.7,635.4,134.9,635.1,134.9z M649.5,120.5
		c-0.4,0-0.7-0.2-0.9-0.5l-4.9-8.5c-0.3-0.5-0.1-1.1,0.4-1.4c0.5-0.3,1.1-0.1,1.4,0.4l4.9,8.5c0.3,0.5,0.1,1.1-0.4,1.4
		C649.9,120.4,649.7,120.5,649.5,120.5z M689.1,120.5c-0.2,0-0.4,0-0.5-0.1c-0.5-0.3-0.7-0.9-0.4-1.4l4.9-8.5
		c0.3-0.5,0.9-0.7,1.4-0.4c0.5,0.3,0.7,0.9,0.4,1.4l-4.9,8.5C689.8,120.3,689.4,120.5,689.1,120.5z M669.3,115.2c-0.6,0-1-0.5-1-1
		v-9.8c0-0.6,0.5-1,1-1c0.6,0,1,0.5,1,1v9.8C670.3,114.7,669.9,115.2,669.3,115.2z"/>
</g>
</svg>
