<?xml version="1.0" encoding="utf-8"?>
<!-- Generator: Adobe Illustrator 27.0.1, SVG Export Plug-In . SVG Version: 6.00 Build 0)  -->
<svg version="1.1" xmlns="http://www.w3.org/2000/svg" xmlns:xlink="http://www.w3.org/1999/xlink" x="0px" y="0px"
	 viewBox="0 0 789 227.7" style="enable-background:new 0 0 789 227.7;" xml:space="preserve">
<style type="text/css">
	.st0{font-family:'IBMPlexSans-Text';}
	.st1{font-size:14px;}
	.st2{font-size:12px;}
	.st3{fill:none;stroke:#000000;stroke-miterlimit:10;}
	.st4{display:none;}
	.st5{display:inline;}
</style>
<g id="Layer_1">
</g>
<g id="Layer_8">
</g>
<g id="Layer_3">
</g>
<g id="Layer_5">
</g>
<g id="Layer_13">
</g>
<g id="Layer_6">
	<text transform="matrix(1 0 0 1 27.1147 135.6381)" class="st0 st1">Deployable architecture A</text>
</g>
<g id="Layer_15">
</g>
<g id="Layer_10">
</g>
<g id="Layer_11">
	<g id="Layer_12">
	</g>
</g>
<g id="Layer_14">
</g>
<g id="Layer_9">
	<text transform="matrix(1 0 0 1 576.2823 135.3187)" class="st0 st1">Deployable architecture B</text>
</g>
<g id="Layer_7">
	<text transform="matrix(1 0 0 1 334.3185 70.0376)" class="st0 st2">A outputs resources</text>
	<g>
		<path d="M206.4,130.7c38-20,76.1-39.9,114.1-59.9"/>
		<g>
			<path class="st3" d="M206.4,130.7c35.9-18.8,71.9-37.7,107.8-56.5"/>
			<g>
				<polygon points="315.2,79.3 320.5,70.8 310.5,70.4 				"/>
			</g>
		</g>
	</g>
	<g>
		<path d="M469.8,188.2c32.1-18.6,64.3-37.1,96.4-55.7"/>
		<g>
			<path class="st3" d="M469.8,188.2c30.1-17.4,60.2-34.7,90.2-52.1"/>
			<g>
				<polygon points="561.2,141.1 566.2,132.5 556.2,132.5 				"/>
			</g>
		</g>
	</g>
</g>
<g id="Layer_4">
	<text transform="matrix(1 0 0 1 323.4296 193.2598)" class="st0 st2">B uses resources from A</text>
</g>
<g id="Layer_16">
	<path id="cloud--services_1_" d="M132.5,112.1H77.3c-12,0-21.8-9.8-21.8-21.8c0-13,11.7-23.8,24.7-22c6-10.3,13.8-15.1,24.6-15.1
		c16.7,0,28.1,15.3,28.6,29.9c7.9,0.5,13.8,6.4,13.8,14.1C147.3,105.6,140.8,112.1,132.5,112.1z M127.9,110h4.6
		c7.1,0,12.7-5.6,12.7-12.7c0-7-5.3-12-12.7-12c-0.6,0-1.1-0.5-1.1-1.1c0-13.9-10.6-28.8-26.5-28.8C94.8,55.3,87.4,60,81.8,70
		c-0.2,0.4-0.7,0.6-1.1,0.5c-12-2-22.9,7.8-22.9,19.8c0,10.8,8.8,19.6,19.6,19.6H81v-7.9c0-0.6,0.5-1.1,1.1-1.1h9
		c0.6,0,1.1,0.5,1.1,1.1v7.9h24.7v-7.9c0-0.6,0.5-1.1,1.1-1.1h9c0.6,0,1.1,0.5,1.1,1.1V110z M119,110h6.8v-6.8H119V110z M83.1,110
		h6.8v-6.8h-6.8V110z M107.4,91.2h-9c-0.6,0-1.1-0.5-1.1-1.1v-9c0-0.6,0.5-1.1,1.1-1.1h9c0.6,0,1.1,0.5,1.1,1.1v9
		C108.5,90.7,108,91.2,107.4,91.2z M99.5,89h6.8v-6.8h-6.8V89z M91,91.2h-9c-0.6,0-1.1-0.5-1.1-1.1v-9c0-0.6,0.5-1.1,1.1-1.1h9
		c0.6,0,1.1,0.5,1.1,1.1v9C92.1,90.7,91.6,91.2,91,91.2z M83.1,89h6.8v-6.8h-6.8V89z M146.3,67.3h-9c-0.6,0-1.1-0.5-1.1-1.1v-9
		c0-0.6,0.5-1.1,1.1-1.1h9c0.6,0,1.1,0.5,1.1,1.1v9C147.3,66.8,146.9,67.3,146.3,67.3z M138.4,65.1h6.8v-6.8h-6.8V65.1z M125.3,49.4
		h-9c-0.6,0-1.1-0.5-1.1-1.1v-9c0-0.6,0.5-1.1,1.1-1.1h9c0.6,0,1.1,0.5,1.1,1.1v9C126.4,48.9,125.9,49.4,125.3,49.4z M117.5,47.2
		h6.8v-6.8h-6.8V47.2z M65.6,49.4h-9c-0.6,0-1.1-0.5-1.1-1.1v-9c0-0.6,0.5-1.1,1.1-1.1h9c0.6,0,1.1,0.5,1.1,1.1v9
		C66.7,48.9,66.2,49.4,65.6,49.4z M57.7,47.2h6.8v-6.8h-6.8V47.2z M146.3,31.4h-9c-0.6,0-1.1-0.5-1.1-1.1v-9c0-0.6,0.5-1.1,1.1-1.1
		h9c0.6,0,1.1,0.5,1.1,1.1v9C147.3,31,146.9,31.4,146.3,31.4z M138.4,29.3h6.8v-6.8h-6.8V29.3z M89.5,31.4h-9
		c-0.6,0-1.1-0.5-1.1-1.1v-9c0-0.6,0.5-1.1,1.1-1.1h9c0.6,0,1.1,0.5,1.1,1.1v9C90.6,31,90.1,31.4,89.5,31.4z M81.6,29.3h6.8v-6.8
		h-6.8V29.3z"/>
	<path id="cloud--services_00000014625722654469874620000002306867691024788153_" d="M688.4,113.7h-55.1c-12,0-21.8-9.8-21.8-21.8
		c0-13,11.7-23.8,24.7-22c6-10.3,13.8-15.1,24.6-15.1c16.7,0,28.1,15.3,28.6,29.9c7.9,0.5,13.8,6.4,13.8,14.1
		C703.3,107.2,696.8,113.7,688.4,113.7z M683.9,111.6h4.6c7.1,0,12.7-5.6,12.7-12.7c0-7-5.3-12-12.7-12c-0.6,0-1.1-0.5-1.1-1.1
		c0-13.9-10.6-28.8-26.5-28.8c-10.1,0-17.5,4.7-23.1,14.7c-0.2,0.4-0.7,0.6-1.1,0.5c-12-2-22.9,7.8-22.9,19.8
		c0,10.8,8.8,19.6,19.6,19.6h3.6v-7.9c0-0.6,0.5-1.1,1.1-1.1h9c0.6,0,1.1,0.5,1.1,1.1v7.9h24.7v-7.9c0-0.6,0.5-1.1,1.1-1.1h9
		c0.6,0,1.1,0.5,1.1,1.1V111.6z M674.9,111.6h6.8v-6.8h-6.8V111.6z M639.1,111.6h6.8v-6.8h-6.8V111.6z M663.4,92.8h-9
		c-0.6,0-1.1-0.5-1.1-1.1v-9c0-0.6,0.5-1.1,1.1-1.1h9c0.6,0,1.1,0.5,1.1,1.1v9C664.5,92.3,664,92.8,663.4,92.8z M655.5,90.7h6.8
		v-6.8h-6.8V90.7z M647,92.8h-9c-0.6,0-1.1-0.5-1.1-1.1v-9c0-0.6,0.5-1.1,1.1-1.1h9c0.6,0,1.1,0.5,1.1,1.1v9
		C648,92.3,647.5,92.8,647,92.8z M639.1,90.7h6.8v-6.8h-6.8V90.7z M702.2,68.9h-9c-0.6,0-1.1-0.5-1.1-1.1v-9c0-0.6,0.5-1.1,1.1-1.1
		h9c0.6,0,1.1,0.5,1.1,1.1v9C703.3,68.4,702.8,68.9,702.2,68.9z M694.3,66.8h6.8V60h-6.8V66.8z M681.3,51h-9c-0.6,0-1.1-0.5-1.1-1.1
		v-9c0-0.6,0.5-1.1,1.1-1.1h9c0.6,0,1.1,0.5,1.1,1.1v9C682.4,50.5,681.9,51,681.3,51z M673.4,48.9h6.8V42h-6.8V48.9z M621.6,51h-9
		c-0.6,0-1.1-0.5-1.1-1.1v-9c0-0.6,0.5-1.1,1.1-1.1h9c0.6,0,1.1,0.5,1.1,1.1v9C622.6,50.5,622.2,51,621.6,51z M613.7,48.9h6.8V42
		h-6.8V48.9z M702.2,33.1h-9c-0.6,0-1.1-0.5-1.1-1.1v-9c0-0.6,0.5-1.1,1.1-1.1h9c0.6,0,1.1,0.5,1.1,1.1v9
		C703.3,32.6,702.8,33.1,702.2,33.1z M694.3,30.9h6.8v-6.8h-6.8V30.9z M645.5,33.1h-9c-0.6,0-1.1-0.5-1.1-1.1v-9
		c0-0.6,0.5-1.1,1.1-1.1h9c0.6,0,1.1,0.5,1.1,1.1v9C646.5,32.6,646.1,33.1,645.5,33.1z M637.6,30.9h6.8v-6.8h-6.8V30.9z"/>
</g>
<g id="Layer_17">
	<path id="asset-management_00000010291465121434334150000003247971801201241002_" d="M401.9,137.6h-36.7c-0.6,0-1.1-0.5-1.1-1.1
		V90.6c0-0.6,0.5-1.1,1.1-1.1h8.1v-8.1c0-0.6,0.5-1.1,1.1-1.1H411c0.6,0,1.1,0.5,1.1,1.1v45.9c0,0.6-0.5,1.1-1.1,1.1H403v8.1
		C403,137.1,402.5,137.6,401.9,137.6z M366.2,135.4h34.5V104h-11.1c-0.6,0-1.1-0.5-1.1-1.1V91.7h-22.3V135.4z M403,126.3h7V82.5
		h-34.5v7h14.2c0.3,0,0.6,0.1,0.8,0.3l12.2,12.2c0.2,0.2,0.3,0.5,0.3,0.8V126.3z M390.7,101.8h8.5l-8.5-8.5V101.8z M395.7,125.4
		h-24.5v-2.2h24.5V125.4z M395.7,119.3h-24.5v-2.2h24.5V119.3z M395.7,113.1h-24.5v-2.2h24.5V113.1z"/>
</g>
<g id="Layer_18">
	<path id="asset-management_00000067212086724645814450000008798455394386390938_" d="M397.8,173.6l1.6-1.6l-3.1-3.1
		c-0.2-0.2-0.4-0.3-0.6-0.3l-22.4-2.8c-1.1-0.1-2.1-0.6-2.9-1.4l-18.7-18.7c-1.3-1.3-1.3-3.3,0-4.6c1.3-1.3,3.3-1.3,4.6,0l19,15.4
		c1.3,1.2,3.1,2,5,2h15.3v-2.2h-15.3c-1.2,0-2.3-0.4-3.2-1.1l0,0l-0.4-0.3c-0.9-0.9-1.5-2.2-1.5-3.6c0-1.1,0.9-2,2-2h23.7v-2.2
		h-23.7c-2.3,0-4.2,1.9-4.2,4.2c0,0.2,0,0.4,0,0.6l-15.3-12.4c-2-2-5.5-2-7.6,0.1c-2.1,2.1-2.1,5.6,0,7.7l18.7,18.7
		c1.1,1.1,2.6,1.9,4.2,2.1l22,2.8L397.8,173.6z M425.3,173.6l1.6-1.6l-8.9-8.9c-0.7-9-8.1-15.9-17.2-15.9v2.2c8,0,14.6,6.3,15,14.2
		c0,0.3,0.1,0.5,0.3,0.7L425.3,173.6z"/>
</g>
<g id="Layer_19" class="st4">
	<path id="ibm--cloud_00000145020359433488999570000002009248396472003774_" class="st5" d="M689.2,185.1h-44.1
		c-10.8,0-19.5-8.8-19.5-19.5c0-9,6.2-16.9,14.9-19c2.8-13.3,14.7-23.3,28.8-23.3c10.6,0,20.4,5.7,25.7,14.9
		c10.4,2.6,18.1,12,18.1,23.1C713,174.4,702.3,185.1,689.2,185.1z M640.1,148.8c-7.3,2.2-12.4,9-12.4,16.7c0,9.6,7.8,17.5,17.5,17.5
		h44.1c12,0,21.8-9.8,21.8-21.8c0-12-9.8-21.8-21.8-21.8c-6.5,0-12.5,2.8-16.7,7.8c-0.4,0.4-1,0.5-1.4,0.1c-0.4-0.4-0.5-1-0.1-1.4
		c4.5-5.4,11.2-8.5,18.3-8.5c1,0,2,0.1,3,0.2c-5.1-7.7-13.7-12.4-22.9-12.4c-15.1,0-27.4,12.3-27.4,27.4c0,4.8,1.3,9.6,3.7,13.7
		c0.3,0.5,0.1,1.1-0.4,1.4c-0.5,0.3-1.1,0.1-1.4-0.4c-2.6-4.5-3.9-9.5-3.9-14.7C639.8,151.4,639.9,150.1,640.1,148.8z M703.5,134.9
		c-0.4,0-0.7-0.2-0.9-0.5c-0.3-0.5-0.1-1.1,0.4-1.4l8.5-4.9c0.5-0.3,1.1-0.1,1.4,0.4c0.3,0.5,0.1,1.1-0.4,1.4l-8.5,4.9
		C703.9,134.9,703.7,134.9,703.5,134.9z M635.1,134.9c-0.2,0-0.4,0-0.5-0.1l-8.5-4.9c-0.5-0.3-0.7-0.9-0.4-1.4
		c0.3-0.5,0.9-0.7,1.4-0.4l8.5,4.9c0.5,0.3,0.7,0.9,0.4,1.4C635.8,134.7,635.4,134.9,635.1,134.9z M649.5,120.5
		c-0.4,0-0.7-0.2-0.9-0.5l-4.9-8.5c-0.3-0.5-0.1-1.1,0.4-1.4c0.5-0.3,1.1-0.1,1.4,0.4l4.9,8.5c0.3,0.5,0.1,1.1-0.4,1.4
		C649.9,120.4,649.7,120.5,649.5,120.5z M689.1,120.5c-0.2,0-0.4,0-0.5-0.1c-0.5-0.3-0.7-0.9-0.4-1.4l4.9-8.5
		c0.3-0.5,0.9-0.7,1.4-0.4c0.5,0.3,0.7,0.9,0.4,1.4l-4.9,8.5C689.8,120.3,689.4,120.5,689.1,120.5z M669.3,115.2c-0.6,0-1-0.5-1-1
		v-9.8c0-0.6,0.5-1,1-1c0.6,0,1,0.5,1,1v9.8C670.3,114.7,669.9,115.2,669.3,115.2z"/>
</g>
</svg>
