<?xml version="1.0" encoding="utf-8"?>
<!-- Generator: Adobe Illustrator 27.0.1, SVG Export Plug-In . SVG Version: 6.00 Build 0)  -->
<svg version="1.1" xmlns="http://www.w3.org/2000/svg" xmlns:xlink="http://www.w3.org/1999/xlink" x="0px" y="0px"
	 viewBox="0 0 789 227.7" style="enable-background:new 0 0 789 227.7;" xml:space="preserve">
<style type="text/css">
	.st0{font-family:'IBMPlexSans-Text';}
	.st1{font-size:14px;}
	.st2{fill:none;stroke:#000000;stroke-miterlimit:10;}
	.st3{font-size:12px;}
</style>
<g id="Layer_6">
	<text transform="matrix(1 0 0 1 28.1147 134.9784)" class="st0 st1">Deployable architecture A</text>
</g>
<g id="Layer_9">
	<text transform="matrix(1 0 0 1 582.2823 134.9783)" class="st0 st1">Deployable architecture B</text>
</g>
<g id="Layer_7">
	<g>
		<path d="M221.5,100.8c30.5,0,61,0,91.5,0.1"/>
		<g>
			<path class="st2" d="M221.5,100.8c28.1,0,56.2,0,84.3,0.1"/>
			<g>
				<polygon points="304.3,105.8 313,100.8 304.4,95.8 				"/>
			</g>
		</g>
	</g>
	<g>
		<path d="M463.2,100.9c30.5,0,61,0,91.5,0.1"/>
		<g>
			<path class="st2" d="M463.2,100.9c28.1,0,56.2,0,84.3,0.1"/>
			<g>
				<polygon points="546.1,106 554.7,101 546.1,96 				"/>
			</g>
		</g>
	</g>
</g>
<g id="Layer_20">
	<text transform="matrix(1 0 0 1 212.8357 85.0376)" class="st0 st3">A outputs resources</text>
</g>
<g id="Layer_4">
	<text transform="matrix(1 0 0 1 442.6938 85.2598)" class="st0 st3">B uses resources from A</text>
</g>
<g id="Layer_16">
	<path id="cloud--services_1_" d="M132.5,114.4H77.3c-12,0-21.8-9.8-21.8-21.8c0-13,11.7-23.8,24.7-22c6-10.3,13.8-15.1,24.6-15.1
		c16.7,0,28.1,15.3,28.6,29.9c7.9,0.5,13.8,6.4,13.8,14.1C147.3,107.9,140.8,114.4,132.5,114.4z M127.9,112.3h4.6
		c7.1,0,12.7-5.6,12.7-12.7c0-7-5.3-12-12.7-12c-0.6,0-1.1-0.5-1.1-1.1c0-13.9-10.6-28.8-26.5-28.8c-10.1,0-17.5,4.7-23.1,14.7
		c-0.2,0.4-0.7,0.6-1.1,0.5c-12-2-22.9,7.8-22.9,19.8c0,10.8,8.8,19.6,19.6,19.6H81v-7.9c0-0.6,0.5-1.1,1.1-1.1h9
		c0.6,0,1.1,0.5,1.1,1.1v7.9h24.7v-7.9c0-0.6,0.5-1.1,1.1-1.1h9c0.6,0,1.1,0.5,1.1,1.1V112.3z M119,112.3h6.8v-6.8H119V112.3z
		 M83.1,112.3h6.8v-6.8h-6.8V112.3z M107.4,93.5h-9c-0.6,0-1.1-0.5-1.1-1.1v-9c0-0.6,0.5-1.1,1.1-1.1h9c0.6,0,1.1,0.5,1.1,1.1v9
		C108.5,93,108,93.5,107.4,93.5z M99.5,91.4h6.8v-6.8h-6.8V91.4z M146.3,69.6h-9c-0.6,0-1.1-0.5-1.1-1.1v-9c0-0.6,0.5-1.1,1.1-1.1h9
		c0.6,0,1.1,0.5,1.1,1.1v9C147.3,69.1,146.9,69.6,146.3,69.6z M138.4,67.5h6.8v-6.8h-6.8V67.5z M125.3,51.7h-9
		c-0.6,0-1.1-0.5-1.1-1.1v-9c0-0.6,0.5-1.1,1.1-1.1h9c0.6,0,1.1,0.5,1.1,1.1v9C126.4,51.2,125.9,51.7,125.3,51.7z M117.5,49.5h6.8
		v-6.8h-6.8V49.5z M146.3,33.8h-9c-0.6,0-1.1-0.5-1.1-1.1v-9c0-0.6,0.5-1.1,1.1-1.1h9c0.6,0,1.1,0.5,1.1,1.1v9
		C147.3,33.3,146.9,33.8,146.3,33.8z M138.4,31.6h6.8v-6.8h-6.8V31.6z"/>
	<path id="cloud--services_00000014625722654469874620000002306867691024788153_" d="M695.4,114.4h-55.1c-12,0-21.8-9.8-21.8-21.8
		c0-13,11.7-23.8,24.7-22c6-10.3,13.8-15.1,24.6-15.1c16.7,0,28.1,15.3,28.6,29.9c7.9,0.5,13.8,6.4,13.8,14.1
		C710.3,107.9,703.8,114.4,695.4,114.4z M690.9,112.3h4.6c7.1,0,12.7-5.6,12.7-12.7c0-7-5.3-12-12.7-12c-0.6,0-1.1-0.5-1.1-1.1
		c0-13.9-10.6-28.8-26.5-28.8c-10.1,0-17.5,4.7-23.1,14.7c-0.2,0.4-0.7,0.6-1.1,0.5c-12-2-22.9,7.8-22.9,19.8
		c0,10.8,8.8,19.6,19.6,19.6h3.6v-7.9c0-0.6,0.5-1.1,1.1-1.1h9c0.6,0,1.1,0.5,1.1,1.1v7.9h24.7v-7.9c0-0.6,0.5-1.1,1.1-1.1h9
		c0.6,0,1.1,0.5,1.1,1.1V112.3z M681.9,112.3h6.8v-6.8h-6.8V112.3z M646.1,112.3h6.8v-6.8h-6.8V112.3z M670.4,93.5h-9
		c-0.6,0-1.1-0.5-1.1-1.1v-9c0-0.6,0.5-1.1,1.1-1.1h9c0.6,0,1.1,0.5,1.1,1.1v9C671.5,93,671,93.5,670.4,93.5z M662.5,91.4h6.8v-6.8
		h-6.8V91.4z M654,93.5h-9c-0.6,0-1.1-0.5-1.1-1.1v-9c0-0.6,0.5-1.1,1.1-1.1h9c0.6,0,1.1,0.5,1.1,1.1v9C655,93,654.5,93.5,654,93.5z
		 M646.1,91.4h6.8v-6.8h-6.8V91.4z M628.6,51.7h-9c-0.6,0-1.1-0.5-1.1-1.1v-9c0-0.6,0.5-1.1,1.1-1.1h9c0.6,0,1.1,0.5,1.1,1.1v9
		C629.6,51.2,629.2,51.7,628.6,51.7z M620.7,49.5h6.8v-6.8h-6.8V49.5z M652.5,33.8h-9c-0.6,0-1.1-0.5-1.1-1.1v-9
		c0-0.6,0.5-1.1,1.1-1.1h9c0.6,0,1.1,0.5,1.1,1.1v9C653.5,33.3,653.1,33.8,652.5,33.8z M644.6,31.6h6.8v-6.8h-6.8V31.6z"/>
</g>
<g id="Layer_17">
	<path id="asset-management_00000075121410470116115590000010873336620062476162_" d="M408.3,154.6h-36.7c-0.6,0-1.1-0.5-1.1-1.1
		v-45.9c0-0.6,0.5-1.1,1.1-1.1h8.1v-8.1c0-0.6,0.5-1.1,1.1-1.1h36.7c0.6,0,1.1,0.5,1.1,1.1v45.9c0,0.6-0.5,1.1-1.1,1.1h-8.1v8.1
		C409.4,154.1,408.9,154.6,408.3,154.6z M372.6,152.4h34.5V121H396c-0.6,0-1.1-0.5-1.1-1.1v-11.1h-22.3V152.4z M409.4,143.3h7V99.5
		h-34.5v7H396c0.3,0,0.6,0.1,0.8,0.3l12.2,12.2c0.2,0.2,0.3,0.5,0.3,0.8V143.3z M397.1,118.8h8.5l-8.5-8.5V118.8z M402.2,142.4
		h-24.5v-2.2h24.5V142.4z M402.2,136.3h-24.5v-2.2h24.5V136.3z M402.2,130.1h-24.5v-2.2h24.5V130.1z"/>
</g>
<g id="Layer_18">
	<path id="asset-management_00000119092382510147424260000009044864592089414077_" d="M404.6,190.6l1.6-1.6l-3.1-3.1
		c-0.2-0.2-0.4-0.3-0.6-0.3l-22.4-2.8c-1.1-0.1-2.1-0.6-2.9-1.4l-18.7-18.7c-1.3-1.3-1.3-3.3,0-4.6c1.3-1.3,3.3-1.3,4.6,0l19,15.4
		c1.3,1.2,3.1,2,5,2h15.3v-2.2H387c-1.2,0-2.3-0.4-3.2-1.1l0,0l-0.4-0.3c-0.9-0.9-1.5-2.2-1.5-3.6c0-1.1,0.9-2,2-2h23.7v-2.2h-23.7
		c-2.3,0-4.2,1.9-4.2,4.2c0,0.2,0,0.4,0,0.6l-15.3-12.4c-2-2-5.5-2-7.6,0.1c-2.1,2.1-2.1,5.6,0,7.7l18.7,18.7
		c1.1,1.1,2.6,1.9,4.2,2.1l22,2.8L404.6,190.6z M432.1,190.6l1.6-1.6l-8.9-8.9c-0.7-9-8.1-15.9-17.2-15.9v2.2c8,0,14.6,6.3,15,14.2
		c0,0.3,0.1,0.5,0.3,0.7L432.1,190.6z"/>
</g>
</svg>
