<?xml version="1.0" encoding="utf-8"?>
<!-- Generator: Adobe Illustrator 27.0.1, SVG Export Plug-In . SVG Version: 6.00 Build 0)  -->
<svg version="1.1" xmlns="http://www.w3.org/2000/svg" xmlns:xlink="http://www.w3.org/1999/xlink" x="0px" y="0px"
	 viewBox="0 0 719.6 179.9" style="enable-background:new 0 0 719.6 179.9;" xml:space="preserve">
<style type="text/css">
	.st0{fill:#FFFFFF;stroke:#D02570;stroke-miterlimit:10;}
	.st1{fill:#D02570;stroke:#D02570;stroke-miterlimit:10;}
	.st2{display:none;fill:#3B8DCC;stroke:#3B8DCC;stroke-miterlimit:10;}
	.st3{fill:#FFFFFF;stroke:#3553A4;stroke-miterlimit:10;}
	.st4{fill:#4167B1;}
	.st5{fill:#FFFFFF;stroke:#007D7A;stroke-miterlimit:10;}
	.st6{fill:#007D7A;stroke:#007D7A;stroke-miterlimit:10;}
	.st7{fill:#FFFFFF;stroke:#1B8140;stroke-miterlimit:10;}
	.st8{fill:#1B8140;}
	.st9{fill:#FFFFFF;stroke:#725AA6;stroke-miterlimit:10;}
	.st10{fill:#725AA6;stroke:#725AA6;stroke-miterlimit:10;}
	.st11{display:none;fill:#725AA6;stroke:#725AA6;stroke-miterlimit:10;}
	.st12{fill:#D02570;}
	.st13{fill:none;stroke:#D02570;stroke-miterlimit:10;}
	.st14{fill:none;stroke:#4167B1;stroke-miterlimit:10;}
	.st15{fill:none;stroke:#1B8140;stroke-miterlimit:10;}
	.st16{fill:none;stroke:#725AA6;stroke-miterlimit:10;}
	.st17{fill:#725AA6;}
	.st18{fill:#007D7A;}
	.st19{font-family:'IBMPlexSans';}
	.st20{font-size:10.8682px;}
	.st21{fill:#3553A4;}
</style>
<g id="Layer_1">
	<path class="st0" d="M100.3,134.5H32.7c-8.1,0-14.7-6.6-14.7-14.7V52.1c0-8.1,6.6-14.7,14.7-14.7h67.6c8.1,0,14.7,6.6,14.7,14.7
		v67.6C115,127.9,108.5,134.5,100.3,134.5z"/>
	<polygon class="st1" points="85.7,107.5 82.3,107.5 82.3,104 80,104 80,107.5 76.6,107.5 76.6,109.8 80,109.8 80,113.2 82.3,113.2 
		82.3,109.8 85.7,109.8 	"/>
	<path class="st2" d="M87.6,116.7c-5.8,0-10.6-4.8-10.6-10.8c0-5.9,4.8-10.8,10.6-10.8c5.8,0,10.6,4.8,10.6,10.8
		C98.2,111.9,93.4,116.7,87.6,116.7z M87.7,98.4c-4.2,0-7.6,3.4-7.6,7.6s3.4,7.6,7.6,7.6s7.6-3.4,7.6-7.6S91.9,98.4,87.7,98.4z"/>
	<rect x="54.4" y="87.8" class="st1" width="3.3" height="3.3"/>
	<rect x="54.4" y="96.1" class="st1" width="3.3" height="3.3"/>
	<rect x="54.4" y="104.5" class="st1" width="3.3" height="3.3"/>
	<rect x="61.1" y="87.8" class="st1" width="13.3" height="3.3"/>
	<rect x="61.1" y="96.1" class="st1" width="13.3" height="3.3"/>
	<rect x="61.1" y="104.5" class="st1" width="6.7" height="3.3"/>
	<path class="st1" d="M49.4,112.8v-35h5v5h20v-5h5v18.3h3.3V77.8c0-1.8-1.5-3.3-3.3-3.3h-5v-1.7c0-1.8-1.5-3.3-3.3-3.3H57.7
		c-1.8,0-3.3,1.5-3.3,3.3v1.7h-5c-1.8,0-3.3,1.5-3.3,3.3v35c0,1.8,1.5,3.3,3.3,3.3h18.3v-3.3H49.4z M57.4,71.8h14.1v8.7H57.4V71.8z"
		/>
	<path class="st3" d="M247.3,134.5h-67.6c-8.1,0-14.7-6.6-14.7-14.7V52.1c0-8.1,6.6-14.7,14.7-14.7h67.6c8.1,0,14.7,6.6,14.7,14.7
		v67.6C261.9,127.9,255.4,134.5,247.3,134.5z"/>
	<g>
		<rect x="202.7" y="85.2" class="st4" width="3.3" height="3.3"/>
		<rect x="202.7" y="93.6" class="st4" width="3.3" height="3.3"/>
		<rect x="202.7" y="101.9" class="st4" width="3.3" height="3.3"/>
		<rect x="209.4" y="85.2" class="st4" width="13.3" height="3.3"/>
		<rect x="209.4" y="93.6" class="st4" width="13.3" height="3.3"/>
		<rect x="209.4" y="101.9" class="st4" width="6.7" height="3.3"/>
		<path class="st4" d="M197.7,110.2v-35h5v5h20v-5h5v18.3h3.3V75.2c0-1.8-1.5-3.3-3.3-3.3h-5v-1.7c0-1.8-1.5-3.3-3.3-3.3H206
			c-1.8,0-3.3,1.5-3.3,3.3v1.7h-5c-1.8,0-3.3,1.5-3.3,3.3v35c0,1.8,1.5,3.3,3.3,3.3H216v-3.3H197.7z M206,70.2h13.3v6.7H206V70.2z"
			/>
		<path class="st4" d="M237.4,99.9c0.7-0.7,0.7-1.8,0-2.5l0,0l-3.3-3.3c-0.7-0.7-1.8-0.7-2.5,0l0,0L218,107.7v5.8h5.8L237.4,99.9z
			 M232.9,95.4l3.3,3.3l-2.7,2.7l-3.3-3.3L232.9,95.4z M219.8,111.7v-3.3l9.1-9.1l3.3,3.3l-9.1,9.1H219.8z"/>
	</g>
	<path class="st5" d="M688,134.5h-67.6c-8.1,0-14.7-6.6-14.7-14.7V52.1c0-8.1,6.6-14.7,14.7-14.7H688c8.1,0,14.7,6.6,14.7,14.7v67.6
		C702.7,127.9,696.1,134.5,688,134.5z"/>
	<g>
		<g>
			<path class="st6" d="M678.4,111.9c-1.3,0-2.6,0.6-3.5,1.7l-6.5-4.1c0.2-0.8,0.2-1.6,0-2.3l6.5-4.1c1.5,1.9,4.3,2.2,6.2,0.7
				s2.2-4.3,0.7-6.2c-1.5-1.9-4.3-2.2-6.2-0.7c-1.1,0.8-1.7,2.1-1.7,3.5c0,0.4,0.1,0.8,0.2,1.2l-6.5,4.1c-1.5-1.9-4.3-2.2-6.2-0.7
				s-2.2,4.3-0.7,6.2c1.5,1.9,4.3,2.2,6.2,0.7c0.3-0.2,0.5-0.5,0.7-0.7l6.5,4.1c-0.1,0.4-0.2,0.8-0.2,1.2c0,2.5,2,4.4,4.4,4.4
				c2.5,0,4.4-2,4.4-4.4S680.8,111.9,678.4,111.9z M678.4,97.7c1.5,0,2.7,1.2,2.7,2.7c0,1.5-1.2,2.7-2.7,2.7c-1.5,0-2.7-1.2-2.7-2.7
				C675.7,98.9,676.9,97.7,678.4,97.7z M664.2,111c-1.5,0-2.7-1.2-2.7-2.7c0-1.5,1.2-2.7,2.7-2.7s2.7,1.2,2.7,2.7
				C666.8,109.8,665.6,111,664.2,111z M678.4,119c-1.5,0-2.7-1.2-2.7-2.7c0-1.5,1.2-2.7,2.7-2.7c1.5,0,2.7,1.2,2.7,2.7
				C681,117.8,679.8,119,678.4,119z"/>
		</g>
		<path class="st6" d="M637.9,112.8v-35h5v5h20v-5h5v18.3h3.3V77.8c0-1.8-1.5-3.3-3.3-3.3h-5v-1.7c0-1.8-1.5-3.3-3.3-3.3h-13.3
			c-1.8,0-3.3,1.5-3.3,3.3v1.7h-5c-1.8,0-3.3,1.5-3.3,3.3v35c0,1.8,1.5,3.3,3.3,3.3h18.3v-3.3H637.9z M645.7,71.8h14.9v7.6h-14.9
			V71.8z"/>
		<rect x="642.9" y="85.9" class="st6" width="3.3" height="3.3"/>
		<rect x="642.9" y="102.6" class="st6" width="3.3" height="3.3"/>
		<rect x="649.6" y="85.9" class="st6" width="13.3" height="3.3"/>
		<rect x="649.6" y="94.2" class="st6" width="13.3" height="3.3"/>
		<rect x="649.6" y="102.6" class="st6" width="6.7" height="3.3"/>
		<rect x="642.9" y="94.2" class="st6" width="3.3" height="3.3"/>
	</g>
	<path class="st7" d="M394.2,134.5h-67.6c-8.1,0-14.7-6.6-14.7-14.7V52.1c0-8.1,6.6-14.7,14.7-14.7h67.6c8.1,0,14.7,6.6,14.7,14.7
		v67.6C408.8,127.9,402.3,134.5,394.2,134.5z"/>
	<path class="st8" d="M343.4,112.8v-35h5v5h20v-5h5v18.3h3.3V77.8c0-1.8-1.5-3.3-3.3-3.3h-5v-1.7c0-1.8-1.5-3.3-3.3-3.3h-13.3
		c-1.8,0-3.3,1.5-3.3,3.3v1.7h-5c-1.8,0-3.3,1.5-3.3,3.3v35c0,1.8,1.5,3.3,3.3,3.3h18.3v-3.3H343.4z M351.7,72.8h13.3v6.7h-13.3
		V72.8z"/>
	<g>
		<polygon class="st8" points="362.2,90.9 363.8,89.3 368.1,93.6 363.8,97.9 362.2,96.4 365,93.6 		"/>
		<polygon class="st8" points="357.8,99 355.8,98.4 358.9,88.3 361,88.9 		"/>
		<polygon class="st8" points="354.5,96.4 353,97.9 348.7,93.6 353,89.3 354.5,90.9 351.8,93.6 		"/>
	</g>
	<polygon class="st8" points="370.7,111.2 367.4,108 368.4,107.1 370.7,109.4 375.7,104.5 376.6,105.4 	"/>
	<g>
		<path class="st8" d="M372.1,98.9c-4.7,0-8.6,3.8-8.6,8.6s3.8,8.6,8.6,8.6c4.7,0,8.6-3.8,8.6-8.6S376.8,98.9,372.1,98.9z
			 M372.1,114.4c-3.8,0-7-3.1-7-7c0-3.8,3.1-7,7-7c3.8,0,7,3.1,7,7C379,111.3,375.9,114.4,372.1,114.4z"/>
		<polygon class="st8" points="370.7,111.2 367.4,108 368.4,107.1 370.7,109.4 375.7,104.5 376.6,105.4 		"/>
		<path class="st8" d="M372.1,98.9c-4.7,0-8.6,3.8-8.6,8.6s3.8,8.6,8.6,8.6c4.7,0,8.6-3.8,8.6-8.6S376.8,98.9,372.1,98.9z
			 M372.1,114.4c-3.8,0-7-3.1-7-7c0-3.8,3.1-7,7-7c3.8,0,7,3.1,7,7C379,111.3,375.9,114.4,372.1,114.4z"/>
	</g>
	<path class="st9" d="M541.1,134.5h-67.6c-8.1,0-14.7-6.6-14.7-14.7V52.1c0-8.1,6.6-14.7,14.7-14.7h67.6c8.1,0,14.7,6.6,14.7,14.7
		v67.6C555.8,127.9,549.2,134.5,541.1,134.5z"/>
	<g>
		<path id="_x3C_Path_x3E__00000037682609387079723050000003322790987472436636_" class="st10" d="M499.1,99.9v3.8
			c0,1-0.6,2-1.5,2.4l-1.1,0.6l-1.1-0.6c-0.9-0.4-1.5-1.4-1.5-2.4v-3.8H499.1 M499.9,99h-7v4.7c0,1.4,0.8,2.7,2,3.3l1.5,0.8l1.5-0.8
			c1.2-0.6,2-1.9,2-3.3V99L499.9,99z"/>
		<path class="st10" d="M498.7,91.9c0-1.7-1.4-1.9-2.6-2.1c-1.2-0.2-1.9-0.3-1.9-1.4c0-0.9,0.9-1.2,1.7-1.2c0.8,0,1.6,0.3,2.1,1
			l0.6-0.5c-0.5-0.7-1.3-1.1-2.2-1.2v-1.2h-0.8v1.1c-1.4,0.1-2.3,0.8-2.3,2c0,1.8,1.4,2,2.6,2.1c1.2,0.2,1.9,0.3,1.9,1.3
			c0,1.1-1.2,1.3-1.9,1.3c-1.3,0-1.8-0.4-2.3-1l-0.6,0.5c0.6,0.8,1.5,1.3,2.5,1.3v1.1h0.8V94C497.9,93.9,498.7,93.1,498.7,91.9z"/>
		<rect x="503.4" y="102.5" class="st10" width="4.8" height="1.8"/>
		<rect x="503.4" y="89.3" class="st10" width="12.7" height="1.8"/>
		<path class="st10" d="M489.5,112.6v-35h5v5h20v-5h5v18.3h3.3V77.6c0-1.8-1.5-3.3-3.3-3.3h-5v-1.7c0-1.8-1.5-3.3-3.3-3.3h-13.3
			c-1.8,0-3.3,1.5-3.3,3.3v1.7h-5c-1.8,0-3.3,1.5-3.3,3.3v35c0,1.8,1.5,3.3,3.3,3.3h18.3v-3.3H489.5z M497.1,71.8h14.8v7.6h-14.8
			V71.8z"/>
		<polygon class="st11" points="518.4,111.4 515.1,108.2 516.1,107.3 518.4,109.6 523.4,104.7 524.3,105.6 		"/>
		<path class="st11" d="M519.8,99.1c-4.7,0-8.6,3.8-8.6,8.6s3.8,8.6,8.6,8.6s8.6-3.8,8.6-8.6S524.5,99.1,519.8,99.1z M519.8,114.6
			c-3.8,0-7-3.1-7-7c0-3.8,3.1-7,7-7s7,3.1,7,7C526.7,111.5,523.6,114.6,519.8,114.6z"/>
	</g>
	<g>
		<g>
			<line class="st13" x1="115" y1="86" x2="152.2" y2="86"/>
			<g>
				<polygon class="st12" points="150.7,90.9 159.4,86 150.7,81 				"/>
			</g>
		</g>
	</g>
	<g>
		<g>
			<line class="st14" x1="261.9" y1="86" x2="299.1" y2="86"/>
			<g>
				<polygon class="st4" points="297.6,90.9 306.3,86 297.6,81 				"/>
			</g>
		</g>
	</g>
	<g>
		<g>
			<line class="st15" x1="408.8" y1="86" x2="446" y2="86"/>
			<g>
				<polygon class="st8" points="444.5,90.9 453.2,86 444.5,81 				"/>
			</g>
		</g>
	</g>
	<g>
		<g>
			<line class="st16" x1="555.8" y1="86" x2="592.9" y2="86"/>
			<g>
				<polygon class="st17" points="591.5,90.9 600.1,86 591.5,81 				"/>
			</g>
		</g>
	</g>
	<g>
		<path class="st17" d="M519.8,99.4c-4.7,0-8.6,3.8-8.6,8.6s3.8,8.6,8.6,8.6s8.6-3.8,8.6-8.6S524.5,99.4,519.8,99.4z M519.8,114.8
			c-3.8,0-7-3.1-7-7c0-3.8,3.1-7,7-7s7,3.1,7,7C526.7,111.7,523.6,114.8,519.8,114.8z"/>
		<polygon class="st17" points="518.4,111.6 515.1,108.4 516.1,107.5 518.4,109.8 523.4,104.9 524.3,105.8 		"/>
		<path class="st17" d="M519.8,99.4c-4.7,0-8.6,3.8-8.6,8.6s3.8,8.6,8.6,8.6s8.6-3.8,8.6-8.6S524.5,99.4,519.8,99.4z M519.8,114.8
			c-3.8,0-7-3.1-7-7c0-3.8,3.1-7,7-7s7,3.1,7,7C526.7,111.7,523.6,114.8,519.8,114.8z"/>
	</g>
	<path class="st12" d="M81.1,100c-4.7,0-8.6,3.8-8.6,8.6c0,4.7,3.8,8.6,8.6,8.6s8.6-3.8,8.6-8.6C89.7,103.9,85.9,100,81.1,100z
		 M81.2,115.5c-3.8,0-7-3.1-7-7c0-3.8,3.1-7,7-7s7,3.1,7,7C88.1,112.4,85,115.5,81.2,115.5z"/>
</g>
<g id="Layer_2">
	<text transform="matrix(1 0 0 1 640.0737 61.2678)" class="st18 st19 st20">Share</text>
</g>
<g id="Layer_3">
	<text transform="matrix(1 0 0 1 203.9086 58.3068)" class="st21 st19 st20">Edit</text>
</g>
<g id="Layer_4">
	<text transform="matrix(1 0 0 1 489.7621 61.2678)" class="st17 st19 st20">Review</text>
</g>
<g id="Layer_5">
	<text transform="matrix(1 0 0 1 56.7436 58.1764)" class="st12 st19 st20">Add</text>
</g>
<g id="Layer_6">
	<text transform="matrix(1 0 0 1 340.5434 61.1374)" class="st8 st19 st20">Validate</text>
</g>
</svg>
