<?xml version="1.0" encoding="utf-8"?>
<!-- Generator: Adobe Illustrator 27.0.1, SVG Export Plug-In . SVG Version: 6.00 Build 0)  -->
<svg version="1.1" xmlns="http://www.w3.org/2000/svg" xmlns:xlink="http://www.w3.org/1999/xlink" x="0px" y="0px"
	 viewBox="0 0 792 198" style="enable-background:new 0 0 792 198;" xml:space="preserve">
<style type="text/css">
	.st0{fill:#FFFFFF;stroke:#D02570;stroke-miterlimit:10;}
	.st1{fill:#D02570;stroke:#D02570;stroke-miterlimit:10;}
	.st2{display:none;fill:#3B8DCC;stroke:#3B8DCC;stroke-miterlimit:10;}
	.st3{fill:#FFFFFF;stroke:#3553A4;stroke-miterlimit:10;}
	.st4{fill:#4167B1;}
	.st5{fill:#FFFFFF;stroke:#007D7A;stroke-miterlimit:10;}
	.st6{fill:#007D7A;stroke:#007D7A;stroke-miterlimit:10;}
	.st7{fill:#FFFFFF;stroke:#1B8140;stroke-miterlimit:10;}
	.st8{fill:#1B8140;}
	.st9{fill:#FFFFFF;stroke:#725AA6;stroke-miterlimit:10;}
	.st10{fill:#725AA6;stroke:#725AA6;stroke-miterlimit:10;}
	.st11{display:none;fill:#725AA6;stroke:#725AA6;stroke-miterlimit:10;}
	.st12{fill:none;stroke:#000000;stroke-miterlimit:10;}
	.st13{fill:#725AA6;}
	.st14{fill:#D02570;}
	.st15{fill:#007D7A;}
	.st16{font-family:'IBMPlexSans';}
	.st17{font-size:12px;}
	.st18{fill:#3553A4;}
</style>
<g id="Layer_1">
	<path class="st0" d="M110.5,152.5H32.7c-8.1,0-14.7-6.6-14.7-14.7V60.1c0-8.1,6.6-14.7,14.7-14.7h77.7c8.1,0,14.7,6.6,14.7,14.7
		v77.7C125.1,146,118.6,152.5,110.5,152.5z"/>
	<polygon class="st1" points="92.8,122.8 89,122.8 89,119 86.5,119 86.5,122.8 82.7,122.8 82.7,125.3 86.5,125.3 86.5,129.1 
		89,129.1 89,125.3 92.8,125.3 	"/>
	<path class="st2" d="M87.6,134.8c-5.8,0-10.6-4.8-10.6-10.8s4.8-10.8,10.6-10.8c5.8,0,10.6,4.8,10.6,10.8S93.4,134.8,87.6,134.8z
		 M87.7,116.4c-4.2,0-7.6,3.4-7.6,7.6c0,4.2,3.4,7.6,7.6,7.6s7.6-3.4,7.6-7.6C95.3,119.9,91.9,116.4,87.7,116.4z"/>
	<rect x="58.2" y="101" class="st1" width="3.7" height="3.7"/>
	<rect x="58.2" y="110.2" class="st1" width="3.7" height="3.7"/>
	<rect x="58.2" y="119.4" class="st1" width="3.7" height="3.7"/>
	<rect x="65.6" y="101" class="st1" width="14.7" height="3.7"/>
	<rect x="65.6" y="110.2" class="st1" width="14.7" height="3.7"/>
	<rect x="65.6" y="119.4" class="st1" width="7.4" height="3.7"/>
	<path class="st1" d="M52.7,128.6V90h5.5v5.5h22.1V90h5.5v20.2h3.7V90c0-2-1.6-3.7-3.7-3.7h-5.5v-1.8c0-2-1.6-3.7-3.7-3.7H61.9
		c-2,0-3.7,1.6-3.7,3.7v1.8h-5.5c-2,0-3.7,1.6-3.7,3.7v38.7c0,2,1.6,3.7,3.7,3.7h20.2v-3.7H52.7z M61.5,83.3H77v9.6H61.5V83.3z"/>
	<path class="st3" d="M272.7,152.5h-77.7c-8.1,0-14.7-6.6-14.7-14.7V60.1c0-8.1,6.6-14.7,14.7-14.7h77.7c8.1,0,14.7,6.6,14.7,14.7
		v77.7C287.3,146,280.8,152.5,272.7,152.5z"/>
	<g>
		<rect x="221.9" y="98.2" class="st4" width="3.7" height="3.7"/>
		<rect x="221.9" y="107.4" class="st4" width="3.7" height="3.7"/>
		<rect x="221.9" y="116.6" class="st4" width="3.7" height="3.7"/>
		<rect x="229.3" y="98.2" class="st4" width="14.7" height="3.7"/>
		<rect x="229.3" y="107.4" class="st4" width="14.7" height="3.7"/>
		<rect x="229.3" y="116.6" class="st4" width="7.4" height="3.7"/>
		<path class="st4" d="M216.4,125.8V87.1h5.5v5.5H244v-5.5h5.5v20.2h3.7V87.1c0-2-1.6-3.7-3.7-3.7H244v-1.8c0-2-1.6-3.7-3.7-3.7
			h-14.7c-2,0-3.7,1.6-3.7,3.7v1.8h-5.5c-2,0-3.7,1.6-3.7,3.7v38.7c0,2,1.6,3.7,3.7,3.7h20.2v-3.7H216.4z M225.6,81.6h14.7V89h-14.7
			V81.6z"/>
		<path class="st4" d="M260.3,114.4c0.8-0.8,0.8-2,0-2.8l0,0l-3.6-3.6c-0.8-0.8-2-0.8-2.8,0l0,0l-15,15v6.4h6.4L260.3,114.4z
			 M255.3,109.4l3.6,3.6l-3,3l-3.6-3.6L255.3,109.4z M240.9,127.4v-3.6l10-10l3.6,3.6l-10,10H240.9z"/>
	</g>
	<path class="st5" d="M759.3,152.5h-77.7c-8.1,0-14.7-6.6-14.7-14.7V60.1c0-8.1,6.6-14.7,14.7-14.7h77.7c8.1,0,14.7,6.6,14.7,14.7
		v77.7C774,146,767.4,152.5,759.3,152.5z"/>
	<g>
		<g>
			<path class="st6" d="M747.1,127.6c-1.5,0-2.9,0.7-3.8,1.9l-7.2-4.5c0.3-0.8,0.3-1.7,0-2.6l7.2-4.5c1.7,2.1,4.8,2.4,6.9,0.7
				s2.4-4.8,0.7-6.9c-1.7-2.1-4.8-2.4-6.9-0.7c-1.2,0.9-1.8,2.4-1.8,3.8c0,0.4,0.1,0.9,0.2,1.3l-7.2,4.5c-1.7-2.1-4.8-2.5-6.9-0.8
				c-2.1,1.7-2.5,4.8-0.8,6.9c1.7,2.1,4.8,2.5,6.9,0.8c0.3-0.2,0.6-0.5,0.8-0.8l7.2,4.5c-0.1,0.4-0.2,0.9-0.2,1.3
				c0,2.7,2.2,4.9,4.9,4.9s4.9-2.2,4.9-4.9S749.9,127.6,747.1,127.6z M747.1,112c1.6,0,2.9,1.3,2.9,2.9s-1.3,2.9-2.9,2.9
				s-2.9-1.3-2.9-2.9S745.5,112,747.1,112z M731.4,126.7c-1.6,0-2.9-1.3-2.9-2.9s1.3-2.9,2.9-2.9s2.9,1.3,2.9,2.9
				S733.1,126.7,731.4,126.7z M747.1,135.5c-1.6,0-2.9-1.3-2.9-2.9s1.3-2.9,2.9-2.9s2.9,1.3,2.9,2.9S748.8,135.5,747.1,135.5z"/>
		</g>
		<path class="st6" d="M702.5,128.6V90h5.5v5.5h22.1V90h5.5v20.2h3.7V90c0-2-1.6-3.7-3.7-3.7h-5.5v-1.8c0-2-1.6-3.7-3.7-3.7h-14.7
			c-2,0-3.7,1.6-3.7,3.7v1.8h-5.5c-2,0-3.7,1.6-3.7,3.7v38.7c0,2,1.6,3.7,3.7,3.7h20.2v-3.7H702.5z M711,83.4h16.4v8.4H711V83.4z"/>
		<rect x="708" y="98.9" class="st6" width="3.7" height="3.7"/>
		<rect x="708" y="117.3" class="st6" width="3.7" height="3.7"/>
		<rect x="715.4" y="98.9" class="st6" width="14.7" height="3.7"/>
		<rect x="715.4" y="108.1" class="st6" width="14.7" height="3.7"/>
		<rect x="715.4" y="117.3" class="st6" width="7.4" height="3.7"/>
		<rect x="708" y="108.1" class="st6" width="3.7" height="3.7"/>
	</g>
	<path class="st7" d="M434.9,152.5h-77.7c-8.1,0-14.7-6.6-14.7-14.7V60.1c0-8.1,6.6-14.7,14.7-14.7h77.7c8.1,0,14.7,6.6,14.7,14.7
		v77.7C449.5,146,443,152.5,434.9,152.5z"/>
	<path class="st8" d="M377.3,128.6V90h5.5v5.5h22.1V90h5.5v20.2h3.7V90c0-2-1.6-3.7-3.7-3.7h-5.5v-1.8c0-2-1.6-3.7-3.7-3.7h-14.7
		c-2,0-3.7,1.6-3.7,3.7v1.8h-5.5c-2,0-3.7,1.6-3.7,3.7v38.7c0,2,1.6,3.7,3.7,3.7h20.2v-3.7H377.3z M386.5,84.5h14.7v7.4h-14.7V84.5z
		"/>
	<g>
		<polygon class="st8" points="398.1,104.4 399.8,102.7 404.5,107.5 399.8,112.2 398.1,110.5 401.1,107.5 		"/>
		<polygon class="st8" points="393.2,113.4 391,112.7 394.4,101.5 396.7,102.2 		"/>
		<polygon class="st8" points="389.6,110.6 387.9,112.2 383.1,107.5 387.9,102.7 389.6,104.4 386.5,107.5 		"/>
	</g>
	<polygon class="st8" points="407.4,126.9 403.8,123.3 404.8,122.3 407.4,124.9 412.9,119.4 414,120.4 	"/>
	<g>
		<path class="st8" d="M408.9,113.3c-5.2,0-9.5,4.3-9.5,9.5c0,5.2,4.3,9.5,9.5,9.5c5.2,0,9.5-4.3,9.5-9.5
			C418.4,117.6,414.2,113.3,408.9,113.3z M408.9,130.4c-4.2,0-7.7-3.4-7.7-7.7c0-4.2,3.4-7.7,7.7-7.7c4.2,0,7.7,3.4,7.7,7.7
			C416.6,127,413.2,130.4,408.9,130.4z"/>
		<polygon class="st8" points="407.4,126.9 403.8,123.3 404.8,122.3 407.4,124.9 412.9,119.4 414,120.4 		"/>
		<path class="st8" d="M408.9,113.3c-5.2,0-9.5,4.3-9.5,9.5c0,5.2,4.3,9.5,9.5,9.5c5.2,0,9.5-4.3,9.5-9.5
			C418.4,117.6,414.2,113.3,408.9,113.3z M408.9,130.4c-4.2,0-7.7-3.4-7.7-7.7c0-4.2,3.4-7.7,7.7-7.7c4.2,0,7.7,3.4,7.7,7.7
			C416.6,127,413.2,130.4,408.9,130.4z"/>
	</g>
	<path class="st9" d="M597.1,152.5h-77.7c-8.1,0-14.7-6.6-14.7-14.7V60.1c0-8.1,6.6-14.7,14.7-14.7h77.7c8.1,0,14.7,6.6,14.7,14.7
		v77.7C611.8,146,605.2,152.5,597.1,152.5z"/>
	<g>
		<path id="_x3C_Path_x3E__00000037682609387079723050000003322790987472436636_" class="st10" d="M549.2,114.4v4.2
			c0,1.2-0.6,2.2-1.7,2.7l-1.2,0.6l-1.2-0.6c-1-0.5-1.7-1.5-1.7-2.7v-4.2H549.2 M550.1,113.4h-7.7v5.2c0,1.5,0.8,3,2.2,3.7l1.7,0.8
			l1.7-0.8c1.4-0.7,2.2-2.1,2.2-3.7V113.4L550.1,113.4z"/>
		<path class="st10" d="M548.8,105.6c0-1.9-1.6-2.1-2.8-2.3c-1.4-0.2-2.1-0.4-2.1-1.5c0-1,1-1.3,1.9-1.3c0.9,0,1.8,0.4,2.3,1.1
			l0.6-0.5c-0.6-0.8-1.4-1.2-2.4-1.4v-1.3h-0.8v1.3c-1.5,0.1-2.5,0.9-2.5,2.2c0,2,1.6,2.2,2.9,2.4c1.3,0.2,2.1,0.3,2.1,1.5
			c0,1.3-1.3,1.4-2.1,1.4c-1.4,0-2-0.4-2.6-1.1l-0.6,0.5c0.7,0.9,1.7,1.4,2.8,1.4v1.3h0.8v-1.3C547.8,107.7,548.8,106.9,548.8,105.6
			z"/>
		<rect x="553.9" y="117.2" class="st10" width="5.3" height="2"/>
		<rect x="553.9" y="102.7" class="st10" width="14" height="2"/>
		<path class="st10" d="M538.6,128.4V89.7h5.5v5.5h22.1v-5.5h5.5V110h3.7V89.7c0-2-1.6-3.7-3.7-3.7h-5.5v-1.8c0-2-1.6-3.7-3.7-3.7
			h-14.7c-2,0-3.7,1.6-3.7,3.7v1.8h-5.5c-2,0-3.7,1.6-3.7,3.7v38.7c0,2,1.6,3.7,3.7,3.7h20.2v-3.7H538.6z M547,83.4h16.3v8.4H547
			V83.4z"/>
		<polygon class="st11" points="570.5,127.1 566.9,123.5 567.9,122.5 570.5,125.1 576,119.7 577,120.7 		"/>
		<path class="st11" d="M572,113.6c-5.2,0-9.5,4.3-9.5,9.5c0,5.2,4.3,9.5,9.5,9.5s9.5-4.3,9.5-9.5
			C581.5,117.8,577.3,113.6,572,113.6z M572,130.7c-4.2,0-7.7-3.4-7.7-7.7c0-4.2,3.4-7.7,7.7-7.7c4.2,0,7.7,3.4,7.7,7.7
			C579.7,127.2,576.3,130.7,572,130.7z"/>
	</g>
	<g>
		<g>
			<line class="st12" x1="125.1" y1="99" x2="166.9" y2="99"/>
			<g>
				<polygon points="165.4,104 174.1,99 165.4,94 				"/>
			</g>
		</g>
	</g>
	<g>
		<g>
			<line class="st12" x1="287.3" y1="99" x2="329.1" y2="99"/>
			<g>
				<polygon points="327.6,104 336.3,99 327.6,94 				"/>
			</g>
		</g>
	</g>
	<g>
		<g>
			<line class="st12" x1="449.5" y1="99" x2="491.3" y2="99"/>
			<g>
				<polygon points="489.9,104 498.5,99 489.9,94 				"/>
			</g>
		</g>
	</g>
	<g>
		<g>
			<line class="st12" x1="611.8" y1="99" x2="653.5" y2="99"/>
			<g>
				<polygon points="652.1,104 660.7,99 652.1,94 				"/>
			</g>
		</g>
	</g>
	<g>
		<path class="st13" d="M572,113.8c-5.2,0-9.5,4.3-9.5,9.5s4.3,9.5,9.5,9.5s9.5-4.3,9.5-9.5S577.3,113.8,572,113.8z M572,130.9
			c-4.2,0-7.7-3.4-7.7-7.7c0-4.2,3.4-7.7,7.7-7.7c4.2,0,7.7,3.4,7.7,7.7C579.7,127.4,576.3,130.9,572,130.9z"/>
		<polygon class="st13" points="570.5,127.4 566.9,123.8 567.9,122.8 570.5,125.3 576,119.9 577,120.9 		"/>
		<path class="st13" d="M572,113.8c-5.2,0-9.5,4.3-9.5,9.5s4.3,9.5,9.5,9.5s9.5-4.3,9.5-9.5S577.3,113.8,572,113.8z M572,130.9
			c-4.2,0-7.7-3.4-7.7-7.7c0-4.2,3.4-7.7,7.7-7.7c4.2,0,7.7,3.4,7.7,7.7C579.7,127.4,576.3,130.9,572,130.9z"/>
	</g>
	<path class="st14" d="M87.7,114.5c-5.2,0-9.5,4.3-9.5,9.5c0,5.2,4.3,9.5,9.5,9.5s9.5-4.3,9.5-9.5C97.2,118.8,93,114.5,87.7,114.5z
		 M87.7,131.6c-4.2,0-7.7-3.4-7.7-7.7c0-4.2,3.4-7.7,7.7-7.7c4.2,0,7.7,3.4,7.7,7.7C95.4,128.2,92,131.6,87.7,131.6z"/>
</g>
<g id="Layer_2">
	<text transform="matrix(1 0 0 1 704.855 71.7389)" class="st15 st16 st17">Share</text>
</g>
<g id="Layer_3">
	<text transform="matrix(1 0 0 1 223.2667 68.4697)" class="st18 st16 st17">Edit</text>
</g>
<g id="Layer_4">
	<text transform="matrix(1 0 0 1 538.8895 71.739)" class="st13 st16 st17">Review</text>
</g>
<g id="Layer_5">
	<text transform="matrix(1 0 0 1 60.7753 68.3259)" class="st14 st16 st17">Add</text>
</g>
<g id="Layer_6">
	<text transform="matrix(1 0 0 1 374.1305 71.5948)" class="st8 st16 st17">Validate</text>
</g>
</svg>
