<?xml version="1.0" encoding="utf-8"?>
<!-- Generator: Adobe Illustrator 27.0.1, SVG Export Plug-In . SVG Version: 6.00 Build 0)  -->
<svg version="1.1" xmlns="http://www.w3.org/2000/svg" xmlns:xlink="http://www.w3.org/1999/xlink" x="0px" y="0px"
	 viewBox="0 0 500 335" style="enable-background:new 0 0 500 335;" xml:space="preserve">
<style type="text/css">
	.st0{display:none;}
	.st1{display:inline;}
	.st2{fill:none;stroke:#000000;stroke-miterlimit:10;}
	.st3{fill:none;}
	.st4{fill:none;stroke:#000000;stroke-miterlimit:10;stroke-dasharray:12.5769,12.5769;}
	.st5{fill:none;stroke:#000000;stroke-miterlimit:10;stroke-dasharray:12.2368,12.2368;}
	.st6{fill:none;stroke:#000000;stroke-miterlimit:10;stroke-dasharray:12.8846,12.8846;}
	.st7{font-family:'IBMPlexSans';}
	.st8{font-size:10px;}
	.st9{font-size:8px;}
	.st10{font-size:12px;}
</style>
<g id="Layer_1" class="st0">
	<path id="esg-reporting--02_00000113311988640431638930000018246981708470970260_" class="st1" d="M403.2,184.8c3.3,0,6-2.8,6-6.1
		c0-3.3-2.8-6-6.1-6c-3.3,0-6,2.8-6,6.1C397.1,182.1,399.8,184.8,403.2,184.8z M403.1,175c2,0,3.7,1.6,3.7,3.7c0,2-1.6,3.7-3.7,3.7
		c-2,0-3.7-1.6-3.7-3.7C399.4,176.7,401,175,403.1,175z M403,168.5c3.3,0,6-2.8,6-6.1c0-3.3-2.8-6-6.1-6c-3.3,0-6,2.8-6,6.1
		C397,165.8,399.7,168.5,403,168.5z M403,158.7c2,0,3.7,1.6,3.7,3.7c0,2-1.6,3.7-3.7,3.7s-3.7-1.6-3.7-3.7S400.9,158.8,403,158.7z
		 M402.9,152.2c3.3,0,6-2.8,6-6.1c0-3.3-2.8-6-6.1-6c-3.3,0-6,2.8-6,6.1C396.8,149.6,399.6,152.3,402.9,152.2z M402.8,142.5
		c2,0,3.7,1.6,3.7,3.7c0,2-1.6,3.7-3.7,3.7c-2,0-3.7-1.6-3.7-3.7C399.1,144.2,400.8,142.5,402.8,142.5z M327.2,152.4l-4.5-4.5
		l25.3-0.2l0.1,13.9l-15.5,0.1l4.5-4.5l-1.7-1.6l-7.3,7.4l7.4,7.3l1.6-1.7l-4.5-4.5l15.5-0.1l0.1,13.9l-25.3,0.2l4.5-4.5l-1.7-1.6
		l-7.3,7.4l7.4,7.3l1.6-1.7l-4.5-4.5l25.3-0.2l0.3,37.9c0,0.6,0.5,1.2,1.2,1.2l54.2-0.4l0.1,7.4l-66,0.5l-0.3-37.9l-2.3,0l0.3,39.1
		c0,0.6,0.5,1.2,1.2,1.2l68.4-0.5c0.6,0,1.2-0.5,1.2-1.2l-0.1-8.6l11.9-0.1c0.6,0,1.2-0.5,1.2-1.2l-0.7-87.9c0-0.6-0.5-1.2-1.2-1.2
		l-68.4,0.5c-0.6,0-1.2,0.5-1.2,1.2l0.1,15.1l-25.3,0.2l4.5-4.5l-1.7-1.6l-7.3,7.4l7.4,7.3L327.2,152.4z M350.2,131.5l66-0.5
		l0.6,85.6l-66,0.5l-0.3-36.7l41.2-0.3l0-2.3l-41.2,0.3l-0.1-13.9l41.2-0.3l0-2.3l-41.2,0.3l-0.1-13.9l41.2-0.3l0-2.3l-41.2,0.3
		L350.2,131.5z"/>
</g>
<g id="Layer_3">
	<g>
		<g>
			<line class="st2" x1="183.4" y1="219.5" x2="123.2" y2="219.1"/>
			<g>
				<polygon points="180.1,215.4 179.4,216.1 183,219.5 179.4,222.8 180.1,223.6 184.5,219.5 				"/>
			</g>
		</g>
	</g>
</g>
<g id="Layer_20" class="st0">
	<g id="folder_00000152954534310789279640000016209380565152727693_" class="st1">
		<path d="M371.2,119.2l16.7,16.6l2.8,2.9h60.8v78h-117v-97.5h39 M369.4,109.5h-34.9c-5.4,0-9.8,4.4-9.8,9.8v97.5
			c0,5.4,4.4,9.8,9.8,9.8h117c5.4,0,9.8-4.4,9.8-9.8v-78c0-5.4-4.4-9.8-9.8-9.8H393l-16.6-16.6C374.5,110.5,372,109.5,369.4,109.5z"
			/>
		
			<rect id="_Transparent_Rectangle__00000165222345938350779690000002596520446084529593_" x="315" y="90" class="st3" width="156" height="156"/>
	</g>
</g>
<g id="Layer_12">
	<g>
		<g>
			<polyline class="st2" points="192.5,295.5 192.5,301.5 186.5,301.5 			"/>
			<line class="st4" x1="173.9" y1="301.5" x2="29.3" y2="301.5"/>
			<polyline class="st2" points="23,301.5 17,301.5 17,295.5 			"/>
			<line class="st5" x1="17" y1="283.3" x2="17" y2="69.1"/>
			<polyline class="st2" points="17,63 17,57 23,57 			"/>
			<line class="st4" x1="35.6" y1="57" x2="180.2" y2="57"/>
			<polyline class="st2" points="186.5,57 192.5,57 192.5,63 			"/>
			<line class="st5" x1="192.5" y1="75.2" x2="192.5" y2="289.4"/>
		</g>
	</g>
	<g>
		<g>
			<polyline class="st2" points="481.2,296.2 481.2,302.2 475.2,302.2 			"/>
			<line class="st6" x1="462.3" y1="302.2" x2="314.2" y2="302.2"/>
			<polyline class="st2" points="307.7,302.2 301.7,302.2 301.7,296.2 			"/>
			<line class="st5" x1="301.7" y1="284" x2="301.7" y2="69.9"/>
			<polyline class="st2" points="301.7,63.7 301.7,57.7 307.7,57.7 			"/>
			<line class="st6" x1="320.6" y1="57.7" x2="468.8" y2="57.7"/>
			<polyline class="st2" points="475.2,57.7 481.2,57.7 481.2,63.7 			"/>
			<line class="st5" x1="481.2" y1="76" x2="481.2" y2="290.1"/>
		</g>
	</g>
</g>
<g id="Layer_4">
	<g id="sprout_00000145043802948180994800000015449111751136210605_">
		<path d="M95,84.1c-9.2,0-17.5,5.7-20.8,14.3c-2.7-3.8-7-6.1-11.7-6.1h-6.1v6.1c0,7.8,6.4,14.2,14.2,14.2h2v18.4
			c-4.7,0.5-9,2.5-12.3,5.8l2.9,2.9c6.3-6.3,16.6-6.3,23,0c0.8,0.8,1.4,1.6,2,2.5l3.4-2.3c-3.4-5-8.8-8.3-14.9-8.9v-18.4h2
			c12.3,0,22.3-10,22.3-22.3v-6.1H95z M60.5,98.3v-2h2c5.6,0,10.2,4.5,10.2,10.2v2h-2C65,108.4,60.5,103.9,60.5,98.3z M78.8,108.4
			h-2v-2c0-10.1,8.2-18.3,18.3-18.3h2v2C97.1,100.3,88.9,108.4,78.8,108.4z"/>
		
			<rect id="_Transparent_Rectangle__00000094579618714155876860000009047275010886198184_" x="44.2" y="80" class="st3" width="65" height="65"/>
	</g>
</g>
<g id="Layer_5">
	<g id="tree_00000174581157967214535930000009505026252283636152_">
		<path d="M65.5,283.4h-8.4v-5.6h8.4v-35l-9.9-5.9l2.9-4.8l9.9,5.9c1.7,1,2.7,2.8,2.7,4.8v35C71.1,280.9,68.6,283.4,65.5,283.4z"/>
		<path d="M93.6,283.4h-8.4c-3.1,0-5.6-2.5-5.6-5.6v-30.9l16.5,0c3,0,6-1,8.1-3.1c2.6-2.6,3.7-6,3.4-9.3
			c-0.8-5.9-5.9-10.3-11.8-10.1h-4.5l-0.5-2.2c-1.6-7.1-8.4-11.9-16.9-11.9c-6.6,0-12.5,3.8-15.3,9.8l-0.9,1.9l-2.4-0.3
			c-0.4-0.1-0.7-0.1-1.1-0.1c-6.2,0-11.2,5-11.2,11.2S48,244,54.2,244v5.6c-13.5,0-23.4-15.9-11.7-30.1c2.7-3.3,7-4.2,11.2-3.7
			c0.2,0,0.4,0,0.7,0c4-6.9,11.4-11.2,19.5-11.3c10.3,0,18.8,5.6,21.8,14.1h0.1c8.8-0.1,16.3,6.5,17.4,15.2
			c0.9,9.3-5.9,17.5-15.2,18.4c-0.5,0.1-1.1,0.1-1.6,0.1H85.2v25.3h8.4V283.4z"/>
		
			<rect id="_Transparent_Rectangle__00000126309076797674861340000012304165910759564214_" x="31.8" y="199" class="st3" width="90" height="90"/>
	</g>
</g>
<g id="Layer_6">
	<g>
		<g>
			<line class="st2" x1="75.5" y1="197.4" x2="75.5" y2="178.5"/>
			<g>
				<polygon points="79.6,194.1 78.9,193.4 75.5,197 72.1,193.4 71.4,194.1 75.5,198.5 				"/>
			</g>
		</g>
	</g>
</g>
<g id="Layer_7">
	<text transform="matrix(1.0007 0 0 1 49.3125 156.4653)"><tspan x="0" y="0" class="st7 st8">Side branch</tspan><tspan x="-25.5" y="12" class="st7 st8">merged to main branch</tspan></text>
</g>
<g id="Layer_8">
</g>
<g id="Layer_16">
	<line class="st2" x1="81.5" y1="26.5" x2="391.5" y2="26.5"/>
	<g>
		<g>
			<line class="st2" x1="81.5" y1="78.4" x2="81" y2="26"/>
			<g>
				<polygon points="85.6,75.1 84.8,74.4 81.5,78 78.1,74.4 77.4,75.1 81.5,79.5 				"/>
			</g>
		</g>
	</g>
	<line class="st2" x1="391.5" y1="52.5" x2="391" y2="26.7"/>
</g>
<g id="Layer_14">
	<text transform="matrix(1 0 0 1 126.6344 18.7811)" class="st7 st8">Changes from project committed to side branch</text>
</g>
<g id="Layer_10">
	<g>
		<g>
			<line class="st2" x1="277" y1="219.1" x2="216.8" y2="218.7"/>
			<g>
				<polygon points="273.8,215 273.1,215.7 276.7,219.1 273,222.5 273.7,223.2 278.1,219.1 				"/>
			</g>
		</g>
	</g>
</g>
<g id="Layer_17">
	<text transform="matrix(1 0 0 1 133.464 206.6331)" class="st7 st9">CD pipeline</text>
</g>
<g id="Layer_18">
	<text transform="matrix(1 0 0 1 201.0898 206.2664)" class="st7 st9">Triggers update in project </text>
</g>
<g id="Layer_11">
	<text transform="matrix(1 0 0 1 79.0816 321.0036)" class="st7 st10">Repository</text>
</g>
<g id="Layer_19">
	<g id="cloud_00000158735155694031283020000000770959647932245178_">
		<path d="M394.3,129.2L394.3,129.2c2.2,0,4.3,0.2,6.5,0.6c13.7,2.6,24.5,13.4,27.1,27.1l1.1,5.8l5.8,1
			c12.8,2.2,21.4,14.4,19.2,27.1c-2,11.4-11.9,19.7-23.4,19.5h-72.5c-13,0.2-23.6-10.2-23.8-23.2c-0.1-11.5,8.1-21.5,19.5-23.4
			l5.7-1l1.1-5.8C363.6,140.8,377.8,129.1,394.3,129.2 M394.3,120.6c-20.5,0-38.1,14.5-42,34.7c-17.4,3.2-29,19.8-25.8,37.2
			c2.8,15.2,16,26.3,31.5,26.3h72.6c17.7,0,32-14.4,32-32.1c0-15.5-11.1-28.7-26.3-31.5c-3.3-17.2-16.7-30.6-33.9-33.9
			C399.6,120.9,396.9,120.7,394.3,120.6z"/>
	</g>
</g>
<g id="Layer_13">
	<text transform="matrix(1 0 0 1 343.4266 320.9294)" class="st7 st10">IBM Cloud project</text>
</g>
</svg>
