<?xml version="1.0" encoding="UTF-8"?>
<svg xmlns="http://www.w3.org/2000/svg" width="580" height="435" viewBox="0 0 580 435">
  <defs>
    <style>
      .cls-1 {
        letter-spacing: -.01em;
      }

      .cls-2, .cls-3, .cls-4, .cls-5 {
        fill: #001d6c;
      }

      .cls-2, .cls-3, .cls-5 {
        font-size: 12px;
      }

      .cls-2, .cls-6 {
        font-family: IBMPlexSans-SemiBold, 'IBM Plex Sans';
        font-weight: 600;
      }

      .cls-3 {
        font-family: IBMPlexSans-LightItalic, 'IBM Plex Sans';
        font-style: italic;
        font-weight: 300;
      }

      .cls-7 {
        letter-spacing: -.005em;
      }

      .cls-6 {
        font-size: 14px;
      }

      .cls-6, .cls-8, .cls-9, .cls-10 {
        fill: #fff;
      }

      .cls-11 {
        letter-spacing: -.0059em;
      }

      .cls-12 {
        fill: #f6f2ff;
      }

      .cls-13 {
        fill: #edf5ff;
      }

      .cls-14 {
        letter-spacing: -.034em;
      }

      .cls-15 {
        letter-spacing: -.015em;
      }

      .cls-9 {
        stroke-width: .5px;
      }

      .cls-9, .cls-10 {
        stroke: #001d6c;
        stroke-miterlimit: 10;
      }

      .cls-16 {
        letter-spacing: 0em;
      }

      .cls-17 {
        letter-spacing: 0em;
      }

      .cls-18 {
        letter-spacing: 0em;
      }

      .cls-19 {
        letter-spacing: -.004em;
      }

      .cls-20 {
        letter-spacing: -.007em;
      }

      .cls-21 {
        letter-spacing: -.008em;
      }

      .cls-22 {
        letter-spacing: -.011em;
      }

      .cls-23 {
        letter-spacing: -.022em;
      }

      .cls-24 {
        letter-spacing: -.0081em;
      }

      .cls-25 {
        letter-spacing: -.004em;
      }

      .cls-26 {
        letter-spacing: -.005em;
      }

      .cls-10 {
        stroke-dasharray: 0 3;
      }

      .cls-5 {
        font-family: IBMPlexSans-Text, 'IBM Plex Sans';
      }
    </style>
  </defs>
  <g id="Graphics">
    <path class="cls-4" d="M17.6075,79.9573V19.1717c0-4.742,3.7276-8.5861,8.3259-8.5861H172.2692c4.5983,0,8.3259,3.8441,8.3259,8.5861v46.9318l.0121-1.9226h375.1892c4.5983,0,8.3259,3.8441,8.3259,8.5861V415.2632c0,4.742-3.7276,8.5861-8.3259,8.5861H25.875c-4.5983,0-8.3259-3.8441-8.3259-8.5861V72.767"/>
    <line class="cls-8" x1="544.9612" y1="149.0986" x2="544.9612" y2="140.2346"/>
    <rect class="cls-8" x="213.4442" y="80.7526" width="153.8009" height="45.0067" rx="5.8238" ry="5.8238"/>
    <rect class="cls-8" x="34.5321" y="80.7526" width="153.8009" height="45.0067" rx="5.8238" ry="5.8238"/>
    <path class="cls-8" d="M392.3564,144.9678v-57.5137c0-3.7011,2.6074-6.7015,5.8238-6.7015h142.1532c3.2164,0,5.8238,3.0004,5.8238,6.7015v60.0164l-.01-4.0054V400.9805c0,3.5654-3.4892,6.4557-7.7934,6.4557H42.3255c-4.3042,0-7.7934-2.8903-7.7934-6.4557V143.4652c0-3.5654,3.4892-6.4557,7.7934-6.4557H393.5181"/>
    <g>
      <rect class="cls-8" x="42.5804" y="32.344" width="2" height="4"/>
      <rect class="cls-8" x="42.5804" y="38.344" width="2" height="4"/>
      <rect class="cls-8" x="48.5804" y="32.344" width="2" height="4"/>
      <rect class="cls-8" x="48.5804" y="38.344" width="2" height="4"/>
      <rect class="cls-8" x="42.5804" y="44.344" width="2" height="4"/>
      <rect class="cls-8" x="48.5804" y="44.344" width="2" height="4"/>
      <path class="cls-8" d="M64.5804,38.344c0-1.1046-.8954-2-2-2h-6v-8c0-1.1046-.8954-2-2-2h-16c-1.1046,0-2,.8954-2,2v26h28v-16Zm-26-10h16v24h-16V28.344Zm18,24v-14h6v14h-6Z"/>
    </g>
    <rect class="cls-13" x="42.4134" y="147.0283" width="492.6936" height="147.5242" rx="12.7409" ry="12.7409"/>
    <rect class="cls-13" x="42.4134" y="303.7684" width="241.6778" height="94.2893" rx="12.7409" ry="12.7409"/>
    <rect class="cls-13" x="293.4292" y="303.3378" width="241.6778" height="94.7199" rx="12.7409" ry="12.7409"/>
    <rect class="cls-8" x="49.2944" y="173.2317" width="479.2131" height="111.9159" rx="8.5505" ry="8.5505"/>
    <rect class="cls-12" x="57.867" y="199.0078" width="227.1499" height="73.7943" rx="8.8136" ry="8.8136"/>
    <rect class="cls-10" x="63.6438" y="228.2992" width="103.8553" height="31.7436" rx="7.819" ry="7.819"/>
    <rect class="cls-10" x="173.8564" y="228.2992" width="103.8553" height="31.7436" rx="7.819" ry="7.819"/>
    <rect class="cls-12" x="292.3594" y="199.0078" width="227.1499" height="73.7943" rx="8.8136" ry="8.8136"/>
    <rect class="cls-10" x="298.1363" y="228.2992" width="103.8553" height="31.7436" rx="7.819" ry="7.819"/>
    <rect class="cls-10" x="408.3489" y="228.2992" width="103.8553" height="31.7436" rx="7.819" ry="7.819"/>
    <rect class="cls-9" x="52.729" y="342.1137" width="103.8553" height="31.7436" rx="7.819" ry="7.819"/>
    <rect class="cls-9" x="169.5838" y="342.1137" width="103.8553" height="31.7436" rx="7.819" ry="7.819"/>
    <rect class="cls-9" x="306.5242" y="342.1137" width="103.8553" height="31.7436" rx="7.819" ry="7.819"/>
    <rect class="cls-9" x="420.7368" y="342.1137" width="103.8553" height="31.7436" rx="7.819" ry="7.819"/>
  </g>
  <g id="Text">
    <text class="cls-6" transform="translate(76.8283 51.5444)"><tspan x="0" y="0">En</tspan><tspan class="cls-25" x="16.6318" y="0">t</tspan><tspan class="cls-18" x="21.8115" y="0">erprise</tspan></text>
    <text class="cls-2" transform="translate(46.5678 109.9858)"><tspan x="0" y="0">Admini</tspan><tspan class="cls-24" x="39.5996" y="0">s</tspan><tspan x="45.4912" y="0">t</tspan><tspan class="cls-22" x="49.9795" y="0">r</tspan><tspan class="cls-19" x="54.5635" y="0">a</tspan><tspan class="cls-17" x="61.2236" y="0">tion a</tspan><tspan class="cls-26" x="92.374" y="0">cc</tspan><tspan x="104.5664" y="0">ount</tspan></text>
    <text class="cls-2" transform="translate(234.5761 109.9856)"><tspan x="0" y="0">BU a</tspan><tspan class="cls-7" x="25.7754" y="0">cc</tspan><tspan x="37.9678" y="0">ount g</tspan><tspan class="cls-7" x="72.6953" y="0">r</tspan><tspan x="77.3506" y="0">oup A</tspan></text>
    <text class="cls-2" transform="translate(413.363 109.9858)"><tspan x="0" y="0">BU a</tspan><tspan class="cls-7" x="25.7754" y="0">cc</tspan><tspan x="37.9678" y="0">ount g</tspan><tspan class="cls-7" x="72.6953" y="0">r</tspan><tspan x="77.3506" y="0">oup B</tspan></text>
    <text class="cls-2" transform="translate(51.4934 164.2435)"><tspan x="0" y="0">Busine</tspan><tspan class="cls-20" x="38.0635" y="0">s</tspan><tspan x="43.9678" y="0">s unit g</tspan><tspan class="cls-26" x="84.0713" y="0">r</tspan><tspan x="88.7275" y="0">oup B admini</tspan><tspan class="cls-21" x="161.6016" y="0">s</tspan><tspan class="cls-17" x="167.4941" y="0">t</tspan><tspan class="cls-22" x="171.9814" y="0">r</tspan><tspan class="cls-19" x="176.5654" y="0">a</tspan><tspan x="183.2256" y="0">tion a</tspan><tspan class="cls-7" x="214.377" y="0">cc</tspan><tspan x="226.5693" y="0">ount</tspan></text>
    <text class="cls-2" transform="translate(60.9305 191.3195)"><tspan class="cls-1" x="0" y="0">P</tspan><tspan class="cls-7" x="7.5723" y="0">r</tspan><tspan x="12.2275" y="0">oject A</tspan></text>
    <text class="cls-2" transform="translate(65.0173 217.5595)"><tspan x="0" y="0">Confi</tspan><tspan class="cls-19" x="29.0039" y="0">g</tspan><tspan x="35.4961" y="0">u</tspan><tspan class="cls-22" x="42.5518" y="0">r</tspan><tspan class="cls-19" x="47.1357" y="0">a</tspan><tspan class="cls-17" x="53.7959" y="0">tion 1</tspan></text>
    <text class="cls-3" transform="translate(83.8928 248.2872)"><tspan class="cls-14" x="0" y="0">R</tspan><tspan x="7.1162" y="0">esou</tspan><tspan class="cls-7" x="31.9678" y="0">r</tspan><tspan class="cls-21" x="36.1553" y="0">c</tspan><tspan class="cls-16" x="41.8672" y="0">e A</tspan></text>
    <text class="cls-3" transform="translate(194.1054 248.2871)"><tspan class="cls-14" x="0" y="0">R</tspan><tspan x="7.1162" y="0">esou</tspan><tspan class="cls-7" x="31.9678" y="0">r</tspan><tspan class="cls-21" x="36.1553" y="0">c</tspan><tspan class="cls-16" x="41.8672" y="0">e B</tspan></text>
    <text class="cls-2" transform="translate(299.5097 217.5595)"><tspan x="0" y="0">Confi</tspan><tspan class="cls-19" x="29.0039" y="0">g</tspan><tspan x="35.4961" y="0">u</tspan><tspan class="cls-22" x="42.5518" y="0">r</tspan><tspan class="cls-19" x="47.1357" y="0">a</tspan><tspan class="cls-17" x="53.7959" y="0">tion 2</tspan></text>
    <text class="cls-3" transform="translate(318.3852 248.359)"><tspan class="cls-14" x="0" y="0">R</tspan><tspan x="7.1162" y="0">esou</tspan><tspan class="cls-7" x="31.9678" y="0">r</tspan><tspan class="cls-21" x="36.1553" y="0">c</tspan><tspan class="cls-16" x="41.8672" y="0">e C</tspan></text>
    <text class="cls-3" transform="translate(428.5978 248.2871)"><tspan class="cls-14" x="0" y="0">R</tspan><tspan x="7.1162" y="0">esou</tspan><tspan class="cls-7" x="31.9678" y="0">r</tspan><tspan class="cls-21" x="36.1553" y="0">c</tspan><tspan class="cls-16" x="41.8672" y="0">e D</tspan></text>
    <text class="cls-5" transform="translate(72.9779 362.1019)"><tspan class="cls-15" x="0" y="0">R</tspan><tspan x="7.584" y="0">esou</tspan><tspan class="cls-7" x="33.7197" y="0">r</tspan><tspan class="cls-11" x="38.1592" y="0">c</tspan><tspan x="44.1475" y="0">e A</tspan></text>
    <text class="cls-5" transform="translate(189.8327 362.1016)"><tspan class="cls-15" x="0" y="0">R</tspan><tspan x="7.584" y="0">esou</tspan><tspan class="cls-7" x="33.7197" y="0">r</tspan><tspan class="cls-11" x="38.1592" y="0">c</tspan><tspan x="44.1475" y="0">e B</tspan></text>
    <text class="cls-5" transform="translate(326.7731 362.1737)"><tspan class="cls-15" x="0" y="0">R</tspan><tspan x="7.584" y="0">esou</tspan><tspan class="cls-7" x="33.7197" y="0">r</tspan><tspan class="cls-11" x="38.1592" y="0">c</tspan><tspan x="44.1475" y="0">e C</tspan></text>
    <text class="cls-5" transform="translate(440.9857 362.1018)"><tspan class="cls-15" x="0" y="0">R</tspan><tspan x="7.584" y="0">esou</tspan><tspan class="cls-7" x="33.7197" y="0">r</tspan><tspan class="cls-11" x="38.1592" y="0">c</tspan><tspan x="44.1475" y="0">e D</tspan></text>
    <text class="cls-2" transform="translate(56.1328 328.1517)"><tspan class="cls-23" x="0" y="0">W</tspan><tspan x="11.124" y="0">orkload a</tspan><tspan class="cls-7" x="63.0713" y="0">cc</tspan><tspan x="75.2627" y="0">ount A</tspan></text>
    <text class="cls-2" transform="translate(303.6743 326.7075)"><tspan class="cls-23" x="0" y="0">W</tspan><tspan x="11.124" y="0">orkload a</tspan><tspan class="cls-7" x="63.0713" y="0">cc</tspan><tspan x="75.2627" y="0">ount B</tspan></text>
  </g>
</svg>