<?xml version="1.0" encoding="UTF-8"?><svg xmlns="http://www.w3.org/2000/svg" width="580" height="435" viewBox="0 0 580 435"><defs><style>.cls-1,.cls-2,.cls-3,.cls-4{fill:#001d6c;}.cls-1,.cls-2,.cls-4{font-size:12px;}.cls-1,.cls-5{font-family:IBMPlexSans-SemiBold, 'IBM Plex Sans';font-weight:600;}.cls-2{font-family:IBMPlexSans-LightItalic, 'IBM Plex Sans';font-style:italic;font-weight:300;}.cls-5{font-size:14px;}.cls-5,.cls-6,.cls-7,.cls-8{fill:#fff;}.cls-9{fill:#f6f2ff;}.cls-10{fill:#edf5ff;}.cls-7{stroke-width:.5px;}.cls-7,.cls-8{stroke:#001d6c;stroke-miterlimit:10;}.cls-8{stroke-dasharray:0 3;}.cls-4{font-family:IBMPlexSans-Text, 'IBM Plex Sans';}</style></defs><g id="Graphics"><path class="cls-3" d="M17.6075,79.9573V19.1717c0-4.742,3.7276-8.5861,8.3259-8.5861H172.2692c4.5983,0,8.3259,3.8441,8.3259,8.5861v46.9318l.0121-1.9226h375.1892c4.5983,0,8.3259,3.8441,8.3259,8.5861V415.2632c0,4.742-3.7276,8.5861-8.3259,8.5861H25.875c-4.5983,0-8.3259-3.8441-8.3259-8.5861V72.767"/><line class="cls-6" x1="544.9612" y1="149.0986" x2="544.9612" y2="140.2346"/><rect class="cls-6" x="213.4442" y="80.7526" width="153.8009" height="45.0067" rx="5.8238" ry="5.8238"/><rect class="cls-6" x="34.5321" y="80.7526" width="153.8009" height="45.0067" rx="5.8238" ry="5.8238"/><path class="cls-6" d="M392.3564,144.9678v-57.5137c0-3.7011,2.6074-6.7015,5.8238-6.7015h142.1532c3.2164,0,5.8238,3.0004,5.8238,6.7015v60.0164l-.01-4.0054V400.9805c0,3.5654-3.4892,6.4557-7.7934,6.4557H42.3255c-4.3042,0-7.7934-2.8903-7.7934-6.4557V143.4652c0-3.5654,3.4892-6.4557,7.7934-6.4557H393.5181"/><g><rect class="cls-6" x="42.5804" y="32.344" width="2" height="4"/><rect class="cls-6" x="42.5804" y="38.344" width="2" height="4"/><rect class="cls-6" x="48.5804" y="32.344" width="2" height="4"/><rect class="cls-6" x="48.5804" y="38.344" width="2" height="4"/><rect class="cls-6" x="42.5804" y="44.344" width="2" height="4"/><rect class="cls-6" x="48.5804" y="44.344" width="2" height="4"/><path class="cls-6" d="M64.5804,38.344c0-1.1046-.8954-2-2-2h-6v-8c0-1.1046-.8954-2-2-2h-16c-1.1046,0-2,.8954-2,2v26h28v-16Zm-26-10h16v24h-16V28.344Zm18,24v-14h6v14h-6Z"/></g><rect class="cls-10" x="42.4134" y="147.0283" width="492.6936" height="147.5242" rx="12.7409" ry="12.7409"/><rect class="cls-10" x="42.4134" y="303.7684" width="241.6778" height="94.2893" rx="12.7409" ry="12.7409"/><rect class="cls-10" x="293.4292" y="303.3378" width="241.6778" height="94.7199" rx="12.7409" ry="12.7409"/><rect class="cls-6" x="49.2944" y="173.2317" width="479.2131" height="111.9159" rx="8.5505" ry="8.5505"/><rect class="cls-9" x="57.867" y="199.0078" width="227.1499" height="73.7943" rx="8.8136" ry="8.8136"/><rect class="cls-8" x="63.6438" y="228.2992" width="103.8553" height="31.7436" rx="7.819" ry="7.819"/><rect class="cls-8" x="173.8564" y="228.2992" width="103.8553" height="31.7436" rx="7.819" ry="7.819"/><rect class="cls-9" x="292.3594" y="199.0078" width="227.1499" height="73.7943" rx="8.8136" ry="8.8136"/><rect class="cls-8" x="298.1363" y="228.2992" width="103.8553" height="31.7436" rx="7.819" ry="7.819"/><rect class="cls-8" x="408.3489" y="228.2992" width="103.8553" height="31.7436" rx="7.819" ry="7.819"/><rect class="cls-7" x="52.729" y="342.1137" width="103.8553" height="31.7436" rx="7.819" ry="7.819"/><rect class="cls-7" x="169.5838" y="342.1137" width="103.8553" height="31.7436" rx="7.819" ry="7.819"/><rect class="cls-7" x="306.5242" y="342.1137" width="103.8553" height="31.7436" rx="7.819" ry="7.819"/><rect class="cls-7" x="420.7368" y="342.1137" width="103.8553" height="31.7436" rx="7.819" ry="7.819"/></g><g id="Layer_20"><text class="cls-5" transform="translate(76.8283 51.5444)"><tspan x="0" y="0">Enterprise</tspan></text></g><g id="Layer_18"><text class="cls-1" transform="translate(46.5678 109.9858)"><tspan x="0" y="0">Administration account</tspan></text></g><g id="Layer_19"><text class="cls-1" transform="translate(234.5761 109.9856)"><tspan x="0" y="0">BU account group A</tspan></text></g><g id="Layer_3"><text class="cls-1" transform="translate(303.6743 326.7075)"><tspan x="0" y="0">Workload account B</tspan></text></g><g id="Layer_4"><text class="cls-1" transform="translate(56.1328 328.1517)"><tspan x="0" y="0">Workload account A</tspan></text></g><g id="Layer_5"><text class="cls-4" transform="translate(440.9857 362.1018)"><tspan x="0" y="0">Resource D</tspan></text></g><g id="Layer_6"><text class="cls-4" transform="translate(326.7731 362.1737)"><tspan x="0" y="0">Resource C</tspan></text></g><g id="Layer_7"><text class="cls-4" transform="translate(189.8327 362.1016)"><tspan x="0" y="0">Resource B</tspan></text></g><g id="Layer_8"><text class="cls-4" transform="translate(72.9779 362.1019)"><tspan x="0" y="0">Resource A</tspan></text></g><g id="Layer_9"><text class="cls-2" transform="translate(428.5978 248.2871)"><tspan x="0" y="0">Resource D</tspan></text></g><g id="Layer_10"><text class="cls-2" transform="translate(318.3852 248.359)"><tspan x="0" y="0">Resource C</tspan></text></g><g id="Layer_11"><text class="cls-1" transform="translate(299.5097 217.5595)"><tspan x="0" y="0">Configuration 2</tspan></text></g><g id="Layer_12"><text class="cls-2" transform="translate(194.1054 248.2871)"><tspan x="0" y="0">Resource B</tspan></text></g><g id="Layer_13"><text class="cls-2" transform="translate(83.8928 248.2872)"><tspan x="0" y="0">Resource A</tspan></text></g><g id="Layer_14"><text class="cls-1" transform="translate(65.0173 217.5595)"><tspan x="0" y="0">Configuration 1</tspan></text></g><g id="Layer_15"><text class="cls-1" transform="translate(60.9305 191.3195)"><tspan x="0" y="0">Project A</tspan></text></g><g id="Layer_16"><text class="cls-1" transform="translate(51.4934 164.2435)"><tspan x="0" y="0">Business unit group B administration account</tspan></text></g><g id="Layer_17"><text class="cls-1" transform="translate(413.363 109.9858)"><tspan x="0" y="0">BU account group B</tspan></text></g></svg>