<?xml version="1.0" encoding="utf-8"?>
<!-- Generator: Adobe Illustrator 27.0.1, SVG Export Plug-In . SVG Version: 6.00 Build 0)  -->
<svg version="1.1" xmlns="http://www.w3.org/2000/svg" xmlns:xlink="http://www.w3.org/1999/xlink" x="0px" y="0px"
	 viewBox="0 0 1021 767.7" style="enable-background:new 0 0 1021 767.7;" xml:space="preserve">
<style type="text/css">
	.st0{fill:#FFFFFF;stroke:#000000;stroke-miterlimit:10;}
	.st1{fill:none;stroke:#000000;stroke-miterlimit:10;}
	.st2{fill:none;stroke:#000000;stroke-miterlimit:10;stroke-dasharray:12.0915,12.0915;}
	.st3{fill:#FFFFFF;}
	.st4{font-family:'IBMPlexSans-Text';}
	.st5{font-size:14px;}
	.st6{fill:none;stroke:#000000;stroke-miterlimit:10;stroke-dasharray:12.2838,12.2838;}
	.st7{fill:none;stroke:#000000;stroke-miterlimit:10;stroke-dasharray:7.8803,7.8803;}
	.st8{font-size:12px;}
	.st9{fill:none;stroke:#000000;stroke-miterlimit:10;stroke-dasharray:12.643,12.643;}
</style>
<g id="Layer_1">
	<rect x="234" y="95.3" class="st0" width="760" height="576"/>
	<rect x="446.5" y="482.8" class="st0" width="368" height="130"/>
	<rect x="246.5" y="454.8" class="st0" width="351" height="59"/>
	<g>
		<g>
			<line class="st1" x1="764.5" y1="498.5" x2="758.5" y2="498.5"/>
			<line class="st2" x1="746.4" y1="498.5" x2="631.5" y2="497.9"/>
			<line class="st1" x1="625.5" y1="497.9" x2="619.5" y2="497.8"/>
		</g>
	</g>
</g>
<g id="Layer_8">
</g>
<g id="Layer_2">
	<g>
		<text transform="matrix(1 0 0 1 253.9487 111.6939)" class="st3 st4 st5">Deployable architecture </text>
	</g>
	<g>
		<text transform="matrix(1 0 0 1 253.9487 111.6939)" class="st4 st5">Deployable architecture </text>
	</g>
	<g>
		<text transform="matrix(1 0 0 1 253.9487 111.6939)" class="st1 st4 st5">Deployable architecture </text>
	</g>
</g>
<g id="Layer_3">
	<rect x="16.5" y="143.8" class="st0" width="267" height="72"/>
	<rect x="446.5" y="249.8" class="st0" width="368" height="130"/>
	<rect x="629.5" y="215.8" class="st0" width="249" height="54"/>
	<rect x="630.5" y="352.8" class="st0" width="248" height="44"/>
	<rect x="631.5" y="600.8" class="st0" width="347" height="44"/>
</g>
<g id="Layer_5">
	<g>
		<line class="st3" x1="284" y1="174.3" x2="750.5" y2="173.8"/>
		<g>
			<line class="st1" x1="284" y1="174.3" x2="290" y2="174.3"/>
			<line class="st6" x1="302.3" y1="174.3" x2="738.4" y2="173.8"/>
			<line class="st1" x1="744.5" y1="173.8" x2="750.5" y2="173.8"/>
		</g>
	</g>
	<line class="st1" x1="740.5" y1="204.8" x2="751.5" y2="213.8"/>
	<line class="st1" x1="751.5" y1="213.8" x2="761.5" y2="204.8"/>
	<g>
		<line class="st3" x1="751.3" y1="208.9" x2="751.3" y2="173.2"/>
		<g>
			<line class="st1" x1="751.3" y1="208.9" x2="751.3" y2="202.9"/>
			<line class="st7" x1="751.3" y1="195" x2="751.3" y2="183.2"/>
			<line class="st1" x1="751.3" y1="179.2" x2="751.3" y2="173.2"/>
		</g>
	</g>
</g>
<g id="Layer_13">
</g>
<g id="Layer_4">
	<g>
		<g>
			<path d="M28.5,166.7l0.8-0.7c0.6,0.8,1.3,1.2,2.2,1.2c1.1,0,1.8-0.6,1.8-1.5c0-0.7-0.4-1.1-1.4-1.3l-0.7-0.1
				c-1.6-0.3-2.4-1-2.4-2.3c0-1.5,1.1-2.3,2.8-2.3c1.3,0,2.2,0.5,2.8,1.3l-0.9,0.7c-0.4-0.6-1.1-1-2-1c-1,0-1.6,0.4-1.6,1.3
				c0,0.7,0.5,1.1,1.5,1.3l0.7,0.1c1.6,0.4,2.4,1.1,2.4,2.4c0,1.5-1.1,2.6-3,2.6C30.2,168.1,29.2,167.5,28.5,166.7z"/>
			<path d="M37.6,167.9c-0.8,0-1.2-0.5-1.2-1.2v-4.1h-1v-0.9H36c0.4,0,0.6-0.2,0.6-0.6V160h1v1.7h1.3v0.9h-1.3v4.3h1.2v0.9H37.6z"/>
			<path d="M44.9,167.9c-0.7,0-1-0.4-1.1-1h-0.1c-0.3,0.8-0.9,1.2-1.8,1.2c-1.3,0-2.1-0.7-2.1-1.9c0-1.2,0.9-1.8,2.7-1.8h1.2v-0.6
				c0-0.8-0.4-1.3-1.4-1.3c-0.7,0-1.2,0.4-1.5,0.9l-0.7-0.6c0.4-0.7,1.1-1.2,2.3-1.2c1.5,0,2.4,0.8,2.4,2.1v3.3h0.7v0.9H44.9z
				 M43.7,166.1v-1h-1.2c-1,0-1.5,0.3-1.5,0.9v0.2c0,0.6,0.4,0.9,1.1,0.9C43.1,167.2,43.7,166.7,43.7,166.1z"/>
			<path d="M46.4,164.8c0-2,1-3.2,2.8-3.2c1.2,0,2,0.6,2.4,1.5l-0.9,0.5c-0.2-0.6-0.7-1-1.4-1c-1.1,0-1.6,0.7-1.6,1.8v1.1
				c0,1,0.5,1.8,1.6,1.8c0.8,0,1.3-0.4,1.6-1.1l0.8,0.5c-0.4,0.9-1.2,1.5-2.4,1.5C47.4,168.1,46.4,166.8,46.4,164.8z"/>
			<path d="M52.9,159.1H54v5.5h0.1l0.9-1.1l1.6-1.8h1.3l-2.2,2.4l2.5,3.8h-1.3l-1.9-3.1l-0.9,0.9v2.1h-1.1V159.1z"/>
			<path d="M63.5,167.9l-2.1-6.2h1.1l1,3l0.6,2.1h0.1l0.7-2.1l1-3H67l-2.2,6.2H63.5z"/>
			<path d="M72.7,167.9c-0.7,0-1-0.4-1.1-1h-0.1c-0.3,0.8-0.9,1.2-1.8,1.2c-1.3,0-2.1-0.7-2.1-1.9c0-1.2,0.9-1.8,2.7-1.8h1.2v-0.6
				c0-0.8-0.4-1.3-1.4-1.3c-0.7,0-1.2,0.4-1.5,0.9l-0.7-0.6c0.4-0.7,1.1-1.2,2.3-1.2c1.5,0,2.4,0.8,2.4,2.1v3.3h0.7v0.9H72.7z
				 M71.5,166.1v-1h-1.2c-1,0-1.5,0.3-1.5,0.9v0.2c0,0.6,0.4,0.9,1.1,0.9C70.9,167.2,71.5,166.7,71.5,166.1z"/>
			<path d="M74.7,167.9v-6.2h1.1v1.2h0.1c0.2-0.6,0.8-1.2,1.8-1.2H78v1.1h-0.6c-1,0-1.6,0.4-1.6,1v4.1H74.7z"/>
			<path d="M79.1,159.8v-0.2c0-0.4,0.2-0.6,0.7-0.6s0.7,0.3,0.7,0.6v0.2c0,0.4-0.2,0.6-0.7,0.6S79.1,160.2,79.1,159.8z M79.2,161.7
				h1.1v6.2h-1.1V161.7z"/>
			<path d="M86.8,167.9c-0.7,0-1-0.4-1.1-1h-0.1c-0.3,0.8-0.9,1.2-1.8,1.2c-1.3,0-2.1-0.7-2.1-1.9c0-1.2,0.9-1.8,2.7-1.8h1.2v-0.6
				c0-0.8-0.4-1.3-1.4-1.3c-0.7,0-1.2,0.4-1.5,0.9l-0.7-0.6c0.4-0.7,1.1-1.2,2.3-1.2c1.5,0,2.4,0.8,2.4,2.1v3.3h0.7v0.9H86.8z
				 M85.6,166.1v-1h-1.2c-1,0-1.5,0.3-1.5,0.9v0.2c0,0.6,0.4,0.9,1.1,0.9C85,167.2,85.6,166.7,85.6,166.1z"/>
			<path d="M88.8,159.1h1.1v3.7h0c0.3-0.8,0.9-1.2,1.8-1.2c1.6,0,2.5,1.2,2.5,3.2c0,2-0.9,3.3-2.5,3.3c-0.9,0-1.5-0.4-1.8-1.2h0v1
				h-1.1V159.1z M93,165.4v-1.1c0-1-0.6-1.8-1.6-1.8c-0.8,0-1.5,0.5-1.5,1.1v2.3c0,0.7,0.7,1.1,1.5,1.1
				C92.4,167.1,93,166.4,93,165.4z"/>
			<path d="M96.9,167.9c-0.8,0-1.2-0.5-1.2-1.1v-7.7h1.1v7.9h0.9v0.9H96.9z"/>
			<path d="M98.7,164.8c0-2,1.1-3.2,2.8-3.2c1.7,0,2.7,1.3,2.7,3.1v0.5h-4.4v0.3c0,1,0.6,1.8,1.8,1.8c0.8,0,1.3-0.4,1.7-1l0.7,0.6
				c-0.4,0.8-1.3,1.3-2.5,1.3C99.8,168.1,98.7,166.8,98.7,164.8z M99.8,164.3L99.8,164.3l3.2,0.1v-0.1c0-1-0.6-1.7-1.5-1.7
				C100.5,162.5,99.8,163.2,99.8,164.3z"/>
			<path d="M105.2,166.9l0.8-0.6c0.5,0.6,1,0.9,1.8,0.9c0.8,0,1.2-0.3,1.2-0.9c0-0.5-0.2-0.8-1-0.9l-0.5-0.1c-1.2-0.2-2-0.7-2-1.8
				c0-1.2,0.9-1.9,2.3-1.9c1.1,0,1.7,0.4,2.2,1l-0.7,0.7c-0.3-0.4-0.8-0.7-1.6-0.7c-0.8,0-1.1,0.3-1.1,0.9c0,0.6,0.4,0.8,1.1,0.9
				l0.5,0.1c1.4,0.2,1.9,0.8,1.9,1.8c0,1.2-0.9,2-2.4,2C106.5,168.1,105.7,167.6,105.2,166.9z"/>
			<path d="M111.6,162.5v-0.2c0-0.4,0.2-0.7,0.8-0.7s0.8,0.3,0.8,0.7v0.2c0,0.4-0.2,0.7-0.8,0.7S111.6,162.9,111.6,162.5z
				 M111.6,167.3v-0.2c0-0.4,0.2-0.7,0.8-0.7s0.8,0.3,0.8,0.7v0.2c0,0.4-0.2,0.7-0.8,0.7S111.6,167.8,111.6,167.3z"/>
			<path d="M28.9,178.9v-0.3c0-0.7,0.4-1.3,1.5-1.3s1.5,0.6,1.5,1.3v0.3c0,0.7-0.4,1.3-1.5,1.3S28.9,179.7,28.9,178.9z"/>
			<path d="M47.1,182.3V174h3.5c1.5,0,2.4,1,2.4,2.5c0,1.5-0.9,2.5-2.4,2.5h-2.3v3.5H47.1z M48.3,177.9h2.2c0.7,0,1.2-0.4,1.2-1.1
				v-0.6c0-0.7-0.4-1.1-1.2-1.1h-2.2V177.9z"/>
			<path d="M54.4,182.3v-6.2h1.1v1.2h0.1c0.2-0.6,0.8-1.2,1.8-1.2h0.4v1.1h-0.6c-1,0-1.6,0.4-1.6,1v4.1H54.4z"/>
			<path d="M58.5,179.2c0-2,1.1-3.2,2.8-3.2c1.7,0,2.7,1.3,2.7,3.1v0.5h-4.4v0.3c0,1,0.6,1.8,1.8,1.8c0.8,0,1.3-0.4,1.7-1l0.7,0.6
				c-0.4,0.8-1.3,1.3-2.5,1.3C59.6,182.5,58.5,181.2,58.5,179.2z M59.6,178.7L59.6,178.7l3.2,0.1v-0.1c0-1-0.6-1.7-1.5-1.7
				C60.3,176.9,59.6,177.6,59.6,178.7z"/>
			<path d="M65.9,177.1h-1v-0.9h1V175c0-0.9,0.5-1.5,1.5-1.5h1v0.9H67v1.7h3.6v6.2h-1.1v-5.3H67v5.3h-1.1V177.1z M69.3,174.2v-0.2
				c0-0.4,0.2-0.6,0.7-0.6s0.7,0.3,0.7,0.6v0.2c0,0.4-0.2,0.6-0.7,0.6S69.3,174.6,69.3,174.2z"/>
			<path d="M74,179.2l-2.2-3.1h1.3l1.5,2.2h0l1.5-2.2h1.2l-2.2,3l2.2,3.2h-1.3l-1.5-2.4h0l-1.6,2.4h-1.2L74,179.2z"/>
			<path d="M82.9,182.3l-2.1-6.2h1.1l1,3l0.6,2.1h0.1l0.7-2.1l1-3h1.1l-2.2,6.2H82.9z"/>
			<path d="M92.1,182.3c-0.7,0-1-0.4-1.1-1h-0.1c-0.3,0.8-0.9,1.2-1.8,1.2c-1.3,0-2.1-0.7-2.1-1.9c0-1.2,0.9-1.8,2.7-1.8h1.2v-0.6
				c0-0.8-0.4-1.3-1.4-1.3c-0.7,0-1.2,0.4-1.5,0.9l-0.7-0.6c0.4-0.7,1.1-1.2,2.3-1.2c1.5,0,2.4,0.8,2.4,2.1v3.3h0.7v0.9H92.1z
				 M90.9,180.5v-1h-1.2c-1,0-1.5,0.3-1.5,0.9v0.2c0,0.6,0.4,0.9,1.1,0.9C90.3,181.6,90.9,181.1,90.9,180.5z"/>
			<path d="M94.1,182.3v-6.2h1.1v1.2h0.1c0.2-0.6,0.8-1.2,1.8-1.2h0.4v1.1h-0.6c-1,0-1.6,0.4-1.6,1v4.1H94.1z"/>
			<path d="M98.4,174.2v-0.2c0-0.4,0.2-0.6,0.7-0.6s0.7,0.3,0.7,0.6v0.2c0,0.4-0.2,0.6-0.7,0.6S98.4,174.6,98.4,174.2z M98.6,176.1
				h1.1v6.2h-1.1V176.1z"/>
			<path d="M106.2,182.3c-0.7,0-1-0.4-1.1-1H105c-0.3,0.8-0.9,1.2-1.8,1.2c-1.3,0-2.1-0.7-2.1-1.9c0-1.2,0.9-1.8,2.7-1.8h1.2v-0.6
				c0-0.8-0.4-1.3-1.4-1.3c-0.7,0-1.2,0.4-1.5,0.9l-0.7-0.6c0.4-0.7,1.1-1.2,2.3-1.2c1.5,0,2.4,0.8,2.4,2.1v3.3h0.7v0.9H106.2z
				 M105,180.5v-1h-1.2c-1,0-1.5,0.3-1.5,0.9v0.2c0,0.6,0.4,0.9,1.1,0.9C104.3,181.6,105,181.1,105,180.5z"/>
			<path d="M108.1,173.5h1.1v3.7h0c0.3-0.8,0.9-1.2,1.8-1.2c1.6,0,2.5,1.2,2.5,3.2c0,2-0.9,3.3-2.5,3.3c-0.9,0-1.5-0.4-1.8-1.2h0v1
				h-1.1V173.5z M112.4,179.8v-1.1c0-1-0.6-1.8-1.6-1.8c-0.8,0-1.5,0.5-1.5,1.1v2.3c0,0.7,0.7,1.1,1.5,1.1
				C111.8,181.5,112.4,180.8,112.4,179.8z"/>
			<path d="M116.3,182.3c-0.8,0-1.2-0.5-1.2-1.1v-7.7h1.1v7.9h0.9v0.9H116.3z"/>
			<path d="M118,179.2c0-2,1.1-3.2,2.8-3.2c1.7,0,2.7,1.3,2.7,3.1v0.5h-4.4v0.3c0,1,0.6,1.8,1.8,1.8c0.8,0,1.3-0.4,1.7-1l0.7,0.6
				c-0.4,0.8-1.3,1.3-2.5,1.3C119.1,182.5,118,181.2,118,179.2z M119.2,178.7L119.2,178.7l3.2,0.1v-0.1c0-1-0.6-1.7-1.5-1.7
				C119.9,176.9,119.2,177.6,119.2,178.7z"/>
			<path d="M130,173.2h1.1c-1.3,1.2-2.2,3.1-2.2,4.9v1c0,1.8,0.9,3.7,2.2,4.9H130c-1.2-1-2.2-3-2.2-5.4
				C127.8,176.3,128.8,174.2,130,173.2z"/>
			<path d="M131.9,174.2v-0.2c0-0.4,0.2-0.6,0.7-0.6s0.7,0.3,0.7,0.6v0.2c0,0.4-0.2,0.6-0.7,0.6S131.9,174.6,131.9,174.2z
				 M132,176.1h1.1v6.2H132V176.1z"/>
			<path d="M135.1,182.3v-6.2h1.1v1h0.1c0.3-0.7,0.8-1.2,1.8-1.2c1.3,0,2.1,0.9,2.1,2.4v4h-1.1v-3.8c0-1-0.4-1.6-1.3-1.6
				c-0.7,0-1.4,0.4-1.4,1.1v4.3H135.1z"/>
			<path d="M142,176.1h1.1v1h0c0.3-0.8,0.9-1.2,1.8-1.2c1.6,0,2.5,1.2,2.5,3.2c0,2-0.9,3.3-2.5,3.3c-0.9,0-1.5-0.4-1.8-1.2h0v3.4
				H142V176.1z M146.2,179.8v-1.1c0-1-0.6-1.8-1.6-1.8c-0.8,0-1.5,0.5-1.5,1.1v2.3c0,0.7,0.7,1.1,1.5,1.1
				C145.6,181.5,146.2,180.8,146.2,179.8z"/>
			<path d="M152.8,181.3L152.8,181.3c-0.3,0.6-0.8,1.2-1.8,1.2c-1.3,0-2.1-0.9-2.1-2.4v-4h1.1v3.8c0,1,0.4,1.6,1.3,1.6
				c0.7,0,1.4-0.4,1.4-1.1v-4.2h1.1v6.2h-1.1V181.3z"/>
			<path d="M157.4,182.3c-0.8,0-1.2-0.5-1.2-1.2v-4.1h-1v-0.9h0.6c0.4,0,0.6-0.2,0.6-0.6v-1.1h1v1.7h1.3v0.9h-1.3v4.3h1.2v0.9H157.4
				z"/>
			<path d="M160.2,184h-1.1c1.3-1.2,2.2-3.1,2.2-4.9v-1c0-1.8-0.9-3.7-2.2-4.9h1.1c1.2,1,2.2,3,2.2,5.4
				C162.3,180.9,161.4,183,160.2,184z"/>
			<path d="M28.9,193.3V193c0-0.7,0.4-1.3,1.5-1.3s1.5,0.6,1.5,1.3v0.3c0,0.7-0.4,1.3-1.5,1.3S28.9,194.1,28.9,193.3z"/>
			<path d="M46.7,192.6c0-2.8,1.4-4.3,3.6-4.3s3.6,1.5,3.6,4.3c0,2.8-1.4,4.3-3.6,4.3S46.7,195.4,46.7,192.6z M52.6,193.2v-1.4
				c0-1.6-0.9-2.6-2.3-2.6s-2.3,1-2.3,2.6v1.4c0,1.6,0.9,2.6,2.3,2.6S52.6,194.8,52.6,193.2z"/>
			<path d="M59.3,195.7L59.3,195.7c-0.3,0.6-0.8,1.2-1.8,1.2c-1.3,0-2.1-0.9-2.1-2.4v-4h1.1v3.8c0,1,0.4,1.6,1.3,1.6
				c0.7,0,1.4-0.4,1.4-1.1v-4.2h1.1v6.2h-1.1V195.7z"/>
			<path d="M63.9,196.7c-0.8,0-1.2-0.5-1.2-1.2v-4.1h-1v-0.9h0.6c0.4,0,0.6-0.2,0.6-0.6v-1.1h1v1.7h1.3v0.9h-1.3v4.3h1.2v0.9H63.9z"
				/>
			<path d="M66.7,190.5h1.1v1h0c0.3-0.8,0.9-1.2,1.8-1.2c1.6,0,2.5,1.2,2.5,3.2c0,2-0.9,3.3-2.5,3.3c-0.9,0-1.5-0.4-1.8-1.2h0v3.4
				h-1.1V190.5z M70.9,194.2v-1.1c0-1-0.6-1.8-1.6-1.8c-0.8,0-1.5,0.5-1.5,1.1v2.3c0,0.7,0.7,1.1,1.5,1.1
				C70.3,195.9,70.9,195.2,70.9,194.2z"/>
			<path d="M77.5,195.7L77.5,195.7c-0.3,0.6-0.8,1.2-1.8,1.2c-1.3,0-2.1-0.9-2.1-2.4v-4h1.1v3.8c0,1,0.4,1.6,1.3,1.6
				c0.7,0,1.4-0.4,1.4-1.1v-4.2h1.1v6.2h-1.1V195.7z"/>
			<path d="M82.1,196.7c-0.8,0-1.2-0.5-1.2-1.2v-4.1h-1v-0.9h0.6c0.4,0,0.6-0.2,0.6-0.6v-1.1h1v1.7h1.3v0.9h-1.3v4.3h1.2v0.9H82.1z"
				/>
			<path d="M84.3,195.7l0.8-0.6c0.5,0.6,1,0.9,1.8,0.9c0.8,0,1.2-0.3,1.2-0.9c0-0.5-0.2-0.8-1-0.9l-0.5-0.1c-1.2-0.2-2-0.7-2-1.8
				c0-1.2,0.9-1.9,2.3-1.9c1.1,0,1.7,0.4,2.2,1l-0.7,0.7c-0.3-0.4-0.8-0.7-1.6-0.7c-0.8,0-1.1,0.3-1.1,0.9c0,0.6,0.4,0.8,1.1,0.9
				l0.5,0.1c1.4,0.2,1.9,0.8,1.9,1.8c0,1.2-0.9,2-2.4,2C85.6,196.9,84.9,196.4,84.3,195.7z"/>
			<path d="M93.9,191.5h-1v-0.9h1v-1.2c0-0.9,0.5-1.5,1.5-1.5h1v0.9H95v1.7h1.3v0.9H95v5.3h-1.1V191.5z"/>
			<path d="M97.6,196.7v-6.2h1.1v1.2h0.1c0.2-0.6,0.8-1.2,1.8-1.2h0.4v1.1h-0.6c-1,0-1.6,0.4-1.6,1v4.1H97.6z"/>
			<path d="M101.6,193.6c0-2,1.1-3.2,2.8-3.2s2.8,1.3,2.8,3.2s-1.1,3.3-2.8,3.3S101.6,195.6,101.6,193.6z M106.1,194.1v-0.9
				c0-1.2-0.7-1.8-1.6-1.8c-1,0-1.6,0.6-1.6,1.8v0.9c0,1.2,0.7,1.8,1.6,1.8C105.4,195.9,106.1,195.3,106.1,194.1z"/>
			<path d="M108.8,196.7v-6.2h1.1v1h0.1c0.3-0.6,0.8-1.2,1.7-1.2s1.6,0.4,1.9,1.3h0c0.2-0.7,0.9-1.3,1.9-1.3c1.2,0,2,0.9,2,2.4v4
				h-1.1v-3.8c0-1-0.4-1.6-1.3-1.6c-0.7,0-1.4,0.4-1.4,1.1v4.3h-1.1v-3.8c0-1-0.4-1.6-1.2-1.6c-0.7,0-1.4,0.4-1.4,1.1v4.3H108.8z"/>
			<path d="M122.3,188.4h3.6c1.4,0,2.2,0.9,2.2,2.2c0,1.2-0.8,1.7-1.4,1.8v0.1c0.6,0,1.7,0.6,1.7,2c0,1.4-0.9,2.4-2.2,2.4h-3.9
				V188.4z M123.4,192h2.2c0.7,0,1.2-0.4,1.2-1.1v-0.4c0-0.7-0.4-1.1-1.2-1.1h-2.2V192z M123.4,195.7h2.4c0.8,0,1.3-0.4,1.3-1.2
				v-0.4c0-0.8-0.5-1.2-1.3-1.2h-2.4V195.7z"/>
			<path d="M134.9,187.6h1.1c-1.3,1.2-2.2,3.1-2.2,4.9v1c0,1.8,0.9,3.7,2.2,4.9h-1.1c-1.2-1-2.2-3-2.2-5.4
				C132.8,190.7,133.8,188.6,134.9,187.6z"/>
			<path d="M136.5,193.6c0-2,1.1-3.2,2.8-3.2s2.8,1.3,2.8,3.2s-1.1,3.3-2.8,3.3S136.5,195.6,136.5,193.6z M141,194.1v-0.9
				c0-1.2-0.7-1.8-1.6-1.8c-1,0-1.6,0.6-1.6,1.8v0.9c0,1.2,0.7,1.8,1.6,1.8C140.3,195.9,141,195.3,141,194.1z"/>
			<path d="M147.5,195.7L147.5,195.7c-0.3,0.6-0.8,1.2-1.8,1.2c-1.3,0-2.1-0.9-2.1-2.4v-4h1.1v3.8c0,1,0.4,1.6,1.3,1.6
				c0.7,0,1.4-0.4,1.4-1.1v-4.2h1.1v6.2h-1.1V195.7z"/>
			<path d="M152.1,196.7c-0.8,0-1.2-0.5-1.2-1.2v-4.1h-1v-0.9h0.6c0.4,0,0.6-0.2,0.6-0.6v-1.1h1v1.7h1.3v0.9H152v4.3h1.2v0.9H152.1z
				"/>
			<path d="M154.8,190.5h1.1v1h0c0.3-0.8,0.9-1.2,1.8-1.2c1.6,0,2.5,1.2,2.5,3.2c0,2-0.9,3.3-2.5,3.3c-0.9,0-1.5-0.4-1.8-1.2h0v3.4
				h-1.1V190.5z M159.1,194.2v-1.1c0-1-0.6-1.8-1.6-1.8c-0.8,0-1.5,0.5-1.5,1.1v2.3c0,0.7,0.7,1.1,1.5,1.1
				C158.5,195.9,159.1,195.2,159.1,194.2z"/>
			<path d="M165.7,195.7L165.7,195.7c-0.3,0.6-0.8,1.2-1.8,1.2c-1.3,0-2.1-0.9-2.1-2.4v-4h1.1v3.8c0,1,0.4,1.6,1.3,1.6
				c0.7,0,1.4-0.4,1.4-1.1v-4.2h1.1v6.2h-1.1V195.7z"/>
			<path d="M170.3,196.7c-0.8,0-1.2-0.5-1.2-1.2v-4.1h-1v-0.9h0.6c0.4,0,0.6-0.2,0.6-0.6v-1.1h1v1.7h1.3v0.9h-1.3v4.3h1.2v0.9H170.3
				z"/>
			<path d="M173.1,198.4H172c1.3-1.2,2.2-3.1,2.2-4.9v-1c0-1.8-0.9-3.7-2.2-4.9h1.1c1.2,1,2.2,3,2.2,5.4
				C175.2,195.3,174.2,197.4,173.1,198.4z"/>
		</g>
	</g>
</g>
<g id="Layer_6">
	<text transform="matrix(1 0 0 1 533.1146 322.6381)" class="st4 st5">Member deployable architecture A</text>
</g>
<g id="Layer_7">
	<text transform="matrix(1 0 0 1 643.3185 380.0376)" class="st4 st8">A creates outputs</text>
</g>
<g id="Layer_15">
	<text transform="matrix(1 0 0 1 642.5613 629.9935)" class="st4 st8">B creates outputs that display at the stack level</text>
</g>
<g id="Layer_10">
	<text transform="matrix(1 0 0 1 644.1146 247.6381)" class="st4 st8">A uses the prefix as an input</text>
</g>
<g id="Layer_11">
	<g>
		<g>
			<line class="st1" x1="764" y1="397.3" x2="764" y2="403.3"/>
			<line class="st9" x1="764.1" y1="416" x2="764.4" y2="485.5"/>
			<line class="st1" x1="764.5" y1="491.8" x2="764.5" y2="497.8"/>
		</g>
	</g>
	<g id="Layer_12">
		<line class="st1" x1="613.7" y1="497.7" x2="624.5" y2="506.8"/>
		<line class="st1" x1="623.7" y1="488.7" x2="613.7" y2="497.7"/>
	</g>
</g>
<g id="Layer_14">
	<text transform="matrix(1 0 0 1 271.4296 489.2598)" class="st4 st8">B uses an output from A as an input</text>
</g>
<g id="Layer_9">
	<text transform="matrix(1 0 0 1 533.1046 548.0599)" class="st4 st5">Member deployable architecture B</text>
</g>
</svg>
